# Blender v2.90.0 OBJ File: ''
# www.blender.org
mtllib cube-bevelled.mtl
o Cube.003_Cube.006
v 0.460000 -0.500000 -0.460000
v -0.500000 0.460000 -0.460000
v 0.460000 0.460000 0.500000
v 0.500000 0.460000 -0.460000
v 0.460000 0.460000 -0.500000
v 0.460000 -0.460000 -0.500000
v -0.460000 0.460000 -0.500000
v -0.460000 -0.500000 -0.460000
v 0.460000 -0.500000 0.460000
v -0.460000 -0.500000 0.460000
v -0.500000 -0.460000 0.460000
v -0.500000 0.460000 0.460000
v -0.500000 -0.460000 -0.460000
v 0.460000 -0.460000 0.500000
v -0.460000 0.460000 0.500000
v -0.460000 -0.460000 0.500000
v 0.460000 0.500000 -0.460000
v -0.460000 0.500000 -0.460000
v -0.460000 0.500000 0.460000
v 0.460000 0.500000 0.460000
v 0.500000 -0.460000 -0.460000
v 0.500000 0.460000 0.460000
v 0.500000 -0.460000 0.460000
v -0.460000 -0.460000 -0.500000
v 0.460000 -0.500000 -0.460000
v -0.500000 0.460000 -0.460000
v 0.460000 0.460000 0.500000
v 0.500000 0.460000 -0.460000
v 0.460000 0.460000 -0.500000
v 0.460000 -0.460000 -0.500000
v -0.460000 0.460000 -0.500000
v -0.460000 -0.500000 -0.460000
v 0.460000 -0.500000 0.460000
v -0.460000 -0.500000 0.460000
v -0.500000 -0.460000 0.460000
v -0.500000 0.460000 0.460000
v -0.500000 -0.460000 -0.460000
v 0.460000 -0.460000 0.500000
v -0.460000 0.460000 0.500000
v -0.460000 -0.460000 0.500000
v 0.460000 0.500000 -0.460000
v -0.460000 0.500000 -0.460000
v -0.460000 0.500000 0.460000
v 0.460000 0.500000 0.460000
v 0.500000 -0.460000 -0.460000
v 0.500000 0.460000 0.460000
v 0.500000 -0.460000 0.460000
v -0.460000 -0.460000 -0.500000
vt 0.617236 0.257591
vt 0.381057 0.495935
vt 0.381057 0.257618
vt 0.366191 0.744590
vt 0.131065 0.507176
vt 0.366191 0.507176
vt 0.617236 0.744590
vt 0.381057 0.507176
vt 0.617236 0.507152
vt 0.381057 0.993453
vt 0.617236 0.758792
vt 0.617236 0.993732
vt 0.866359 0.744590
vt 0.631111 0.507152
vt 0.866359 0.507152
vt 0.381057 0.243893
vt 0.617236 0.008680
vt 0.617236 0.243866
vt 0.617236 1.008538
vt 0.617236 0.993732
vt 0.631383 0.993840
vt 0.617236 0.257591
vt 0.617236 0.243866
vt 0.631111 0.257591
vt 0.631383 0.758720
vt 0.617236 0.758792
vt 0.617236 0.744590
vt 0.631111 0.507152
vt 0.617236 0.507152
vt 0.617236 0.495909
vt 0.381057 1.008755
vt 0.366191 0.993840
vt 0.381057 0.993453
vt 0.366191 0.257621
vt 0.381057 0.243893
vt 0.381057 0.257618
vt 0.366191 0.758510
vt 0.381057 0.744625
vt 0.381057 0.758510
vt 0.381057 0.495935
vt 0.381057 0.507176
vt 0.366191 0.507176
vt 0.866359 0.507152
vt 0.881111 0.744590
vt 0.866359 0.744590
vt 0.631111 0.744590
vt 0.116326 0.507176
vt 0.131065 0.744590
vt 0.116326 0.744590
vt 0.631111 0.496196
vt 0.617236 0.495909
vt 0.131065 0.744590
vt 0.381057 0.744625
vt 0.381057 0.758510
vt 0.631111 0.744590
vt 0.381057 0.008707
vt 0.366191 0.495935
vt 0.881111 0.507152
vt 0.366191 0.744590
vt 0.131065 0.507176
vn -0.0000 -1.0000 -0.0000
vn -1.0000 -0.0000 0.0000
vn -0.0000 -0.0000 1.0000
vn 0.0000 1.0000 0.0000
vn 1.0000 -0.0000 0.0000
vn 0.0000 0.0000 -1.0000
vn 0.0003 -1.0000 0.0000
vn -0.0003 -0.0000 -1.0000
vn -0.0000 -0.0003 1.0000
usemtl Material.003
s 1
f 1/1/1 10/2/1 8/3/1
f 12/4/2 13/5/2 11/6/2
f 3/7/3 16/8/3 14/9/3
f 18/10/4 20/11/4 17/12/4
f 4/13/5 23/14/5 21/15/5
f 24/16/6 5/17/6 6/18/6
f 29/19/6 41/20/4 28/21/5
f 25/22/1 30/23/6 45/24/5
f 46/25/5 44/26/4 27/27/3
f 47/28/5 38/29/3 33/30/1
f 31/31/6 26/32/2 42/33/4
f 37/34/2 48/35/6 32/36/1
f 36/37/2 39/38/3 43/39/4
f 34/40/1 40/41/3 35/42/2
f 34/40/1 37/34/2 32/36/1
f 32/36/7 30/23/8 25/22/1
f 45/43/5 29/44/6 28/45/5
f 39/38/3 35/42/2 40/41/3
f 38/29/9 46/46/5 27/27/3
f 48/47/6 26/48/2 31/49/6
f 43/39/4 27/27/3 44/26/4
f 44/26/4 28/21/5 41/20/4
f 33/30/1 40/41/3 34/40/1
f 42/33/4 36/37/2 43/39/4
f 41/20/4 31/31/6 42/33/4
f 33/30/1 45/24/5 47/50/5
f 1/1/1 9/51/1 10/2/1
f 12/4/2 2/52/2 13/5/2
f 3/7/3 15/53/3 16/8/3
f 18/10/4 19/54/4 20/11/4
f 4/13/5 22/55/5 23/14/5
f 24/16/6 7/56/6 5/17/6
f 34/40/1 35/57/2 37/34/2
f 32/36/7 48/35/6 30/23/8
f 45/43/5 30/58/6 29/44/6
f 39/38/3 36/59/2 35/42/2
f 38/29/9 47/28/5 46/46/5
f 48/47/6 37/60/2 26/48/2
f 43/39/4 39/38/3 27/27/3
f 44/26/4 46/25/5 28/21/5
f 33/30/1 38/29/3 40/41/3
f 42/33/4 26/32/2 36/37/2
f 41/20/4 29/19/6 31/31/6
f 33/30/1 25/22/1 45/24/5
