# Blender 4.0.2
# www.blender.org
mtllib cube-bevelled-thin.mtl
g Cube_Mesh
v -0.990000 -1.000000 0.990000
v -0.990000 -0.990000 1.000000
v -1.000000 -0.990000 0.990000
v -0.990000 -0.998664 0.994993
v -0.994993 -0.998664 0.990000
v -0.994782 -0.997366 0.994782
v -0.994993 -0.990000 0.998664
v -0.990000 -0.994993 0.998664
v -0.994782 -0.994782 0.997366
v -0.998664 -0.994993 0.990000
v -0.998664 -0.990000 0.994993
v -0.997366 -0.994782 0.994782
v -0.990000 0.990000 1.000000
v -0.990000 1.000000 0.990000
v -1.000000 0.990000 0.990000
v -0.990000 0.994993 0.998664
v -0.994993 0.990000 0.998664
v -0.994782 0.994782 0.997366
v -0.994993 0.998664 0.990000
v -0.990000 0.998664 0.994993
v -0.994782 0.997366 0.994782
v -0.998664 0.990000 0.994993
v -0.998664 0.994993 0.990000
v -0.997366 0.994782 0.994782
v -0.990000 -1.000000 -0.990000
v -1.000000 -0.990000 -0.990000
v -0.990000 -0.990000 -1.000000
v -0.994993 -0.998664 -0.990000
v -0.990000 -0.998664 -0.994993
v -0.994782 -0.997366 -0.994782
v -0.998664 -0.990000 -0.994993
v -0.998664 -0.994993 -0.990000
v -0.997366 -0.994782 -0.994782
v -0.990000 -0.994993 -0.998664
v -0.994993 -0.990000 -0.998664
v -0.994782 -0.994782 -0.997366
v -0.990000 1.000000 -0.990000
v -0.990000 0.990000 -1.000000
v -1.000000 0.990000 -0.990000
v -0.990000 0.998664 -0.994993
v -0.994993 0.998664 -0.990000
v -0.994782 0.997366 -0.994782
v -0.994993 0.990000 -0.998664
v -0.990000 0.994993 -0.998664
v -0.994782 0.994782 -0.997366
v -0.998664 0.994993 -0.990000
v -0.998664 0.990000 -0.994993
v -0.997366 0.994782 -0.994782
v 0.990000 -1.000000 0.990000
v 1.000000 -0.990000 0.990000
v 0.990000 -0.990000 1.000000
v 0.994993 -0.998664 0.990000
v 0.990000 -0.998664 0.994993
v 0.994782 -0.997366 0.994782
v 0.998664 -0.990000 0.994993
v 0.998664 -0.994993 0.990000
v 0.997366 -0.994782 0.994782
v 0.990000 -0.994993 0.998664
v 0.994993 -0.990000 0.998664
v 0.994782 -0.994782 0.997366
v 0.990000 1.000000 0.990000
v 0.990000 0.990000 1.000000
v 1.000000 0.990000 0.990000
v 0.990000 0.998664 0.994993
v 0.994993 0.998664 0.990000
v 0.994782 0.997366 0.994782
v 0.994993 0.990000 0.998664
v 0.990000 0.994993 0.998664
v 0.994782 0.994782 0.997366
v 0.998664 0.994993 0.990000
v 0.998664 0.990000 0.994993
v 0.997366 0.994782 0.994782
v 0.990000 -1.000000 -0.990000
v 0.990000 -0.990000 -1.000000
v 1.000000 -0.990000 -0.990000
v 0.990000 -0.998664 -0.994993
v 0.994993 -0.998664 -0.990000
v 0.994782 -0.997366 -0.994782
v 0.994993 -0.990000 -0.998664
v 0.990000 -0.994993 -0.998664
v 0.994782 -0.994782 -0.997366
v 0.998664 -0.994993 -0.990000
v 0.998664 -0.990000 -0.994993
v 0.997366 -0.994782 -0.994782
v 0.990000 1.000000 -0.990000
v 1.000000 0.990000 -0.990000
v 0.990000 0.990000 -1.000000
v 0.994993 0.998664 -0.990000
v 0.990000 0.998664 -0.994993
v 0.994782 0.997366 -0.994782
v 0.998664 0.990000 -0.994993
v 0.998664 0.994993 -0.990000
v 0.997366 0.994782 -0.994782
v 0.990000 0.994993 -0.998664
v 0.994993 0.990000 -0.998664
v 0.994782 0.994782 -0.997366
vn -0.0000 -0.0000 1.0000
vn 1.0000 -0.0000 -0.0000
vn -0.0000 1.0000 -0.0000
vn -1.0000 -0.0000 -0.0000
vn -0.0000 -0.0000 -1.0000
vn -0.2502 -0.9353 0.2502
vn -0.2178 -0.6901 0.6901
vn -0.2502 -0.2502 0.9353
vn -0.6902 -0.2178 0.6901
vn -0.9353 -0.2502 0.2502
vn -0.6901 -0.6902 0.2178
vn -0.5774 -0.5774 0.5774
vn -0.2502 0.2502 0.9353
vn -0.2178 0.6901 0.6901
vn -0.2502 0.9353 0.2502
vn -0.6902 0.6901 0.2178
vn -0.9353 0.2502 0.2502
vn -0.6901 0.2178 0.6901
vn -0.5774 0.5774 0.5774
vn -0.2502 -0.9353 -0.2502
vn -0.6902 -0.6901 -0.2178
vn -0.9353 -0.2502 -0.2502
vn -0.6901 -0.2178 -0.6901
vn -0.2502 -0.2502 -0.9353
vn -0.2178 -0.6901 -0.6901
vn -0.5774 -0.5774 -0.5774
vn -0.2502 0.9353 -0.2502
vn -0.2178 0.6901 -0.6901
vn -0.2502 0.2502 -0.9353
vn -0.6902 0.2178 -0.6901
vn -0.9353 0.2502 -0.2502
vn -0.6901 0.6902 -0.2178
vn -0.5774 0.5774 -0.5774
vn 0.2502 -0.9353 0.2502
vn 0.6902 -0.6901 0.2178
vn 0.9353 -0.2502 0.2502
vn 0.6901 -0.2178 0.6901
vn 0.2502 -0.2502 0.9353
vn 0.2178 -0.6901 0.6901
vn 0.5774 -0.5774 0.5774
vn 0.2502 0.9353 0.2502
vn 0.2178 0.6901 0.6901
vn 0.2502 0.2502 0.9353
vn 0.6902 0.2178 0.6901
vn 0.9353 0.2502 0.2502
vn 0.6901 0.6902 0.2178
vn 0.5774 0.5774 0.5774
vn 0.2502 -0.9353 -0.2502
vn 0.2178 -0.6901 -0.6901
vn 0.2502 -0.2502 -0.9353
vn 0.6902 -0.2178 -0.6901
vn 0.9353 -0.2502 -0.2502
vn 0.6901 -0.6902 -0.2178
vn 0.5774 -0.5774 -0.5774
vn 0.2502 0.9353 -0.2502
vn 0.6902 0.6901 -0.2178
vn 0.9353 0.2502 -0.2502
vn 0.6901 0.2178 -0.6901
vn 0.2502 0.2502 -0.9353
vn 0.2178 0.6901 -0.6901
vn 0.5774 0.5774 -0.5774
vn -0.2585 -0.9660 -0.0000
vn -0.7071 -0.7071 -0.0000
vn -0.9660 -0.2585 -0.0000
vn -0.2585 -0.0000 0.9660
vn -0.7071 -0.0000 0.7071
vn -0.9660 -0.0000 0.2585
vn -0.2585 0.9660 -0.0000
vn -0.7071 0.7071 -0.0000
vn -0.9660 0.2585 -0.0000
vn -0.2585 -0.0000 -0.9660
vn -0.7071 -0.0000 -0.7071
vn -0.9660 -0.0000 -0.2585
vn -0.0000 -0.9660 -0.2585
vn -0.0000 -0.7071 -0.7071
vn -0.0000 -0.2585 -0.9660
vn -0.0000 0.9660 -0.2585
vn -0.0000 0.7071 -0.7071
vn -0.0000 0.2585 -0.9660
vn 0.9660 -0.0000 -0.2585
vn 0.7071 -0.0000 -0.7071
vn 0.2585 -0.0000 -0.9660
vn 0.2585 -0.9660 -0.0000
vn 0.7071 -0.7071 -0.0000
vn 0.9660 -0.2585 -0.0000
vn 0.2585 0.9660 -0.0000
vn 0.7071 0.7071 -0.0000
vn 0.9660 0.2585 -0.0000
vn 0.2585 -0.0000 0.9660
vn 0.7071 -0.0000 0.7071
vn 0.9660 -0.0000 0.2585
vn -0.0000 -0.9660 0.2585
vn -0.0000 -0.7071 0.7071
vn -0.0000 -0.2585 0.9660
vn -0.0000 0.9660 0.2585
vn -0.0000 0.7071 0.7071
vn -0.0000 0.2585 0.9660
vn -0.0000 -1.0000 -0.0000
vn -0.2635 -0.9280 0.2635
vn -0.2635 -0.2635 0.9280
vn -0.6901 -0.2178 0.6902
vn -0.9280 -0.2635 0.2635
vn -0.6902 -0.6901 0.2178
vn -0.2635 0.2635 0.9280
vn -0.2635 0.9280 0.2635
vn -0.6901 0.6902 0.2178
vn -0.9280 0.2635 0.2635
vn -0.2635 -0.9280 -0.2635
vn -0.6901 -0.6902 -0.2178
vn -0.9280 -0.2635 -0.2635
vn -0.2635 -0.2635 -0.9280
vn -0.2635 0.9280 -0.2635
vn -0.2635 0.2635 -0.9280
vn -0.6901 0.2178 -0.6902
vn -0.9280 0.2635 -0.2635
vn -0.6902 0.6901 -0.2178
vn 0.2635 -0.9280 0.2635
vn 0.6901 -0.6902 0.2178
vn 0.9280 -0.2635 0.2635
vn 0.2635 -0.2635 0.9280
vn 0.2635 0.9280 0.2635
vn 0.2635 0.2635 0.9280
vn 0.6901 0.2178 0.6902
vn 0.9280 0.2635 0.2635
vn 0.6902 0.6901 0.2178
vn 0.2635 -0.9280 -0.2635
vn 0.2635 -0.2635 -0.9280
vn 0.6901 -0.2178 -0.6902
vn 0.9280 -0.2635 -0.2635
vn 0.6902 -0.6901 -0.2178
vn 0.2635 0.9280 -0.2635
vn 0.6901 0.6902 -0.2178
vn 0.9280 0.2635 -0.2635
vn 0.2635 0.2635 -0.9280
vt 0.623750 0.751250
vt 0.376250 0.998750
vt 0.376250 0.751250
vt 0.623750 0.501250
vt 0.376250 0.748750
vt 0.376250 0.501250
vt 0.873750 0.501250
vt 0.626250 0.748750
vt 0.626250 0.501250
vt 0.623750 0.001250
vt 0.376250 0.248750
vt 0.376250 0.001250
vt 0.623750 0.251250
vt 0.376250 0.498750
vt 0.376250 0.251250
vt 0.126250 0.749374
vt 0.125626 0.748750
vt 0.126250 0.748750
vt 0.125652 0.750000
vt 0.125652 0.749348
vt 0.376250 1.000000
vt 0.375000 0.998750
vt 0.376250 0.000626
vt 0.375000 0.000000
vt 0.376250 0.000000
vt 0.375000 0.001250
vt 0.125000 0.749348
vt 0.125000 0.748750
vt 0.624374 0.998750
vt 0.623750 1.000000
vt 0.623750 0.998750
vt 0.625000 0.998750
vt 0.624348 0.999348
vt 0.875000 0.748750
vt 0.873750 0.750000
vt 0.873750 0.748750
vt 0.625000 0.001250
vt 0.624348 0.000652
vt 0.625000 0.000000
vt 0.623750 0.000626
vt 0.624374 0.001250
vt 0.623750 0.000000
vt 0.625000 0.999348
vt 0.624348 0.999671
vt 0.125626 0.501250
vt 0.126250 0.500626
vt 0.126250 0.501250
vt 0.125000 0.500652
vt 0.125652 0.500652
vt 0.376250 0.249374
vt 0.375000 0.248750
vt 0.376250 0.250626
vt 0.375000 0.249348
vt 0.375000 0.251250
vt 0.125652 0.500000
vt 0.126250 0.500000
vt 0.873750 0.500000
vt 0.875000 0.501250
vt 0.625000 0.251250
vt 0.624348 0.250652
vt 0.625000 0.250652
vt 0.623750 0.250626
vt 0.624374 0.251250
vt 0.623750 0.249374
vt 0.624374 0.248750
vt 0.623750 0.248750
vt 0.625000 0.248750
vt 0.624348 0.249348
vt 0.624348 0.250329
vt 0.374374 0.748750
vt 0.373750 0.749374
vt 0.373750 0.748750
vt 0.375652 0.749348
vt 0.374348 0.749348
vt 0.376250 0.749374
vt 0.375626 0.748750
vt 0.376250 0.750626
vt 0.375000 0.751250
vt 0.374348 0.750000
vt 0.373750 0.750000
vt 0.374671 0.749348
vt 0.626250 0.750000
vt 0.625626 0.748750
vt 0.625000 0.751250
vt 0.624348 0.750652
vt 0.625000 0.750652
vt 0.623750 0.750626
vt 0.624374 0.751250
vt 0.623750 0.749374
vt 0.624374 0.748750
vt 0.623750 0.748750
vt 0.624348 0.749348
vt 0.624348 0.750329
vt 0.373750 0.500626
vt 0.374374 0.501250
vt 0.373750 0.501250
vt 0.374348 0.500000
vt 0.374348 0.500652
vt 0.376250 0.499374
vt 0.375000 0.498750
vt 0.376250 0.500626
vt 0.375000 0.499348
vt 0.375626 0.501250
vt 0.375652 0.500652
vt 0.374671 0.500652
vt 0.625626 0.501250
vt 0.626250 0.500000
vt 0.624348 0.500652
vt 0.625652 0.500652
vt 0.623750 0.500626
vt 0.624374 0.501250
vt 0.623750 0.499374
vt 0.624374 0.498750
vt 0.623750 0.498750
vt 0.625000 0.498750
vt 0.624348 0.499348
vt 0.624671 0.500652
vt 0.624348 0.500329
vt 0.125000 0.501250
vt 0.373750 0.500000
vt 0.126250 0.750000
vt 0.375000 0.999348
vt 0.375000 0.000652
vt 0.874348 0.750000
vt 0.624348 0.000329
vt 0.375000 0.250652
vt 0.874348 0.500000
vt 0.625000 0.250000
vt 0.375000 0.750652
vt 0.625652 0.750000
vt 0.624671 0.499348
s 0
g off
f 62/1/1 2/2/1 51/3/1
f 86/4/2 50/5/2 75/6/2
f 37/7/3 61/8/3 85/9/3
f 15/10/4 26/11/4 3/12/4
f 38/13/5 74/14/5 27/15/5
f 4/16/6 5/17/6 1/18/6
f 4/16/7 9/19/7 6/20/7
f 7/21/8 8/22/8 2/2/8
f 11/23/9 9/24/9 7/25/9
f 10/26/10 11/23/10 3/12/10
f 5/17/11 12/27/11 10/28/11
f 6/20/12 9/19/12 12/27/12
f 16/29/13 17/30/13 13/31/13
f 20/32/14 18/33/14 16/29/14
f 19/34/15 20/35/15 14/36/15
f 19/37/16 24/38/16 21/39/16
f 22/40/17 23/41/17 15/10/17
f 17/42/18 24/38/18 22/40/18
f 18/33/19 21/43/19 24/44/19
f 28/45/20 29/46/20 25/47/20
f 28/45/21 33/48/21 30/49/21
f 31/50/22 32/51/22 26/11/22
f 35/52/23 33/53/23 31/50/23
f 34/54/24 35/52/24 27/15/24
f 29/46/25 36/55/25 34/56/25
f 30/49/26 33/48/26 36/55/26
f 40/57/27 41/58/27 37/7/27
f 40/59/28 45/60/28 42/61/28
f 43/62/29 44/63/29 38/13/29
f 47/64/30 45/60/30 43/62/30
f 46/65/31 47/64/31 39/66/31
f 41/67/32 48/68/32 46/65/32
f 42/61/33 45/60/33 48/69/33
f 52/70/34 53/71/34 49/72/34
f 52/70/35 57/73/35 54/74/35
f 55/75/36 56/76/36 50/5/36
f 59/77/37 57/73/37 55/75/37
f 58/78/38 59/77/38 51/3/38
f 53/71/39 60/79/39 58/80/39
f 54/74/40 57/81/40 60/79/40
f 64/82/41 65/83/41 61/8/41
f 64/84/42 69/85/42 66/86/42
f 67/87/43 68/88/43 62/1/43
f 71/89/44 69/85/44 67/87/44
f 70/90/45 71/89/45 63/91/45
f 65/83/46 72/92/46 70/90/46
f 66/86/47 69/85/47 72/93/47
f 76/94/48 77/95/48 73/96/48
f 76/94/49 81/97/49 78/98/49
f 79/99/50 80/100/50 74/14/50
f 83/101/51 81/102/51 79/99/51
f 82/103/52 83/101/52 75/6/52
f 77/95/53 84/104/53 82/103/53
f 78/98/54 81/97/54 84/105/54
f 88/106/55 89/107/55 85/9/55
f 88/106/56 93/108/56 90/109/56
f 91/110/57 92/111/57 86/4/57
f 95/112/58 93/108/58 91/110/58
f 94/113/59 95/112/59 87/114/59
f 89/115/60 96/116/60 94/113/60
f 90/117/61 93/108/61 96/118/61
f 1/18/62 28/45/62 25/47/62
f 5/17/63 32/119/63 28/45/63
f 10/26/64 26/11/64 32/51/64
f 13/31/65 7/21/65 2/2/65
f 17/42/66 11/23/66 7/25/66
f 22/40/67 3/12/67 11/23/67
f 37/7/68 19/34/68 14/36/68
f 41/67/69 23/41/69 19/37/69
f 46/65/70 15/10/70 23/41/70
f 27/15/71 43/62/71 38/13/71
f 35/52/72 47/64/72 43/62/72
f 31/50/73 39/66/73 47/64/73
f 25/47/74 76/94/74 73/96/74
f 29/46/75 80/120/75 76/94/75
f 34/54/76 74/14/76 80/100/76
f 85/9/77 40/57/77 37/7/77
f 89/115/78 44/63/78 40/59/78
f 94/113/79 38/13/79 44/63/79
f 75/6/80 91/110/80 86/4/80
f 83/101/81 95/112/81 91/110/81
f 79/99/82 87/114/82 95/112/82
f 73/96/83 52/70/83 49/72/83
f 77/95/84 56/76/84 52/70/84
f 82/103/85 50/5/85 56/76/85
f 61/8/86 88/106/86 85/9/86
f 65/83/87 92/111/87 88/106/87
f 70/90/88 86/4/88 92/111/88
f 51/3/89 67/87/89 62/1/89
f 59/77/90 71/89/90 67/87/90
f 55/75/91 63/91/91 71/89/91
f 49/72/92 4/16/92 1/18/92
f 53/71/93 8/121/93 4/16/93
f 58/78/94 2/2/94 8/22/94
f 14/36/95 64/82/95 61/8/95
f 20/32/96 68/88/96 64/84/96
f 16/29/97 62/1/97 68/88/97
f 73/96/98 1/18/98 25/47/98
f 62/1/1 13/31/1 2/2/1
f 86/4/2 63/91/2 50/5/2
f 37/7/3 14/36/3 61/8/3
f 15/10/4 39/66/4 26/11/4
f 38/13/5 87/114/5 74/14/5
f 4/16/99 6/20/99 5/17/99
f 4/16/7 8/121/7 9/19/7
f 7/21/100 9/122/100 8/22/100
f 11/23/101 12/123/101 9/24/101
f 10/26/102 12/123/102 11/23/102
f 5/17/103 6/20/103 12/27/103
f 16/29/104 18/33/104 17/30/104
f 20/32/14 21/43/14 18/33/14
f 19/34/105 21/124/105 20/35/105
f 19/37/106 23/41/106 24/38/106
f 22/40/107 24/38/107 23/41/107
f 17/42/18 18/125/18 24/38/18
f 28/45/108 30/49/108 29/46/108
f 28/45/109 32/119/109 33/48/109
f 31/50/110 33/53/110 32/51/110
f 35/52/23 36/126/23 33/53/23
f 34/54/111 36/126/111 35/52/111
f 29/46/25 30/49/25 36/55/25
f 40/57/112 42/127/112 41/58/112
f 40/59/28 44/63/28 45/60/28
f 43/62/113 45/60/113 44/63/113
f 47/64/114 48/68/114 45/60/114
f 46/65/115 48/68/115 47/64/115
f 41/67/116 42/128/116 48/68/116
f 52/70/117 54/74/117 53/71/117
f 52/70/118 56/76/118 57/73/118
f 55/75/119 57/73/119 56/76/119
f 59/77/37 60/129/37 57/73/37
f 58/78/120 60/129/120 59/77/120
f 53/71/39 54/74/39 60/79/39
f 64/82/121 66/130/121 65/83/121
f 64/84/42 68/88/42 69/85/42
f 67/87/122 69/85/122 68/88/122
f 71/89/123 72/92/123 69/85/123
f 70/90/124 72/92/124 71/89/124
f 65/83/125 66/130/125 72/92/125
f 76/94/126 78/98/126 77/95/126
f 76/94/49 80/120/49 81/97/49
f 79/99/127 81/102/127 80/100/127
f 83/101/128 84/104/128 81/102/128
f 82/103/129 84/104/129 83/101/129
f 77/95/130 78/98/130 84/104/130
f 88/106/131 90/109/131 89/107/131
f 88/106/132 92/111/132 93/108/132
f 91/110/133 93/108/133 92/111/133
f 95/112/58 96/116/58 93/108/58
f 94/113/134 96/116/134 95/112/134
f 89/115/60 90/131/60 96/116/60
f 1/18/62 5/17/62 28/45/62
f 5/17/63 10/28/63 32/119/63
f 10/26/64 3/12/64 26/11/64
f 13/31/65 17/30/65 7/21/65
f 17/42/66 22/40/66 11/23/66
f 22/40/67 15/10/67 3/12/67
f 37/7/68 41/58/68 19/34/68
f 41/67/69 46/65/69 23/41/69
f 46/65/70 39/66/70 15/10/70
f 27/15/71 35/52/71 43/62/71
f 35/52/72 31/50/72 47/64/72
f 31/50/73 26/11/73 39/66/73
f 25/47/74 29/46/74 76/94/74
f 29/46/75 34/56/75 80/120/75
f 34/54/76 27/15/76 74/14/76
f 85/9/77 89/107/77 40/57/77
f 89/115/78 94/113/78 44/63/78
f 94/113/79 87/114/79 38/13/79
f 75/6/80 83/101/80 91/110/80
f 83/101/81 79/99/81 95/112/81
f 79/99/82 74/14/82 87/114/82
f 73/96/83 77/95/83 52/70/83
f 77/95/84 82/103/84 56/76/84
f 82/103/85 75/6/85 50/5/85
f 61/8/86 65/83/86 88/106/86
f 65/83/87 70/90/87 92/111/87
f 70/90/88 63/91/88 86/4/88
f 51/3/89 59/77/89 67/87/89
f 59/77/90 55/75/90 71/89/90
f 55/75/91 50/5/91 63/91/91
f 49/72/92 53/71/92 4/16/92
f 53/71/93 58/80/93 8/121/93
f 58/78/94 51/3/94 2/2/94
f 14/36/95 20/35/95 64/82/95
f 20/32/96 16/29/96 68/88/96
f 16/29/97 13/31/97 62/1/97
f 73/96/98 49/72/98 1/18/98
