# Blender 4.0.2
# www.blender.org
mtllib Studio-45.mtl
g Studio-45_Mesh
v -4.503615 0.000000 1.895825
v 4.503615 0.000000 1.895825
v -5.653323 3.983081 -0.879816
v 5.653323 3.983081 -0.879816
v -5.273601 0.000000 0.036914
v 5.273601 0.000000 0.036914
v 0.000000 0.000000 1.000000
v 0.000000 3.983081 -2.004333
v 0.000000 0.000000 -1.012070
v -2.304129 3.983081 -1.823538
v -2.149365 0.000000 -0.843419
v -1.835541 0.000000 1.144027
v 1.835541 0.000000 1.144027
v 2.304129 3.983081 -1.823538
v 2.149365 0.000000 -0.843419
v -5.652680 0.996547 -0.878263
v 5.652680 0.996547 -0.878263
v 0.000000 0.996547 -2.002652
v -2.303867 0.996547 -1.821877
v 2.303867 0.996547 -1.821877
v 1.155606 3.983081 -1.959064
v 1.077986 0.000000 -0.969843
v 0.920592 0.000000 1.036062
v 1.155474 0.996547 -1.957389
v -0.920592 0.000000 1.036062
v -1.155606 3.983081 -1.959064
v -1.077986 0.000000 -0.969843
v -1.155474 0.996547 -1.957389
v -4.888608 0.000000 0.966370
v 4.888608 0.000000 0.966370
v 0.000000 0.000000 -0.006035
v -1.992453 0.000000 0.150304
v 1.992453 0.000000 0.150304
v 0.999289 0.000000 0.033110
v -0.999289 0.000000 0.033110
v -5.338236 0.000000 -0.119129
v -5.652566 0.819999 -0.877988
v -5.399466 0.015756 -0.266950
v -5.458363 0.062419 -0.409140
v -5.512663 0.138195 -0.540234
v -5.560282 0.240172 -0.655194
v -5.599387 0.364432 -0.749603
v -5.628477 0.506199 -0.819832
v -5.646433 0.660025 -0.863182
v 5.652566 0.819999 -0.877988
v 5.338236 0.000000 -0.119129
v 5.646433 0.660025 -0.863182
v 5.628477 0.506199 -0.819832
v 5.599387 0.364432 -0.749603
v 5.560282 0.240172 -0.655194
v 5.512663 0.138195 -0.540234
v 5.458363 0.062419 -0.409140
v 5.399466 0.015756 -0.266951
v 0.000000 0.819999 -2.002354
v 0.000000 0.000000 -1.180971
v 0.000000 0.660025 -1.986328
v 0.000000 0.506199 -1.939406
v 0.000000 0.364432 -1.863391
v 0.000000 0.240172 -1.761204
v 0.000000 0.138195 -1.636772
v 0.000000 0.062419 -1.494877
v 0.000000 0.015756 -1.340972
v -2.175709 0.000000 -1.010253
v -2.303820 0.819999 -1.821583
v -2.200664 0.015756 -1.168295
v -2.224669 0.062419 -1.320317
v -2.246800 0.138195 -1.460475
v -2.266208 0.240172 -1.583384
v -2.282146 0.364432 -1.684321
v -2.294002 0.506199 -1.759406
v -2.301321 0.660025 -1.805754
v 2.303820 0.819999 -1.821583
v 2.175709 0.000000 -1.010253
v 2.301321 0.660025 -1.805754
v 2.294002 0.506199 -1.759406
v 2.282146 0.364432 -1.684321
v 2.266208 0.240172 -1.583384
v 2.246800 0.138195 -1.460475
v 2.224669 0.062419 -1.320317
v 2.200664 0.015756 -1.168295
v 1.091198 0.000000 -1.138226
v 1.155451 0.819999 -1.957092
v 1.103714 0.015756 -1.297736
v 1.115753 0.062419 -1.451170
v 1.126853 0.138195 -1.592630
v 1.136587 0.240172 -1.716680
v 1.144580 0.364432 -1.818555
v 1.150527 0.506199 -1.894337
v 1.154197 0.660025 -1.941115
v -1.091198 0.000000 -1.138226
v -1.155451 0.819999 -1.957092
v -1.103714 0.015756 -1.297736
v -1.115753 0.062419 -1.451170
v -1.126853 0.138195 -1.592630
v -1.136587 0.240172 -1.716680
v -1.144580 0.364432 -1.818555
v -1.150527 0.506199 -1.894337
v -1.154197 0.660025 -1.941115
v -3.359359 -0.000625 4.658303
v 3.359359 -0.000625 4.658303
v 0.000000 -0.000625 3.990085
v -1.369176 -0.000625 4.097518
v 1.369176 -0.000625 4.097518
v 0.686692 -0.000625 4.016985
v -0.686692 -0.000625 4.016985
v 2.743721 0.000000 1.324305
v 3.634918 0.000000 1.575423
v 4.562860 3.983081 -1.282013
v 3.444154 3.983081 -1.597237
v 4.256382 0.000000 -0.338267
v 3.212817 0.000000 -0.632319
v 4.562342 0.996547 -1.280414
v 3.443763 0.996547 -1.595603
v 3.945650 0.000000 0.618578
v 2.978269 0.000000 0.345993
v 4.562249 0.819999 -1.280131
v 3.443693 0.819999 -1.595313
v 3.439957 0.660025 -1.579729
v 4.557300 0.660025 -1.264889
v 3.429017 0.506199 -1.534100
v 4.542807 0.506199 -1.220261
v 3.411295 0.364432 -1.460179
v 4.519328 0.364432 -1.147962
v 3.387471 0.240172 -1.360808
v 4.487766 0.240172 -1.050771
v 3.358461 0.138195 -1.239805
v 4.449333 0.138195 -0.932424
v 3.325379 0.062419 -1.101820
v 4.405506 0.062419 -0.797467
v 3.289498 0.015756 -0.952156
v 4.357970 0.015756 -0.651087
v 3.252195 0.000000 -0.796565
v 4.308550 0.000000 -0.498909
v 2.046610 -0.000625 4.231993
v 2.711376 -0.000625 4.419307
v -3.444154 3.983081 -1.597237
v -4.562860 3.983081 -1.282013
v -3.212817 0.000000 -0.632319
v -4.256382 0.000000 -0.338267
v -3.634918 0.000000 1.575423
v -2.743721 0.000000 1.324305
v -3.443763 0.996547 -1.595603
v -4.562342 0.996547 -1.280414
v -2.978269 0.000000 0.345993
v -3.945650 0.000000 0.618578
v -3.443693 0.819999 -1.595313
v -4.562249 0.819999 -1.280131
v -4.557300 0.660025 -1.264888
v -3.439957 0.660025 -1.579729
v -4.542807 0.506199 -1.220260
v -3.429017 0.506199 -1.534100
v -4.519328 0.364432 -1.147962
v -3.411295 0.364432 -1.460179
v -4.487766 0.240172 -1.050771
v -3.387471 0.240172 -1.360808
v -4.449333 0.138195 -0.932424
v -3.358461 0.138195 -1.239805
v -4.405506 0.062419 -0.797466
v -3.325379 0.062419 -1.101820
v -4.357970 0.015756 -0.651087
v -3.289498 0.015756 -0.952156
v -4.308550 0.000000 -0.498909
v -3.252195 0.000000 -0.796565
v -2.711376 -0.000625 4.419307
v -2.046610 -0.000625 4.231992
v 5.652894 1.992058 -0.878781
v 5.653109 2.987569 -0.879299
v 0.000000 1.992058 -2.003212
v 0.000000 2.987569 -2.003772
v -2.303954 1.992058 -1.822431
v -2.304041 2.987569 -1.822984
v 2.303954 1.992058 -1.822431
v 2.304041 2.987569 -1.822984
v -5.653109 2.987569 -0.879299
v -5.652894 1.992058 -0.878781
v 1.155518 1.992058 -1.957947
v 1.155562 2.987569 -1.958506
v -1.155518 1.992058 -1.957947
v -1.155562 2.987569 -1.958506
v 3.443893 1.992058 -1.596147
v 3.444024 2.987569 -1.596692
v 4.562514 1.992058 -1.280947
v 4.562687 2.987569 -1.281480
v -4.562514 1.992058 -1.280947
v -4.562687 2.987569 -1.281480
v -3.443893 1.992058 -1.596147
v -3.444024 2.987569 -1.596692
vn -0.3456 0.0506 0.9370
vn -0.3089 0.0011 0.9511
vn -0.3085 0.0507 0.9499
vn -0.3460 0.0006 0.9382
vn -0.3089 0.0006 0.9511
vn -0.0000 1.0000 -0.0000
vn -0.0000 0.0006 1.0000
vn 0.0782 0.0006 0.9969
vn -0.0781 0.0507 0.9957
vn -0.0000 0.0011 1.0000
vn -0.0000 0.0507 0.9987
vn -0.0155 0.9987 0.0478
vn 0.2331 0.0006 0.9724
vn 0.1561 0.0006 0.9877
vn -0.1561 0.0006 0.9877
vn -0.0782 0.0006 0.9969
vn -0.1559 0.0507 0.9865
vn -0.0782 0.0011 0.9969
vn 0.0117 0.9987 0.0489
vn 0.0039 0.9987 0.0501
vn -0.0000 0.9987 0.0503
vn 0.0078 0.9987 0.0497
vn 0.0782 0.0011 0.9969
vn 0.0781 0.0507 0.9957
vn -0.0078 0.9987 0.0497
vn -0.0039 0.9987 0.0501
vn 0.1559 0.0507 0.9865
vn 0.1561 0.0011 0.9877
vn -0.0000 1.0000 0.0001
vn 0.3456 0.0506 0.9370
vn 0.3029 0.1962 0.9326
vn 0.3085 0.0507 0.9499
vn 0.3393 0.1960 0.9200
vn 0.2853 0.3831 0.8785
vn 0.3197 0.3829 0.8667
vn 0.2568 0.5554 0.7909
vn 0.2878 0.5551 0.7804
vn 0.2186 0.7065 0.6731
vn 0.1928 0.8304 0.5227
vn 0.1720 0.8306 0.5296
vn 0.1188 0.9231 0.3657
vn 0.1332 0.9230 0.3610
vn 0.0610 0.9803 0.1877
vn 0.0174 0.9987 0.0472
vn 0.0155 0.9987 0.0478
vn -0.0767 0.1962 0.9776
vn -0.0000 0.3831 0.9237
vn -0.0723 0.3831 0.9209
vn -0.0000 0.5554 0.8316
vn -0.0651 0.5554 0.8290
vn -0.0554 0.7065 0.7056
vn -0.0000 0.7065 0.7077
vn -0.0436 0.8306 0.5551
vn -0.0000 0.8306 0.5568
vn -0.0301 0.9231 0.3833
vn -0.0000 0.9231 0.3845
vn -0.0154 0.9803 0.1968
vn -0.0000 0.9803 0.1974
vn 0.0767 0.1962 0.9776
vn 0.1530 0.1962 0.9685
vn 0.0723 0.3831 0.9209
vn 0.1442 0.3831 0.9124
vn 0.0651 0.5554 0.8290
vn 0.1298 0.5554 0.8214
vn 0.0554 0.7065 0.7056
vn 0.1105 0.7065 0.6991
vn 0.0436 0.8306 0.5551
vn 0.0869 0.8306 0.5500
vn 0.0301 0.9231 0.3833
vn 0.0600 0.9231 0.3798
vn 0.0154 0.9803 0.1968
vn 0.0308 0.9803 0.1949
vn -0.2328 0.0507 0.9712
vn -0.1530 0.1962 0.9685
vn -0.2286 0.1962 0.9535
vn -0.1442 0.3831 0.9124
vn -0.2154 0.3831 0.8982
vn -0.1939 0.5554 0.8087
vn -0.1105 0.7065 0.6991
vn -0.1650 0.7065 0.6882
vn -0.1298 0.8306 0.5415
vn -0.0600 0.9231 0.3798
vn -0.0897 0.9231 0.3739
vn -0.0460 0.9803 0.1919
vn -0.0308 0.9803 0.1949
vn -0.0117 0.9987 0.0489
vn -0.1298 0.5554 0.8214
vn -0.0869 0.8306 0.5500
vn -0.0000 0.1962 0.9806
vn 0.2331 0.0011 0.9724
vn 0.2328 0.0507 0.9712
vn -0.0000 1.0000 0.0002
vn 0.0001 1.0000 0.0002
vn -0.0001 1.0000 0.0002
vn -0.0610 0.9803 0.1877
vn -0.0174 0.9987 0.0472
vn -0.0683 0.9803 0.1853
vn -0.1188 0.9231 0.3657
vn -0.1332 0.9230 0.3610
vn -0.1720 0.8306 0.5296
vn -0.1928 0.8304 0.5227
vn -0.2186 0.7065 0.6731
vn -0.2450 0.7062 0.6643
vn -0.2568 0.5554 0.7909
vn -0.2878 0.5551 0.7804
vn -0.2853 0.3831 0.8785
vn -0.3197 0.3829 0.8667
vn -0.3029 0.1962 0.9326
vn -0.3393 0.1960 0.9200
vn -0.2331 0.0006 0.9724
vn -0.2331 0.0011 0.9724
vn -0.1561 0.0011 0.9877
vn 0.3089 0.0011 0.9511
vn 0.3460 0.0011 0.9382
vn 0.0460 0.9803 0.1919
vn 0.0897 0.9231 0.3739
vn 0.1298 0.8306 0.5415
vn 0.1650 0.7065 0.6882
vn 0.1939 0.5554 0.8087
vn 0.2154 0.3831 0.8982
vn 0.2286 0.1962 0.9535
vn 0.3089 0.0006 0.9511
vn 0.3460 0.0006 0.9382
vn -0.3460 0.0011 0.9382
vn 0.2450 0.7062 0.6643
vn 0.0683 0.9803 0.1853
vt 0.998134 0.680145
vt 0.898359 0.697978
vt 0.898309 0.680145
vt 0.998914 0.899326
vt 0.899219 1.000000
vt 0.898933 0.899326
vt 0.998557 0.399054
vt 0.898358 0.499139
vt 0.898647 0.399054
vt 0.400587 0.399054
vt 0.500000 0.499139
vt 0.400659 0.499139
vt 0.500000 0.899326
vt 0.400444 1.000000
vt 0.400515 0.899326
vt 0.599329 0.680145
vt 0.500000 0.697978
vt 0.500000 0.680145
vt 0.998195 0.499139
vt 0.898309 0.515928
vt 0.201049 0.899326
vt 0.300888 1.000000
vt 0.200834 1.000000
vt 0.201263 0.399054
vt 0.301318 0.499139
vt 0.201480 0.499139
vt 0.599413 0.399054
vt 0.698682 0.499139
vt 0.599341 0.499139
vt 0.698969 0.899326
vt 0.599556 1.000000
vt 0.599485 0.899326
vt 0.698658 0.680145
vt 0.599342 0.697978
vt 0.201517 0.515928
vt 0.400671 0.515928
vt 0.500000 0.515928
vt 0.301342 0.515928
vt 0.400659 0.697978
vt 0.400671 0.680145
vt 0.500000 1.000000
vt 0.500000 0.399054
vt 0.698658 0.515928
vt 0.599329 0.515928
vt 0.301342 0.680145
vt 0.301317 0.697978
vt 0.301031 0.899326
vt 0.301173 0.399054
vt 0.400514 0.298824
vt 0.301029 0.298824
vt 0.599486 0.298824
vt 0.500000 0.298824
vt 0.698971 0.298824
vt 0.201046 0.298824
vt 0.898937 0.298824
vt 0.001866 0.680145
vt 0.101733 0.662426
vt 0.101691 0.680145
vt 0.001918 0.662426
vt 0.101764 0.642263
vt 0.001956 0.642263
vt 0.101782 0.620430
vt 0.001980 0.620430
vt 0.101789 0.597764
vt 0.001980 0.575133
vt 0.101782 0.575133
vt 0.101763 0.553406
vt 0.001956 0.553406
vt 0.101733 0.533415
vt 0.001865 0.515928
vt 0.101691 0.515928
vt 0.599319 0.662426
vt 0.500000 0.642263
vt 0.599311 0.642263
vt 0.500000 0.620430
vt 0.599306 0.620430
vt 0.599305 0.597763
vt 0.500000 0.597763
vt 0.599306 0.575133
vt 0.500000 0.575133
vt 0.599311 0.553406
vt 0.500000 0.553406
vt 0.599319 0.533415
vt 0.500000 0.533415
vt 0.400681 0.662426
vt 0.301363 0.662426
vt 0.400689 0.642263
vt 0.301378 0.642263
vt 0.400694 0.620430
vt 0.301388 0.620430
vt 0.400695 0.597763
vt 0.301391 0.597763
vt 0.400694 0.575133
vt 0.301388 0.575133
vt 0.400689 0.553406
vt 0.301378 0.553406
vt 0.400681 0.533415
vt 0.301363 0.533415
vt 0.798483 0.680145
vt 0.698637 0.662426
vt 0.798452 0.662426
vt 0.698622 0.642263
vt 0.798429 0.642263
vt 0.798415 0.620430
vt 0.698609 0.597763
vt 0.798410 0.597763
vt 0.798415 0.575133
vt 0.698622 0.553406
vt 0.798429 0.553406
vt 0.798452 0.533415
vt 0.698637 0.533415
vt 0.798484 0.515928
vt 0.698612 0.620430
vt 0.698612 0.575133
vt 0.500000 0.662426
vt 0.201479 0.697978
vt 0.201517 0.680145
vt 0.799601 0.000000
vt 0.798954 0.298824
vt 0.400299 0.000000
vt 0.500000 0.000000
vt 0.599701 0.000000
vt 0.001080 0.298824
vt 0.100199 0.000000
vt 0.101063 0.298824
vt 0.699402 0.000000
vt 0.998920 0.298824
vt 0.899801 0.000000
vt 1.000000 0.000000
vt 0.898268 0.533415
vt 0.998135 0.515928
vt 0.998083 0.533415
vt 0.898237 0.553406
vt 0.998044 0.553406
vt 0.898218 0.575133
vt 0.998020 0.575133
vt 0.898211 0.597763
vt 0.998012 0.597763
vt 0.898218 0.620430
vt 0.998020 0.620430
vt 0.898237 0.642263
vt 0.998044 0.642263
vt 0.898267 0.662426
vt 0.998082 0.662426
vt 0.698827 0.399054
vt 0.798737 0.399054
vt 0.798520 0.499139
vt 0.798951 0.899326
vt 0.699112 1.000000
vt 0.799165 1.000000
vt 0.798521 0.697978
vt 0.698683 0.697978
vt 0.200399 0.000000
vt 0.300598 0.000000
vt 0.101641 0.697978
vt 0.001803 0.697978
vt 0.201548 0.533415
vt 0.201571 0.553406
vt 0.201585 0.575133
vt 0.201590 0.597763
vt 0.201585 0.620430
vt 0.201571 0.642263
vt 0.201548 0.662426
vt 0.001443 0.399054
vt 0.101353 0.399054
vt 0.101642 0.499139
vt 0.001805 0.499139
vt 0.101067 0.899326
vt 0.000727 1.000000
vt 0.001086 0.899326
vt 0.100781 1.000000
vt 0.101354 0.798652
vt 0.001444 0.798652
vt 0.898646 0.798652
vt 0.798736 0.798652
vt 0.698826 0.798652
vt 0.301174 0.798652
vt 0.400587 0.798652
vt 0.500000 0.798652
vt 0.599413 0.798652
vt 0.201264 0.798652
vt 0.998198 0.697978
vt 0.998556 0.798652
vt 0.999273 1.000000
vt 0.001988 0.597763
vt 0.001917 0.533415
vt 0.000000 0.000000
s 1
g off
f 45/1/1 112/2/2 116/3/3
f 167/4/4 108/5/5 183/6/5
f 30/7/6 110/8/6 114/9/6
f 35/10/6 9/11/6 27/12/6
f 169/13/7 26/14/8 179/15/8
f 82/16/9 18/17/10 54/18/11
f 6/19/6 133/20/12 110/8/6
f 187/21/13 10/22/14 136/23/13
f 144/24/6 11/25/6 138/26/6
f 34/27/6 15/28/6 22/29/6
f 173/30/15 21/31/16 177/32/16
f 72/33/17 24/34/18 82/16/9
f 11/25/6 163/35/19 138/26/6
f 9/11/6 90/36/20 27/12/6
f 22/29/6 55/37/21 9/11/6
f 27/12/6 63/38/22 11/25/6
f 54/18/11 28/39/23 91/40/24
f 177/32/16 8/41/7 169/13/7
f 31/42/6 22/29/6 9/11/6
f 22/29/6 73/43/25 81/44/26
f 64/45/27 28/39/23 19/46/28
f 179/15/8 10/22/14 171/47/14
f 35/10/6 11/25/6 32/48/6
f 25/49/29 32/48/6 12/50/29
f 23/51/29 31/42/6 7/52/29
f 13/53/29 34/27/6 23/51/29
f 141/54/29 32/48/6 144/24/6
f 7/52/29 35/10/6 25/49/29
f 107/55/29 30/7/6 114/9/6
f 37/56/30 148/57/31 147/58/32
f 44/59/33 150/60/34 148/57/31
f 43/61/35 152/62/36 150/60/34
f 42/63/37 154/64/38 152/62/36
f 154/64/38 40/65/39 156/66/40
f 40/65/39 158/67/41 156/66/40
f 39/68/42 160/69/43 158/67/41
f 160/69/43 36/70/44 162/71/45
f 54/18/11 89/72/46 82/16/9
f 89/72/46 57/73/47 88/74/48
f 88/74/48 58/75/49 87/76/50
f 58/75/49 86/77/51 87/76/50
f 59/78/52 85/79/53 86/77/51
f 60/80/54 84/81/55 85/79/53
f 61/82/56 83/83/57 84/81/55
f 62/84/58 81/44/26 83/83/57
f 64/45/27 98/85/59 91/40/24
f 71/86/60 97/87/61 98/85/59
f 70/88/62 96/89/63 97/87/61
f 69/90/64 95/91/65 96/89/63
f 68/92/66 94/93/67 95/91/65
f 67/94/68 93/95/69 94/93/67
f 66/96/70 92/97/71 93/95/69
f 65/98/72 90/36/20 92/97/71
f 117/99/73 74/100/74 118/101/75
f 118/101/75 75/102/76 120/103/77
f 75/102/76 122/104/78 120/103/77
f 122/104/78 77/105/79 124/106/80
f 77/105/79 126/107/81 124/106/80
f 126/107/81 79/108/82 128/109/83
f 79/108/82 130/110/84 128/109/83
f 80/111/85 132/112/86 130/110/84
f 82/16/9 74/100/74 72/33/17
f 74/100/74 88/74/48 75/102/76
f 88/74/48 76/113/87 75/102/76
f 87/76/50 77/105/79 76/113/87
f 86/77/51 78/114/88 77/105/79
f 78/114/88 84/81/55 79/108/82
f 84/81/55 80/111/85 79/108/82
f 83/83/57 73/43/25 80/111/85
f 91/40/24 56/115/89 54/18/11
f 98/85/59 57/73/47 56/115/89
f 97/87/61 58/75/49 57/73/47
f 96/89/63 59/78/52 58/75/49
f 95/91/65 60/80/54 59/78/52
f 60/80/54 93/95/69 61/82/56
f 93/95/69 62/84/58 61/82/56
f 92/97/71 55/37/21 62/84/58
f 64/45/27 142/116/90 146/117/91
f 13/53/29 134/118/92 106/119/29
f 12/50/29 105/120/92 25/49/29
f 23/51/29 101/121/92 104/122/92
f 25/49/29 101/121/92 7/52/29
f 1/123/29 164/124/93 140/125/29
f 23/51/29 103/126/92 13/53/29
f 2/127/29 135/128/94 100/129/94
f 106/119/29 135/128/94 107/55/29
f 131/130/95 46/131/96 53/132/97
f 130/110/84 133/20/12 131/130/95
f 129/133/98 53/132/97 52/134/99
f 129/133/98 130/110/84 131/130/95
f 127/135/100 52/134/99 51/136/101
f 126/107/81 129/133/98 127/135/100
f 125/137/102 51/136/101 50/138/103
f 124/106/80 127/135/100 125/137/102
f 123/139/104 50/138/103 49/140/105
f 122/104/78 125/137/102 123/139/104
f 121/141/106 49/140/105 48/142/107
f 120/103/77 123/139/104 121/141/106
f 119/143/108 48/142/107 47/144/109
f 118/101/75 121/141/106 119/143/108
f 45/1/1 119/143/108 47/144/109
f 117/99/73 119/143/108 116/3/3
f 106/119/29 33/145/6 13/53/29
f 107/55/29 115/146/6 106/119/29
f 111/147/6 73/43/25 15/28/6
f 111/147/6 133/20/12 132/112/86
f 115/146/6 15/28/6 33/145/6
f 114/9/6 111/147/6 115/146/6
f 181/148/110 14/149/15 173/30/15
f 183/6/5 109/150/110 181/148/110
f 72/33/17 113/151/111 20/152/112
f 116/3/3 113/151/111 117/99/73
f 12/50/29 165/153/92 102/154/92
f 140/125/29 165/153/92 141/54/29
f 37/56/30 143/155/113 16/156/114
f 147/58/32 142/116/90 143/155/113
f 65/98/72 163/35/19 63/38/22
f 160/69/43 163/35/19 161/157/115
f 159/158/116 65/98/72 66/96/70
f 158/67/41 161/157/115 159/158/116
f 157/159/117 66/96/70 67/94/68
f 156/66/40 159/158/116 157/159/117
f 68/92/66 157/159/117 67/94/68
f 154/64/38 157/159/117 155/160/118
f 153/161/119 68/92/66 69/90/64
f 152/62/36 155/160/118 153/161/119
f 70/88/62 153/161/119 69/90/64
f 150/60/34 153/161/119 151/162/120
f 149/163/121 70/88/62 71/86/60
f 149/163/121 150/60/34 151/162/120
f 146/117/91 71/86/60 64/45/27
f 147/58/32 149/163/121 146/117/91
f 140/125/29 29/164/6 1/123/29
f 141/54/29 145/165/6 140/125/29
f 139/166/6 36/70/44 5/167/6
f 138/26/6 162/71/45 139/166/6
f 145/165/6 5/167/6 29/164/6
f 144/24/6 139/166/6 145/165/6
f 185/168/122 3/169/123 174/170/123
f 187/21/13 137/171/122 185/168/122
f 142/116/90 184/172/122 143/155/113
f 184/172/122 187/21/13 185/168/122
f 16/156/114 184/172/122 175/173/123
f 184/172/122 174/170/123 175/173/123
f 113/151/111 182/174/5 180/175/110
f 182/174/5 181/148/110 180/175/110
f 113/151/111 172/176/15 20/152/112
f 180/175/110 173/30/15 172/176/15
f 28/39/23 170/177/14 19/46/28
f 178/178/8 171/47/14 170/177/14
f 24/34/18 168/179/7 18/17/10
f 176/180/16 169/13/7 168/179/7
f 20/152/112 176/180/16 24/34/18
f 172/176/15 177/32/16 176/180/16
f 19/46/28 186/181/13 142/116/90
f 170/177/14 187/21/13 186/181/13
f 18/17/10 178/178/8 28/39/23
f 168/179/7 179/15/8 178/178/8
f 17/182/124 182/174/5 112/2/2
f 166/183/4 183/6/5 182/174/5
f 45/1/1 17/182/124 112/2/2
f 167/4/4 4/184/4 108/5/5
f 30/7/6 6/19/6 110/8/6
f 35/10/6 31/42/6 9/11/6
f 169/13/7 8/41/7 26/14/8
f 82/16/9 24/34/18 18/17/10
f 6/19/6 46/131/96 133/20/12
f 187/21/13 171/47/14 10/22/14
f 144/24/6 32/48/6 11/25/6
f 34/27/6 33/145/6 15/28/6
f 173/30/15 14/149/15 21/31/16
f 72/33/17 20/152/112 24/34/18
f 11/25/6 63/38/22 163/35/19
f 9/11/6 55/37/21 90/36/20
f 22/29/6 81/44/26 55/37/21
f 27/12/6 90/36/20 63/38/22
f 54/18/11 18/17/10 28/39/23
f 177/32/16 21/31/16 8/41/7
f 31/42/6 34/27/6 22/29/6
f 22/29/6 15/28/6 73/43/25
f 64/45/27 91/40/24 28/39/23
f 179/15/8 26/14/8 10/22/14
f 35/10/6 27/12/6 11/25/6
f 25/49/29 35/10/6 32/48/6
f 23/51/29 34/27/6 31/42/6
f 13/53/29 33/145/6 34/27/6
f 141/54/29 12/50/29 32/48/6
f 7/52/29 31/42/6 35/10/6
f 107/55/29 2/127/29 30/7/6
f 37/56/30 44/59/33 148/57/31
f 44/59/33 43/61/35 150/60/34
f 43/61/35 42/63/37 152/62/36
f 42/63/37 41/185/125 154/64/38
f 154/64/38 41/185/125 40/65/39
f 40/65/39 39/68/42 158/67/41
f 39/68/42 38/186/126 160/69/43
f 160/69/43 38/186/126 36/70/44
f 54/18/11 56/115/89 89/72/46
f 89/72/46 56/115/89 57/73/47
f 88/74/48 57/73/47 58/75/49
f 58/75/49 59/78/52 86/77/51
f 59/78/52 60/80/54 85/79/53
f 60/80/54 61/82/56 84/81/55
f 61/82/56 62/84/58 83/83/57
f 62/84/58 55/37/21 81/44/26
f 64/45/27 71/86/60 98/85/59
f 71/86/60 70/88/62 97/87/61
f 70/88/62 69/90/64 96/89/63
f 69/90/64 68/92/66 95/91/65
f 68/92/66 67/94/68 94/93/67
f 67/94/68 66/96/70 93/95/69
f 66/96/70 65/98/72 92/97/71
f 65/98/72 63/38/22 90/36/20
f 117/99/73 72/33/17 74/100/74
f 118/101/75 74/100/74 75/102/76
f 75/102/76 76/113/87 122/104/78
f 122/104/78 76/113/87 77/105/79
f 77/105/79 78/114/88 126/107/81
f 126/107/81 78/114/88 79/108/82
f 79/108/82 80/111/85 130/110/84
f 80/111/85 73/43/25 132/112/86
f 82/16/9 89/72/46 74/100/74
f 74/100/74 89/72/46 88/74/48
f 88/74/48 87/76/50 76/113/87
f 87/76/50 86/77/51 77/105/79
f 86/77/51 85/79/53 78/114/88
f 78/114/88 85/79/53 84/81/55
f 84/81/55 83/83/57 80/111/85
f 83/83/57 81/44/26 73/43/25
f 91/40/24 98/85/59 56/115/89
f 98/85/59 97/87/61 57/73/47
f 97/87/61 96/89/63 58/75/49
f 96/89/63 95/91/65 59/78/52
f 95/91/65 94/93/67 60/80/54
f 60/80/54 94/93/67 93/95/69
f 93/95/69 92/97/71 62/84/58
f 92/97/71 90/36/20 55/37/21
f 64/45/27 19/46/28 142/116/90
f 13/53/29 103/126/92 134/118/92
f 12/50/29 102/154/92 105/120/92
f 23/51/29 7/52/29 101/121/92
f 25/49/29 105/120/92 101/121/92
f 1/123/29 99/187/93 164/124/93
f 23/51/29 104/122/92 103/126/92
f 2/127/29 107/55/29 135/128/94
f 106/119/29 134/118/92 135/128/94
f 131/130/95 133/20/12 46/131/96
f 130/110/84 132/112/86 133/20/12
f 129/133/98 131/130/95 53/132/97
f 129/133/98 128/109/83 130/110/84
f 127/135/100 129/133/98 52/134/99
f 126/107/81 128/109/83 129/133/98
f 125/137/102 127/135/100 51/136/101
f 124/106/80 126/107/81 127/135/100
f 123/139/104 125/137/102 50/138/103
f 122/104/78 124/106/80 125/137/102
f 121/141/106 123/139/104 49/140/105
f 120/103/77 122/104/78 123/139/104
f 119/143/108 121/141/106 48/142/107
f 118/101/75 120/103/77 121/141/106
f 45/1/1 116/3/3 119/143/108
f 117/99/73 118/101/75 119/143/108
f 106/119/29 115/146/6 33/145/6
f 107/55/29 114/9/6 115/146/6
f 111/147/6 132/112/86 73/43/25
f 111/147/6 110/8/6 133/20/12
f 115/146/6 111/147/6 15/28/6
f 114/9/6 110/8/6 111/147/6
f 181/148/110 109/150/110 14/149/15
f 183/6/5 108/5/5 109/150/110
f 72/33/17 117/99/73 113/151/111
f 116/3/3 112/2/2 113/151/111
f 12/50/29 141/54/29 165/153/92
f 140/125/29 164/124/93 165/153/92
f 37/56/30 147/58/32 143/155/113
f 147/58/32 146/117/91 142/116/90
f 65/98/72 161/157/115 163/35/19
f 160/69/43 162/71/45 163/35/19
f 159/158/116 161/157/115 65/98/72
f 158/67/41 160/69/43 161/157/115
f 157/159/117 159/158/116 66/96/70
f 156/66/40 158/67/41 159/158/116
f 68/92/66 155/160/118 157/159/117
f 154/64/38 156/66/40 157/159/117
f 153/161/119 155/160/118 68/92/66
f 152/62/36 154/64/38 155/160/118
f 70/88/62 151/162/120 153/161/119
f 150/60/34 152/62/36 153/161/119
f 149/163/121 151/162/120 70/88/62
f 149/163/121 148/57/31 150/60/34
f 146/117/91 149/163/121 71/86/60
f 147/58/32 148/57/31 149/163/121
f 140/125/29 145/165/6 29/164/6
f 141/54/29 144/24/6 145/165/6
f 139/166/6 162/71/45 36/70/44
f 138/26/6 163/35/19 162/71/45
f 145/165/6 139/166/6 5/167/6
f 144/24/6 138/26/6 139/166/6
f 185/168/122 137/171/122 3/169/123
f 187/21/13 136/23/13 137/171/122
f 142/116/90 186/181/13 184/172/122
f 184/172/122 186/181/13 187/21/13
f 16/156/114 143/155/113 184/172/122
f 184/172/122 185/168/122 174/170/123
f 113/151/111 112/2/2 182/174/5
f 182/174/5 183/6/5 181/148/110
f 113/151/111 180/175/110 172/176/15
f 180/175/110 181/148/110 173/30/15
f 28/39/23 178/178/8 170/177/14
f 178/178/8 179/15/8 171/47/14
f 24/34/18 176/180/16 168/179/7
f 176/180/16 177/32/16 169/13/7
f 20/152/112 172/176/15 176/180/16
f 172/176/15 173/30/15 177/32/16
f 19/46/28 170/177/14 186/181/13
f 170/177/14 171/47/14 187/21/13
f 18/17/10 168/179/7 178/178/8
f 168/179/7 169/13/7 179/15/8
f 17/182/124 166/183/4 182/174/5
f 166/183/4 167/4/4 183/6/5
