# Blender v3.2.1 OBJ File: 'room-v01.blend'
# www.blender.org
mtllib room-floor.mtl
o floor_Cube
v 4.939890 0.000000 -3.346472
v 4.939890 0.000000 3.346472
v -3.346472 0.000000 3.346472
v 4.939890 0.000000 2.664670
v 4.939890 0.000000 1.544071
v 5.273486 0.000000 1.544071
v 5.273486 0.000000 2.664670
v -2.509852 0.000000 -3.346472
v -3.346472 0.000000 -2.647008
v -2.509852 0.000000 -2.647008
v 4.919333 0.000000 2.644113
v 4.919333 0.000000 3.325916
v 5.252930 0.000000 1.564628
v 5.252930 0.000000 2.644113
v 4.919333 0.000000 1.564628
v -2.489295 0.000000 -3.325916
v 4.919333 0.000000 -3.325916
v -3.325916 0.000000 3.325916
v -3.325916 0.000000 -2.626452
v -2.489295 0.000000 -2.626452
v 4.919333 0.000000 2.644113
v 4.919333 0.000000 3.325916
v 5.252930 0.000000 1.564628
v 5.252930 0.000000 2.644113
v 4.919333 0.000000 1.564628
v -2.489295 0.000000 -3.325916
v 4.919333 0.000000 -3.325916
v -3.325916 0.000000 3.325916
v -3.325916 0.000000 -2.626452
v -2.489295 0.000000 -2.626452
v 4.939890 0.000000 2.664670
v 4.939890 0.000000 3.346472
v 5.273486 0.000000 1.544071
v 5.273486 0.000000 2.664670
v 4.939890 0.000000 1.544071
v -2.509852 0.000000 -3.346472
v 4.939890 0.000000 -3.346472
v -3.346472 0.000000 3.346472
v -3.346472 0.000000 -2.647008
v -2.509852 0.000000 -2.647008
v 4.919333 0.059806 2.644113
v 4.919333 0.059806 3.325916
v 5.252930 0.059806 2.644113
v 5.252930 0.059806 1.564628
v 4.919333 0.059806 1.564628
v -2.489295 0.059806 -3.325916
v 4.919333 0.059806 -3.325916
v -3.325916 0.059806 3.325916
v -3.325916 0.059806 -2.626452
v -2.489295 0.059806 -2.626452
v 4.939890 0.059806 2.664670
v 4.939890 0.059806 3.346472
v 5.273486 0.059806 2.664670
v 5.273486 0.059806 1.544071
v 4.939890 0.059806 1.544071
v -2.509852 0.059806 -3.346472
v 4.939890 0.059806 -3.346472
v -3.346472 0.059806 3.346472
v -3.346472 0.059806 -2.647008
v -2.509852 0.059806 -2.647008
v 4.919333 0.000000 2.644113
v 4.919333 0.000000 3.325916
v 5.252930 0.000000 1.564628
v 5.252930 0.000000 2.644113
v 4.919333 0.000000 1.564628
v -2.489295 0.000000 -3.325916
v 4.919333 0.000000 -3.325916
v -3.325916 0.000000 3.325916
v -3.325916 0.000000 -2.626452
v -2.489295 0.000000 -2.626452
vt 0.654916 0.406217
vt 0.654916 0.406217
vt 0.654916 0.406217
vt 0.663122 0.406217
vt 0.663122 0.406217
vt 0.663122 0.406217
vt 0.663122 0.406217
vt 0.663122 0.406217
vt 0.663122 0.406217
vt 0.654916 0.406217
vt 0.654916 0.406217
vt 0.663122 0.406217
vt 0.663122 0.406217
vt 0.663122 0.406217
vt 0.663122 0.406217
vt 0.663122 0.406217
vt 0.663122 0.406217
vt 0.654916 0.406217
vt 0.654916 0.406217
vt 0.654916 0.406217
vt 0.663122 0.406217
vt 0.663122 0.406217
vt 0.663122 0.406217
vt 0.654916 0.406217
vt 0.654916 0.406217
vt 0.654916 0.406217
vt 0.663122 0.406217
vt 0.287703 0.422096
vt 0.290546 0.816024
vt 0.287703 0.816024
vt 0.077168 0.876525
vt 0.078145 0.824230
vt 0.078145 0.877502
vt 0.111291 0.856642
vt 0.108448 0.824230
vt 0.111291 0.824230
vt 0.770203 0.845114
vt 0.767360 0.844137
vt 0.770203 0.844137
vt 0.269999 0.830675
vt 0.267155 0.598181
vt 0.269999 0.598181
vt 0.845288 0.846179
vt 0.842445 0.595753
vt 0.845288 0.595753
vt 0.834240 0.897400
vt 0.831397 0.697309
vt 0.834240 0.697309
vt 0.845288 0.431355
vt 0.842445 0.420141
vt 0.845288 0.420141
vt 0.831397 0.420141
vt 0.834240 0.420141
vt 0.781252 0.844137
vt 0.778408 0.828278
vt 0.781252 0.828278
vt 0.663122 0.406217
vt 0.663122 0.406217
vt 0.654916 0.406217
vt 0.654916 0.406217
vt 0.654916 0.406217
vt 0.663122 0.406217
vt 0.654916 0.406217
vt 0.654916 0.406217
vt 0.654916 0.406217
vt 0.654916 0.406217
vt 0.663122 0.406217
vt 0.654916 0.406217
vt 0.654916 0.406217
vt 0.321304 0.397054
vt 0.289869 0.398031
vt 0.288891 0.397054
vt 0.288891 0.412913
vt 0.289869 0.413890
vt 0.237573 0.412913
vt 0.236596 0.398031
vt 0.237573 0.397054
vt 0.005080 0.397054
vt 0.004103 0.043875
vt 0.005080 0.044852
vt 0.321304 0.005080
vt 0.322281 0.398031
vt 0.038332 0.005080
vt 0.322281 0.004103
vt 0.004103 0.398031
vt 0.037355 0.043875
vt 0.038332 0.044852
vt 0.037355 0.004103
vt 0.748105 0.851791
vt 0.745262 0.828278
vt 0.748105 0.828278
vt 0.269999 0.840262
vt 0.267155 0.838880
vt 0.269999 0.838880
vt 0.322281 0.707022
vt 0.319438 0.422096
vt 0.322281 0.422096
vt 0.089194 0.864002
vt 0.086351 0.824230
vt 0.089194 0.824230
vt 0.269999 0.851476
vt 0.267155 0.840262
vt 0.842445 0.431355
vt 0.759154 0.851197
vt 0.756311 0.828278
vt 0.759154 0.828278
vt 0.767360 0.828278
vt 0.770203 0.828278
vt 0.100243 0.857482
vt 0.097400 0.824230
vt 0.100243 0.824230
vt 0.301595 0.774297
vt 0.298752 0.422096
vt 0.301595 0.422096
vt 0.287703 0.824230
vt 0.290547 0.852353
vt 0.287703 0.852353
vt 0.562980 0.396077
vt 0.330487 0.396077
vt 0.363739 0.043875
vt 0.290547 0.422096
vt 0.077168 0.825207
vt 0.108448 0.856642
vt 0.767360 0.845114
vt 0.267155 0.830675
vt 0.842445 0.846179
vt 0.831397 0.897400
vt 0.778408 0.844137
vt 0.236596 0.413890
vt 0.745262 0.851791
vt 0.319438 0.707022
vt 0.086351 0.864002
vt 0.267155 0.851476
vt 0.756311 0.851197
vt 0.097400 0.857482
vt 0.298752 0.774297
vt 0.290547 0.824230
vt 0.363739 0.004103
vt 0.646711 0.004103
vt 0.646711 0.396077
vt 0.614298 0.396077
vt 0.614298 0.411936
vt 0.562980 0.411936
vt 0.330487 0.043875
vn 0.0000 0.0000 1.0000
vn 0.0000 1.0000 0.0000
vn -1.0000 0.0000 0.0000
vn 0.7071 0.0000 0.7071
vn 0.0000 0.0000 -1.0000
vn 1.0000 0.0000 0.0000
vn 0.7071 0.0000 -0.7071
usemtl _floor
s off
f 9/1/1 38/2/1 39/3/1
f 13/4/1 24/5/1 23/6/1
f 20/7/1 26/8/1 30/9/1
f 3/10/1 32/11/1 38/2/1
f 11/12/1 22/13/1 21/14/1
f 17/15/1 25/16/1 27/17/1
f 1/18/1 36/19/1 37/20/1
f 18/21/1 29/22/1 28/23/1
f 6/24/1 35/25/1 33/26/1
f 12/27/1 28/23/1 22/13/1
f 32/28/1 58/29/1 38/30/1
f 23/31/2 34/32/2 33/33/2
f 22/34/3 41/35/3 21/36/3
f 33/37/4 44/38/4 23/39/4
f 25/40/3 47/41/3 27/42/3
f 36/43/5 57/44/5 37/45/5
f 29/46/6 48/47/6 28/48/6
f 35/49/5 54/50/5 33/51/5
f 28/48/5 42/52/5 22/53/5
f 34/54/1 51/55/1 31/56/1
f 19/57/1 30/9/1 29/22/1
f 14/58/1 21/14/1 24/5/1
f 5/59/1 37/20/1 35/25/1
f 2/60/1 31/61/1 32/11/1
f 15/62/1 23/6/1 25/16/1
f 8/63/1 40/64/1 36/19/1
f 7/65/1 33/26/1 34/66/1
f 16/67/1 27/17/1 26/8/1
f 10/68/1 39/3/1 40/64/1
f 4/69/1 34/66/1 31/61/1
f 42/70/2 51/71/2 41/72/2
f 43/73/2 51/71/2 53/74/2
f 44/75/2 55/76/2 45/77/2
f 47/78/2 56/79/2 46/80/2
f 48/81/2 52/82/2 42/70/2
f 49/83/2 58/84/2 48/81/2
f 47/78/2 55/76/2 57/85/2
f 46/80/2 60/86/2 50/87/2
f 49/83/2 60/86/2 59/88/2
f 26/89/6 50/90/6 30/91/6
f 24/92/7 53/93/7 34/94/7
f 38/95/3 59/96/3 39/97/3
f 30/98/1 49/99/1 29/100/1
f 21/101/5 43/102/5 24/92/5
f 37/45/6 55/103/6 35/49/6
f 31/104/6 52/105/6 32/106/6
f 23/39/1 45/107/1 25/108/1
f 40/109/3 56/110/3 36/111/3
f 27/112/1 46/113/1 26/114/1
f 39/115/5 60/116/5 40/117/5
f 65/118/2 67/119/2 70/120/2
f 9/1/1 3/10/1 38/2/1
f 13/4/1 14/58/1 24/5/1
f 20/7/1 16/67/1 26/8/1
f 3/10/1 2/60/1 32/11/1
f 11/12/1 12/27/1 22/13/1
f 17/15/1 15/62/1 25/16/1
f 1/18/1 8/63/1 36/19/1
f 18/21/1 19/57/1 29/22/1
f 6/24/1 5/59/1 35/25/1
f 12/27/1 18/21/1 28/23/1
f 32/28/1 52/121/1 58/29/1
f 23/31/2 24/122/2 34/32/2
f 22/34/3 42/123/3 41/35/3
f 33/37/4 54/124/4 44/38/4
f 25/40/3 45/125/3 47/41/3
f 36/43/5 56/126/5 57/44/5
f 29/46/6 49/127/6 48/47/6
f 35/49/5 55/103/5 54/50/5
f 28/48/5 48/47/5 42/52/5
f 34/54/1 53/128/1 51/55/1
f 19/57/1 20/7/1 30/9/1
f 14/58/1 11/12/1 21/14/1
f 5/59/1 1/18/1 37/20/1
f 2/60/1 4/69/1 31/61/1
f 15/62/1 13/4/1 23/6/1
f 8/63/1 10/68/1 40/64/1
f 7/65/1 6/24/1 33/26/1
f 16/67/1 17/15/1 27/17/1
f 10/68/1 9/1/1 39/3/1
f 4/69/1 7/65/1 34/66/1
f 42/70/2 52/82/2 51/71/2
f 43/73/2 41/72/2 51/71/2
f 44/75/2 54/129/2 55/76/2
f 47/78/2 57/85/2 56/79/2
f 48/81/2 58/84/2 52/82/2
f 49/83/2 59/88/2 58/84/2
f 47/78/2 45/77/2 55/76/2
f 46/80/2 56/79/2 60/86/2
f 49/83/2 50/87/2 60/86/2
f 26/89/6 46/130/6 50/90/6
f 24/92/7 43/102/7 53/93/7
f 38/95/3 58/131/3 59/96/3
f 30/98/1 50/132/1 49/99/1
f 21/101/5 41/133/5 43/102/5
f 37/45/6 57/44/6 55/103/6
f 31/104/6 51/134/6 52/105/6
f 23/39/1 44/38/1 45/107/1
f 40/109/3 60/135/3 56/110/3
f 27/112/1 47/136/1 46/113/1
f 39/115/5 59/137/5 60/116/5
f 69/138/2 68/139/2 70/120/2
f 68/139/2 62/140/2 61/141/2
f 61/141/2 64/142/2 63/143/2
f 68/139/2 61/141/2 65/118/2
f 70/120/2 68/139/2 65/118/2
f 67/119/2 66/144/2 70/120/2
f 61/141/2 63/143/2 65/118/2
