<svg width="1265" height="1265" viewBox="0 0 1265 1265" fill="none" xmlns="http://www.w3.org/2000/svg">
<rect width="1265" height="1265" fill="white"/>
<g opacity="0.71">
<path fill-rule="evenodd" clip-rule="evenodd" d="M448.326 699.5L504.844 676.5C499.148 662.969 496 648.102 496 632.5C496 569.816 546.816 519 609.5 519C672.184 519 723 569.816 723 632.5C723 695.184 672.184 746 609.5 746C603.896 746 598.387 745.594 593 744.809L584.5 805.223L580.5 827.5C497.221 805.806 464.273 779.188 429 707L448.326 699.5ZM665 632.5C665 663.152 640.152 688 609.5 688C578.848 688 554 663.152 554 632.5C554 601.848 578.848 577 609.5 577C640.152 577 665 601.848 665 632.5Z" fill="#FF0000" fill-opacity="0.86"/>
<path fill-rule="evenodd" clip-rule="evenodd" d="M609.5 974C798.105 974 951 821.105 951 632.5C951 443.895 798.105 291 609.5 291C420.895 291 268 443.895 268 632.5C268 821.105 420.895 974 609.5 974ZM820.856 511.5L862.147 487C872.471 504.888 880.95 523.974 887.323 544L841.868 559.5C849.101 582.546 853 607.068 853 632.5C853 669.705 844.656 704.962 829.737 736.5L767.343 707C748.68 746.47 715.649 777.818 675 794.29L699.5 858.827C671.659 869.908 641.291 876 609.5 876C606.655 876 603.821 875.951 601 875.854L598.5 923.796C467.053 918.92 357.851 827.007 326.833 704L373.197 691.5C368.495 672.609 366 652.846 366 632.5C366 626.955 366.185 621.453 366.55 616L435.406 620.5C436.494 604.476 439.746 589.047 444.871 574.5L379.797 551.5C391.645 517.899 410.658 487.678 435 462.671L399.819 430C417.503 411.693 437.562 395.696 459.5 382.504L486 422.598C522.208 401.248 564.424 389 609.5 389C617.257 389 624.929 389.363 632.5 390.072L627 458.867C666.784 462.828 702.635 480.152 730 506.285L777.5 456.238C794.471 472.418 809.109 491.024 820.856 511.5Z" fill="#FF0000" fill-opacity="0.86"/>
<path fill-rule="evenodd" clip-rule="evenodd" d="M609.5 1195C920.16 1195 1172 943.16 1172 632.5C1172 624.796 1171.85 617.129 1171.54 609.5H1217.57C1209.58 394.44 1089.98 207.909 915 106.132L893 146.561C809.757 97.8917 712.886 70 609.5 70C298.84 70 47 321.84 47 632.5C47 791.036 112.586 934.253 218.104 1036.5L187 1070.41C207.205 1089.91 228.756 1108.02 251.5 1124.6L277 1086.25C370.141 1154.62 485.105 1195 609.5 1195ZM849 198.622C1000.42 282.381 1103.34 443.1 1104.98 628H1036.98C1036.99 629.498 1037 630.998 1037 632.5C1037 675.256 1030.72 716.547 1019.04 755.5L1084.2 775C1070.36 821.196 1049.95 864.556 1024.06 904L967.001 867C951.109 891.179 932.831 913.649 912.5 934.075L961.237 981.5C908.741 1034.41 844.39 1075.53 772.5 1100.57L749.642 1036.5C705.739 1051.73 658.586 1060 609.5 1060C590.692 1060 572.167 1058.79 554 1056.43L546 1123.97C465.255 1113.64 390.586 1083.88 326.833 1039.52L366 983.921C254.805 906.729 182 778.117 182 632.5C182 615.414 183.002 598.562 184.951 582L117.359 574.5C137.878 398.499 250.63 250.656 406 180.583L435 242.12C487.14 218.778 544.809 205.575 605.5 205.018V137.016C606.832 137.005 608.165 137 609.5 137C663.378 137 715.248 145.599 763.812 161.5L743 226.258C768.657 234.684 793.243 245.474 816.5 258.369L849 198.622Z" fill="#FF0000" fill-opacity="0.86"/>
</g>
</svg>
