# Blender v2.93.0 OBJ File: ''
# www.blender.org
mtllib disc7-bothsided.mtl
o Cylinder
v 0.000000 0.047660 1.000000
v -0.781832 0.047660 0.623490
v -0.974928 0.047660 -0.222521
v -0.433884 0.047660 -0.900969
v 0.433884 0.047660 -0.900969
v 0.000000 -0.080610 -0.000000
v 0.974928 0.047660 -0.222521
v 0.781832 0.047660 0.623490
v 0.000000 0.047660 1.000000
v -0.781832 0.047660 0.623490
v -0.974928 0.047660 -0.222521
v -0.433884 0.047660 -0.900969
v 0.433884 0.047660 -0.900969
v 0.000000 -0.080610 -0.000000
v 0.974928 0.047660 -0.222521
v 0.781832 0.047660 0.623490
vt 1.000000 0.000000
vt 1.000000 1.000000
vt 0.857143 1.000000
vt 0.857143 0.000000
vt 0.714286 1.000000
vt 0.714286 0.000000
vt 0.571429 1.000000
vt 0.571429 0.000000
vt 0.428571 1.000000
vt 0.428571 0.000000
vt 0.285714 1.000000
vt 0.285714 0.000000
vt 0.142857 1.000000
vt 0.142857 0.000000
vt 0.000000 1.000000
vt 1.000000 0.000000
vt 0.857143 1.000000
vt 1.000000 1.000000
vt 0.857143 0.000000
vt 0.714286 1.000000
vt 0.714286 0.000000
vt 0.571429 1.000000
vt 0.571429 0.000000
vt 0.428571 1.000000
vt 0.428571 0.000000
vt 0.285714 1.000000
vt 0.285714 0.000000
vt 0.142857 1.000000
vt 0.142857 0.000000
vt 0.000000 1.000000
vn -0.0612 -0.9900 0.1270
vn -0.1374 -0.9900 0.0314
vn -0.1102 -0.9900 -0.0879
vn 0.0000 -0.9900 -0.1409
vn 0.1102 -0.9900 -0.0879
vn 0.1374 -0.9900 0.0314
vn 0.0612 -0.9900 0.1270
vn 0.0612 0.9900 -0.1270
vn 0.1374 0.9900 -0.0314
vn 0.1102 0.9900 0.0879
vn 0.0000 0.9900 0.1409
vn -0.1102 0.9900 0.0879
vn -0.1374 0.9900 -0.0314
vn -0.0612 0.9900 -0.1270
usemtl None
s off
f 6/1/1 1/2/1 2/3/1
f 6/4/2 2/3/2 3/5/2
f 6/6/3 3/5/3 4/7/3
f 6/8/4 4/7/4 5/9/4
f 6/10/5 5/9/5 7/11/5
f 6/12/6 7/11/6 8/13/6
f 6/14/7 8/13/7 1/15/7
f 14/16/8 10/17/8 9/18/8
f 14/19/9 11/20/9 10/17/9
f 14/21/10 12/22/10 11/20/10
f 14/23/11 13/24/11 12/22/11
f 14/25/12 15/26/12 13/24/12
f 14/27/13 16/28/13 15/26/13
f 14/29/14 9/30/14 16/28/14
