<svg width="174" height="200" viewBox="0 0 174 200" fill="none" xmlns="http://www.w3.org/2000/svg">
<path fill-rule="evenodd" clip-rule="evenodd" d="M0 0H174V174H0V0ZM60.4804 45H20V22H60.4804C70.922 22 80.4107 26.2154 87.2997 33.0628C94.3749 26.1962 104.018 22 114.578 22H154V45H114.578C106.273 45 99.5 50.5 99 59.2568L98.5 152H75V59.2568C74.5858 51.2779 68.4927 45 60.4804 45ZM47 116.5V49.5H60.4804C65.7379 49.5 70 53.7414 70 58.9989V116.5C70 136.106 54.1061 152 34.5 152H20V129H34.5C41.4036 129 47 123.404 47 116.5ZM127 116.5V49.5H113.52C108.262 49.5 104 53.7432 104 59.0007V116.5C104 136.106 119.894 152 139.5 152H154V129H139.5C132.596 129 127 123.404 127 116.5Z" fill="#FF3A9E"/>
<path fill-rule="evenodd" clip-rule="evenodd" d="M31.4694 189.804V190.527C31.4694 191.89 31.2776 193.114 30.8939 194.2C30.5184 195.278 29.9837 196.2 29.2898 196.967C28.5959 197.727 27.7755 198.31 26.8286 198.718C25.8816 199.118 24.8367 199.318 23.6939 199.318C22.5429 199.318 21.4898 199.118 20.5347 198.718C19.5878 198.31 18.7633 197.727 18.0612 196.967C17.3673 196.2 16.8286 195.278 16.4449 194.2C16.0694 193.114 15.8816 191.89 15.8816 190.527V189.804C15.8816 188.441 16.0694 187.216 16.4449 186.131C16.8286 185.045 17.3633 184.122 18.049 183.363C18.7429 182.596 19.5633 182.012 20.5102 181.612C21.4653 181.204 22.5184 181 23.6694 181C24.8122 181 25.8571 181.204 26.8041 181.612C27.7592 182.012 28.5837 182.596 29.2776 183.363C29.9714 184.122 30.5102 185.045 30.8939 186.131C31.2776 187.216 31.4694 188.441 31.4694 189.804ZM27.1102 190.527V189.78C27.1102 188.898 27.0327 188.122 26.8776 187.453C26.7306 186.776 26.5102 186.208 26.2163 185.751C25.9224 185.294 25.5592 184.951 25.1265 184.722C24.702 184.486 24.2163 184.367 23.6694 184.367C23.098 184.367 22.6 184.486 22.1755 184.722C21.751 184.951 21.3959 185.294 21.1102 185.751C20.8245 186.208 20.6082 186.776 20.4612 187.453C20.3224 188.122 20.2531 188.898 20.2531 189.78V190.527C20.2531 191.4 20.3224 192.176 20.4612 192.853C20.6082 193.522 20.8245 194.09 21.1102 194.555C21.4041 195.02 21.7633 195.371 22.1878 195.608C22.6204 195.845 23.1224 195.963 23.6939 195.963C24.2408 195.963 24.7265 195.845 25.151 195.608C25.5755 195.371 25.9306 195.02 26.2163 194.555C26.5102 194.09 26.7306 193.522 26.8776 192.853C27.0327 192.176 27.1102 191.4 27.1102 190.527Z" fill="#FF3A9E"/>
<path fill-rule="evenodd" clip-rule="evenodd" d="M48.7837 189.804V190.527C48.7837 191.89 48.5918 193.114 48.2082 194.2C47.8327 195.278 47.298 196.2 46.6041 196.967C45.9102 197.727 45.0898 198.31 44.1429 198.718C43.1959 199.118 42.151 199.318 41.0082 199.318C39.8571 199.318 38.8041 199.118 37.849 198.718C36.902 198.31 36.0776 197.727 35.3755 196.967C34.6816 196.2 34.1429 195.278 33.7592 194.2C33.3837 193.114 33.1959 191.89 33.1959 190.527V189.804C33.1959 188.441 33.3837 187.216 33.7592 186.131C34.1429 185.045 34.6776 184.122 35.3633 183.363C36.0571 182.596 36.8776 182.012 37.8245 181.612C38.7796 181.204 39.8327 181 40.9837 181C42.1265 181 43.1714 181.204 44.1184 181.612C45.0735 182.012 45.898 182.596 46.5918 183.363C47.2857 184.122 47.8245 185.045 48.2082 186.131C48.5918 187.216 48.7837 188.441 48.7837 189.804ZM44.4245 190.527V189.78C44.4245 188.898 44.3469 188.122 44.1918 187.453C44.0449 186.776 43.8245 186.208 43.5306 185.751C43.2367 185.294 42.8735 184.951 42.4408 184.722C42.0163 184.486 41.5306 184.367 40.9837 184.367C40.4123 184.367 39.9143 184.486 39.4898 184.722C39.0653 184.951 38.7102 185.294 38.4245 185.751C38.1388 186.208 37.9225 186.776 37.7755 187.453C37.6367 188.122 37.5673 188.898 37.5673 189.78V190.527C37.5673 191.4 37.6367 192.176 37.7755 192.853C37.9225 193.522 38.1388 194.09 38.4245 194.555C38.7184 195.02 39.0776 195.371 39.502 195.608C39.9347 195.845 40.4367 195.963 41.0082 195.963C41.5551 195.963 42.0408 195.845 42.4653 195.608C42.8898 195.371 43.2449 195.02 43.5306 194.555C43.8245 194.09 44.0449 193.522 44.1918 192.853C44.3469 192.176 44.4245 191.4 44.4245 190.527Z" fill="#FF3A9E"/>
<path d="M78.8939 197.457C78.7143 197.653 78.6245 197.894 78.6245 198.18C78.6245 198.457 78.7143 198.694 78.8939 198.89C79.0816 199.086 79.3347 199.184 79.6531 199.184C79.9796 199.184 80.2367 199.086 80.4245 198.89C80.6122 198.694 80.7061 198.457 80.7061 198.18C80.7061 197.886 80.6122 197.641 80.4245 197.445C80.2367 197.249 79.9796 197.151 79.6531 197.151C79.3347 197.151 79.0816 197.253 78.8939 197.457Z" fill="#FF3A9E"/>
<path d="M86.9388 181.245V199.073H85.4327V181.245H86.9388Z" fill="#FF3A9E"/>
<path fill-rule="evenodd" clip-rule="evenodd" d="M104.951 191.114V189.204C104.951 187.955 104.788 186.829 104.461 185.824C104.135 184.812 103.665 183.947 103.053 183.229C102.441 182.51 101.71 181.959 100.861 181.576C100.012 181.192 99.0571 181 97.9959 181C96.9592 181 96.0163 181.192 95.1674 181.576C94.3184 181.959 93.5878 182.51 92.9755 183.229C92.3633 183.947 91.8898 184.812 91.5551 185.824C91.2286 186.829 91.0653 187.955 91.0653 189.204V191.114C91.0653 192.363 91.2327 193.494 91.5674 194.506C91.902 195.51 92.3755 196.371 92.9878 197.09C93.6 197.808 94.3306 198.359 95.1796 198.743C96.0367 199.127 96.9837 199.318 98.0204 199.318C99.0816 199.318 100.037 199.127 100.886 198.743C101.735 198.359 102.461 197.808 103.065 197.09C103.678 196.371 104.143 195.51 104.461 194.506C104.788 193.494 104.951 192.363 104.951 191.114ZM103.457 189.18V191.114C103.457 192.176 103.335 193.131 103.09 193.98C102.853 194.82 102.502 195.543 102.037 196.147C101.571 196.743 101.004 197.2 100.335 197.518C99.6653 197.837 98.8939 197.996 98.0204 197.996C97.1796 197.996 96.4204 197.837 95.7429 197.518C95.0735 197.2 94.502 196.743 94.0286 196.147C93.5551 195.543 93.1918 194.82 92.9388 193.98C92.6939 193.131 92.5714 192.176 92.5714 191.114V189.18C92.5714 188.127 92.6939 187.18 92.9388 186.339C93.1918 185.498 93.551 184.78 94.0163 184.184C94.4898 183.588 95.0612 183.131 95.7306 182.812C96.4 182.494 97.1551 182.335 97.9959 182.335C98.8612 182.335 99.6327 182.494 100.31 182.812C100.988 183.131 101.559 183.588 102.024 184.184C102.498 184.78 102.853 185.498 103.09 186.339C103.335 187.18 103.457 188.127 103.457 189.18Z" fill="#FF3A9E"/>
<path d="M160.629 181.245V199.073H159.122V181.245H160.629Z" fill="#FF3A9E"/>
<path d="M167.314 199.073V181.245H165.808V199.073H167.314Z" fill="#FF3A9E"/>
<path d="M174 181.245V199.073H172.494V181.245H174Z" fill="#FF3A9E"/>
<path d="M5.24082 199.073H9.53878V184.563H14.902V181.245H0V184.563H5.24082V199.073Z" fill="#FF3A9E"/>
<path d="M62.7918 195.767V199.073H51.0122V181.245H55.3102V195.767H62.7918Z" fill="#FF3A9E"/>
<path d="M76.3837 199.073V195.767H68.902V181.245H64.6041V199.073H76.3837Z" fill="#FF3A9E"/>
<path d="M121.714 181.245H123.233L129.82 196.943L136.42 181.245H137.927H138.416V199.073H136.91V191.286L137.046 183.329L130.396 199.073H129.245L122.618 183.383L122.743 191.286V199.073H121.249V181.245H121.714Z" fill="#FF3A9E"/>
<path d="M142.947 199.073H144.453V192.69L146.966 190.217L154.225 199.073H156.049L148.008 189.174L155.473 181.245H153.588L146.878 188.31L144.453 190.83V181.245H142.947V199.073Z" fill="#FF3A9E"/>
</svg>
