<svg width="2571" height="62" viewBox="0 0 2571 62" fill="none" xmlns="http://www.w3.org/2000/svg">
<rect width="2571" height="62" fill="#DADADA"/>
<g id="MononoHard-Font">
<g id="\" clip-path="url(#clip0_3335_4763)">
<rect width="25" height="62" transform="translate(2400)" fill="white"/>
<path id="Vector 95" d="M2418 49L2402 13" stroke="black" stroke-width="4" stroke-linecap="square"/>
</g>
<g id="/" clip-path="url(#clip1_3335_4763)">
<rect width="25" height="62" transform="translate(2375)" fill="white"/>
<path id="Vector 95_2" d="M2377 49L2393 13" stroke="black" stroke-width="4" stroke-linecap="square"/>
</g>
<g id="&#38;#64;">
<rect width="25" height="62" transform="translate(2350)" fill="white"/>
<path id="Vector 94" d="M2357 22H2362V41H2367V15H2352V47H2364L2365 46M2362 29L2357 31V40H2362" stroke="black" stroke-width="4" stroke-linecap="square"/>
</g>
<g id="?">
<rect width="25" height="62" transform="translate(2325)" fill="white"/>
<path id="Vector 93" d="M2327 15H2342V27L2335 33V41M2335 45V49" stroke="black" stroke-width="4" stroke-linecap="square"/>
</g>
<g id="&#38;">
<rect width="25" height="62" transform="translate(2300)" fill="white"/>
<path id="Vector 87" d="M2314 15H2302V29H2319M2308 29L2302 30V47H2315V24" stroke="black" stroke-width="4" stroke-linecap="square"/>
</g>
<g id="%" clip-path="url(#clip2_3335_4763)">
<rect width="25" height="62" transform="translate(2275)" fill="white"/>
<path id="Vector 86" d="M2294 23L2276 39M2277 17V25H2285V17H2277ZM2284.5 37V45H2292.5V37H2284.5Z" stroke="black" stroke-width="4" stroke-linecap="square"/>
</g>
<g id="$">
<rect width="25" height="62" transform="translate(2250)" fill="white"/>
<path id="Vector 80" d="M2260 10V15.5M2260 47V52.5M2267 19V15H2252V31H2267V47H2253V43" stroke="black" stroke-width="4" stroke-linecap="square"/>
</g>
<g id="&#38;#62;">
<rect width="25" height="62" transform="translate(2225)" fill="white"/>
<path id="Vector 85" d="M2229 19L2241 31L2229 43" stroke="black" stroke-width="4" stroke-linecap="square"/>
</g>
<g id="&#38;#60;">
<rect width="25" height="62" transform="translate(2200)" fill="white"/>
<path id="Vector 85_2" d="M2216 19L2204 31L2216 43" stroke="black" stroke-width="4" stroke-linecap="square"/>
</g>
<g id="=">
<rect width="25" height="62" transform="translate(2175)" fill="white"/>
<path id="Vector 84" d="M2177 26H2193" stroke="black" stroke-width="4" stroke-linecap="square"/>
<path id="Vector 85_3" d="M2177 36H2193" stroke="black" stroke-width="4" stroke-linecap="square"/>
</g>
<g id="&#226;&#128;&#148;">
<rect width="25" height="62" transform="translate(2150)" fill="white"/>
<path id="Vector 84_2" d="M2149 31H2171" stroke="black" stroke-width="4" stroke-linecap="square"/>
</g>
<g id="-">
<rect width="25" height="62" transform="translate(2125)" fill="white"/>
<path id="Vector 84_3" d="M2127 31H2144" stroke="black" stroke-width="4" stroke-linecap="square"/>
</g>
<g id="+">
<rect width="25" height="62" transform="translate(2100)" fill="white"/>
<path id="Vector 81" d="M2110 23L2110 39" stroke="black" stroke-width="4" stroke-linecap="square"/>
<path id="Vector 84_4" d="M2102 31H2118" stroke="black" stroke-width="4" stroke-linecap="square"/>
</g>
<g id="&#195;&#151;">
<rect width="25" height="62" transform="translate(2075)" fill="white"/>
<path id="Vector" d="M2078 24L2085 31M2085 31L2092 37.9999M2085 31L2078 38M2085 31L2092 24" stroke="black" stroke-width="4" stroke-linecap="square"/>
</g>
<g id="#">
<rect width="25" height="62" transform="translate(2050)" fill="white"/>
<path id="Vector 81_2" d="M2056 21V41" stroke="black" stroke-width="4" stroke-linecap="square"/>
<path id="Vector 84_5" d="M2052 26H2068" stroke="black" stroke-width="4" stroke-linecap="square"/>
<path id="Vector 85_4" d="M2052 36H2068" stroke="black" stroke-width="4" stroke-linecap="square"/>
<path id="Vector 83" d="M2064 21V41" stroke="black" stroke-width="4" stroke-linecap="square"/>
</g>
<g id="*" clip-path="url(#clip3_3335_4763)">
<rect width="25" height="62" transform="translate(2025)" fill="white"/>
<path id="Vector 90" d="M2025.5 31H2045" stroke="black" stroke-width="4" stroke-linecap="square"/>
<path id="Vector 91" d="M2030.38 39.4437L2040.12 22.5562" stroke="black" stroke-width="4" stroke-linecap="square"/>
<path id="Vector 92" d="M2040.12 39.4437L2030.38 22.5562" stroke="black" stroke-width="4" stroke-linecap="square"/>
</g>
<g id="|">
<rect width="25" height="62" transform="translate(2000)" fill="white"/>
<path id="Vector 89" d="M2010 8V53" stroke="black" stroke-width="4" stroke-linecap="square"/>
</g>
<g id="}">
<rect width="25" height="62" transform="translate(1975)" fill="white"/>
<path id="Vector 88" d="M1979 12H1985V26.7778L1989 31L1985 34.1667V50H1979" stroke="black" stroke-width="4" stroke-linecap="square"/>
</g>
<g id="{">
<rect width="25" height="62" transform="translate(1950)" fill="white"/>
<path id="Vector 88_2" d="M1966 12H1960V26.7778L1956 31L1960 34.1667V50H1966" stroke="black" stroke-width="4" stroke-linecap="square"/>
</g>
<g id="]">
<rect width="25" height="62" transform="translate(1925)" fill="white"/>
<path id="Vector 88_3" d="M1929 13H1935V49H1929" stroke="black" stroke-width="4" stroke-linecap="square"/>
</g>
<g id="[">
<rect width="25" height="62" transform="translate(1900)" fill="white"/>
<path id="Vector 88_4" d="M1916 13H1910V49H1916" stroke="black" stroke-width="4" stroke-linecap="square"/>
</g>
<g id=")">
<rect width="25" height="62" transform="translate(1875)" fill="white"/>
<path id="Vector 88_5" d="M1881 13H1885V49H1881" stroke="black" stroke-width="4" stroke-linecap="square"/>
</g>
<g id="(">
<rect width="25" height="62" transform="translate(1850)" fill="white"/>
<path id="Vector 88_6" d="M1864 13H1860V49H1864" stroke="black" stroke-width="4" stroke-linecap="square"/>
</g>
<g id="_" clip-path="url(#clip4_3335_4763)">
<rect width="25" height="62" transform="translate(1825)" fill="white"/>
<path id="Vector 82" d="M1825 47L1845.5 47" stroke="black" stroke-width="4" stroke-linecap="square"/>
</g>
<g id=":">
<rect width="25" height="62" transform="translate(1800)" fill="white"/>
<path id="Vector 82_2" d="M1809 39L1810 39" stroke="black" stroke-width="4" stroke-linecap="square"/>
<path id="Vector 83_2" d="M1809 24L1810 24" stroke="black" stroke-width="4" stroke-linecap="square"/>
</g>
<g id=".">
<rect width="25" height="62" transform="translate(1775)" fill="white"/>
<path id="Vector 82_3" d="M1784 47L1785 47" stroke="black" stroke-width="4" stroke-linecap="square"/>
</g>
<g id=";">
<rect width="25" height="62" transform="translate(1750)" fill="white"/>
<path id="Vector 82_4" d="M1760 41V49L1758 51M1760 37V33" stroke="black" stroke-width="4" stroke-linecap="square"/>
</g>
<g id=",">
<rect width="25" height="62" transform="translate(1725)" fill="white"/>
<path id="Vector 82_5" d="M1735 43V49L1733 51" stroke="black" stroke-width="4" stroke-linecap="square"/>
</g>
<g id="&#226;&#128;&#157;">
<rect width="25" height="62" transform="translate(1700)" fill="white"/>
<path id="Vector 81_3" d="M1714 13V19L1712 21" stroke="black" stroke-width="4" stroke-linecap="square"/>
<path id="Vector 82_6" d="M1706 13V19L1704 21" stroke="black" stroke-width="4" stroke-linecap="square"/>
</g>
<g id="&#226;&#128;&#156;">
<rect width="25" height="62" transform="translate(1675)" fill="white"/>
<path id="Vector 81_4" d="M1681 19L1681 13L1683 11" stroke="black" stroke-width="4" stroke-linecap="square"/>
<path id="Vector 82_7" d="M1689 19L1689 13L1691 11" stroke="black" stroke-width="4" stroke-linecap="square"/>
</g>
<g id="`">
<rect width="25" height="62" transform="translate(1650)" fill="white"/>
<path id="Vector 81_5" d="M1660 11V17L1658 19" stroke="black" stroke-width="4" stroke-linecap="square"/>
</g>
<g id="&#39;">
<rect width="25" height="62" transform="translate(1625)" fill="white"/>
<path id="Vector 81_6" d="M1635 11V19" stroke="black" stroke-width="4" stroke-linecap="square"/>
</g>
<g id="&#38;#59;">
<rect width="25" height="62" transform="translate(1600)" fill="white"/>
<path id="Vector 81_7" d="M1606 11V19" stroke="black" stroke-width="4" stroke-linecap="square"/>
<path id="Vector 83_3" d="M1614 11V19" stroke="black" stroke-width="4" stroke-linecap="square"/>
</g>
<g id="!">
<rect width="25" height="62" transform="translate(1575)" fill="white"/>
<path id="Vector 81_8" d="M1585 13V42" stroke="black" stroke-width="4" stroke-linecap="square"/>
<path id="Vector 82_8" d="M1585 45L1585 49" stroke="black" stroke-width="4" stroke-linecap="square"/>
</g>
<g id="9">
<rect width="25" height="62" transform="translate(1550)" fill="white"/>
<path id="Vector 80_2" d="M1568 28L1567 32H1552V15H1568V47H1554" stroke="black" stroke-width="4" stroke-linecap="square"/>
</g>
<g id="8">
<rect width="25" height="62" transform="translate(1525)" fill="white"/>
<path id="Vector 79" d="M1538 29L1543 28.5V15H1527V28.5L1532 29M1538 29L1543 29.5V47H1527V29.5L1532 29M1538 29H1532" stroke="black" stroke-width="4" stroke-linecap="square"/>
</g>
<g id="7" clip-path="url(#clip5_3335_4763)">
<rect width="25" height="62" transform="translate(1500)" fill="white"/>
<path id="Vector 78" d="M1500 15H1518.22V16L1504 47" stroke="black" stroke-width="4" stroke-linecap="square"/>
</g>
<g id="6">
<rect width="25" height="62" transform="translate(1475)" fill="white"/>
<path id="Vector 77" d="M1491 15H1477V29M1477 29V47H1493V29H1477Z" stroke="black" stroke-width="4" stroke-linecap="square"/>
</g>
<g id="5" clip-path="url(#clip6_3335_4763)">
<rect width="25" height="62" transform="translate(1450)" fill="white"/>
<path id="Vector 76" d="M1466 15H1452V29.2673H1468V47H1450" stroke="black" stroke-width="4" stroke-linecap="square"/>
</g>
<g id="4">
<rect width="25" height="62" transform="translate(1425)" fill="white"/>
<path id="Vector 76_2" d="M1435 13L1427 36V37H1445M1439 25V47" stroke="black" stroke-width="4" stroke-linecap="square"/>
</g>
<g id="3" clip-path="url(#clip7_3335_4763)">
<rect width="25" height="62" transform="translate(1400)" fill="white"/>
<path id="Vector 75" d="M1400 15H1418V17L1407.5 28.5V29H1418V47H1400" stroke="black" stroke-width="4" stroke-linecap="square"/>
</g>
<g id="2" clip-path="url(#clip8_3335_4763)">
<rect width="25" height="62" transform="translate(1375)" fill="white"/>
<path id="Vector 74" d="M1375 15H1393V26L1377 46V47H1393" stroke="black" stroke-width="4" stroke-linecap="square"/>
</g>
<g id="1" clip-path="url(#clip9_3335_4763)">
<rect width="25" height="62" transform="translate(1350)" fill="white"/>
<path id="Vector 73" d="M1352 17L1360 15V47M1360 47H1352M1360 47H1368" stroke="black" stroke-width="4" stroke-linecap="square"/>
</g>
<g id="0">
<rect width="25" height="62" transform="translate(1325)" fill="white"/>
<path id="Vector 72" d="M1338 28L1332 34M1327 15V47H1343C1343 47 1343 25.5 1343 15H1327Z" stroke="black" stroke-width="4" stroke-linecap="square"/>
</g>
<g id="z" clip-path="url(#clip10_3335_4763)">
<rect width="25" height="62" transform="translate(1300)" fill="white"/>
<path id="Vector 71" d="M1300 23H1318V24L1302 46V47H1320" stroke="black" stroke-width="4" stroke-linecap="square"/>
</g>
<g id="y" clip-path="url(#clip11_3335_4763)">
<rect width="25" height="62" transform="translate(1275)" fill="white"/>
<path id="Vector 47" d="M1277 23V25L1285.5 46.5V48.5M1275 55H1284L1293 25V23" stroke="black" stroke-width="4" stroke-linecap="square"/>
</g>
<g id="x">
<rect width="25" height="62" transform="translate(1250)" fill="white"/>
<path id="Vector 47_2" d="M1252 23V25L1268 45V47M1252 47V45L1268 25V23" stroke="black" stroke-width="4" stroke-linecap="square"/>
</g>
<g id="v">
<rect width="25" height="62" transform="translate(1200)" fill="white"/>
<path id="Vector 70" d="M1202 23V26L1210.5 47H1211.5L1218 26V23" stroke="black" stroke-width="4" stroke-linecap="square"/>
</g>
<g id="w">
<rect width="25" height="62" transform="translate(1225)" fill="white"/>
<path id="Vector 70_2" d="M1226 23V26L1228 47H1229L1235 34L1241 47H1242L1244 26V23" stroke="black" stroke-width="4" stroke-linecap="square"/>
</g>
<g id="u">
<rect width="25" height="62" transform="translate(1175)" fill="white"/>
<path id="Vector 69" d="M1177 23V47H1192L1193 42M1193 42V23M1193 42V47" stroke="black" stroke-width="4" stroke-linecap="square"/>
</g>
<g id="t">
<rect width="25" height="62" transform="translate(1150)" fill="white"/>
<path id="Vector 68" d="M1158 15V47H1170M1152 23H1168" stroke="black" stroke-width="4" stroke-linecap="square"/>
</g>
<g id="s">
<rect width="25" height="62" transform="translate(1125)" fill="white"/>
<path id="Vector 67" d="M1143 23H1127V35H1143V47H1127" stroke="black" stroke-width="4" stroke-linecap="square"/>
</g>
<g id="r" clip-path="url(#clip12_3335_4763)">
<rect width="25" height="62" transform="translate(1100)" fill="white"/>
<path id="Vector 66" d="M1100 23H1106V30M1106 47H1100M1106 47H1112M1106 47V30M1120 23H1107L1106 30" stroke="black" stroke-width="4" stroke-linecap="square"/>
</g>
<g id="q">
<rect width="25" height="62" transform="translate(1075)" fill="white"/>
<path id="Vector 64" d="M1093 58C1093 57.7659 1093 55.7302 1093 47.2609M1093 47.2609C1093 37.4322 1093 31.0388 1093 23H1077V47.3529L1093 47.2609Z" stroke="black" stroke-width="4" stroke-linecap="square"/>
</g>
<g id="p">
<rect width="25" height="62" transform="translate(1050)" fill="white"/>
<path id="Vector 63" d="M1052 58V47.3529M1052 47.3529V23H1068V47.3529H1052Z" stroke="black" stroke-width="4" stroke-linecap="square"/>
</g>
<g id="o">
<rect width="25" height="62" transform="translate(1025)" fill="white"/>
<path id="Vector 62" d="M1043 23H1027V47H1043V23Z" stroke="black" stroke-width="4" stroke-linecap="square"/>
</g>
<g id="n">
<rect width="25" height="62" transform="translate(1000)" fill="white"/>
<path id="Vector 61" d="M1002 47C1002 46.3748 1002 37.1242 1002 27.9415M1002 23C1002 24.967 1002 25.3734 1002 27.9415M1002 27.9415L1003 23H1018V47" stroke="black" stroke-width="4" stroke-linecap="square"/>
</g>
<g id="m">
<rect width="25" height="62" transform="translate(975)" fill="white"/>
<path id="Vector 60" d="M977 47V23H985M993 47V23H985M985 23V47" stroke="black" stroke-width="4" stroke-linecap="square"/>
</g>
<g id="l" clip-path="url(#clip13_3335_4763)">
<rect width="25" height="62" transform="translate(950)" fill="white"/>
<path id="Vector 59" d="M950 15H960V47H970" stroke="black" stroke-width="4" stroke-linecap="square"/>
</g>
<g id="k">
<rect width="25" height="62" transform="translate(925)" fill="white"/>
<path id="Vector 58" d="M927 15V35M927 47V35M941 21V24L931.455 31.5M927 35L931.455 31.5M931.455 31.5L945 44V47" stroke="black" stroke-width="4" stroke-linecap="square"/>
</g>
<g id="j">
<rect width="25" height="62" transform="translate(900)" fill="white"/>
<path id="Vector 57" d="M906 23H916V55H902M916 13V14" stroke="black" stroke-width="4" stroke-linecap="square"/>
</g>
<g id="i">
<rect width="25" height="62" transform="translate(875)" fill="white"/>
<path id="Vector 56" d="M877 23H887V47H897M887 13V14" stroke="black" stroke-width="4" stroke-linecap="square"/>
</g>
<g id="h">
<rect width="25" height="62" transform="translate(850)" fill="white"/>
<path id="Vector 55" d="M852 47V29M852 13V29M852 29L853 23H868V47" stroke="black" stroke-width="4" stroke-linecap="square"/>
</g>
<g id="g">
<rect width="25" height="62" transform="translate(825)" fill="white"/>
<path id="Vector 54" d="M831 39H843V23H827V39H831ZM831 39V45H843V55H827" stroke="black" stroke-width="4" stroke-linecap="square"/>
</g>
<g id="f">
<rect width="25" height="62" transform="translate(800)" fill="white"/>
<path id="Vector 54_2" d="M810 47V23M820 15H810V23M810 23H804M810 23H820M802 47H818" stroke="black" stroke-width="4" stroke-linecap="square"/>
</g>
<g id="e">
<rect width="25" height="62" transform="translate(775)" fill="white"/>
<path id="Vector 53" d="M793 47H777V35M777 35V23H793V35H777Z" stroke="black" stroke-width="4" stroke-linecap="square"/>
</g>
<g id="d">
<rect width="25" height="62" transform="translate(750)" fill="white"/>
<path id="Vector 52" d="M768 15V30M768 30V47H752V23H767L768 30Z" stroke="black" stroke-width="4" stroke-linecap="square"/>
</g>
<g id="c">
<rect width="25" height="62" transform="translate(725)" fill="white"/>
<path id="Vector 51" d="M743 23H727V47H743" stroke="black" stroke-width="4" stroke-linecap="square"/>
</g>
<g id="b">
<rect width="25" height="62" transform="translate(700)" fill="white"/>
<path id="Vector 50" d="M702 29V23H718V47H702V15" stroke="black" stroke-width="4" stroke-linecap="square"/>
</g>
<g id="a">
<rect width="25" height="62" transform="translate(675)" fill="white"/>
<path id="Vector 50_2" d="M679 23H693V33M693 33V47H677V33H693Z" stroke="black" stroke-width="4" stroke-linecap="square"/>
</g>
<g id="Z" clip-path="url(#clip14_3335_4763)">
<rect width="25" height="62" transform="translate(650)" fill="white"/>
<path id="Vector 49" d="M650 15H668V16L652 46V47H670" stroke="black" stroke-width="4" stroke-linecap="square"/>
</g>
<g id="Y">
<rect width="25" height="62" transform="translate(625)" fill="white"/>
<path id="Vector 48" d="M627 15V18L635 31M635 31L643 18V15M635 31V47" stroke="black" stroke-width="4" stroke-linecap="square"/>
</g>
<g id="X">
<rect width="25" height="62" transform="translate(600)" fill="white"/>
<path id="Vector 47_3" d="M602 15V18L618 44V47M602 47V44L618 18V15" stroke="black" stroke-width="4" stroke-linecap="square"/>
</g>
<g id="W">
<rect width="25" height="62" transform="translate(575)" fill="white"/>
<path id="Vector 38" d="M577 15V47H578L585 31L592 47H593V15" stroke="black" stroke-width="4" stroke-linecap="square"/>
</g>
<g id="V">
<rect width="25" height="62" transform="translate(550)" fill="white"/>
<path id="Vector 46" d="M552 15V19L560.5 47H561.5L568 19V15" stroke="black" stroke-width="4" stroke-linecap="square"/>
</g>
<g id="U">
<rect width="25" height="62" transform="translate(525)" fill="white"/>
<path id="Vector 46_2" d="M527 15V47H543V15" stroke="black" stroke-width="4" stroke-linecap="square"/>
</g>
<g id="T" clip-path="url(#clip15_3335_4763)">
<rect width="25" height="62" transform="translate(500)" fill="white"/>
<path id="Vector 45" d="M520 15H510M500 15H510M510 15V47" stroke="black" stroke-width="4" stroke-linecap="square"/>
</g>
<g id="S">
<rect width="25" height="62" transform="translate(475)" fill="white"/>
<path id="Vector 44" d="M477 41V47H493V31H477V15H493V21" stroke="black" stroke-width="4" stroke-linecap="square"/>
</g>
<g id="R">
<rect width="25" height="62" transform="translate(450)" fill="white"/>
<path id="Vector 43" d="M454 47V31M454 31V15H470V31H462.5M454 31H462.5M462.5 31L472 44V47" stroke="black" stroke-width="4" stroke-linecap="square"/>
</g>
<g id="Q">
<rect width="25" height="62" transform="translate(425)" fill="white"/>
<path id="Vector 42" d="M441.5 45.5L447 51M441.5 45.5C441.5 45.5 440 47 437.5 47C435 47 427 47 427 47V15H443C443 15 443 40 443 42C443 44 441.5 45.5 441.5 45.5Z" stroke="black" stroke-width="4" stroke-linecap="square"/>
</g>
<g id="P">
<rect width="25" height="62" transform="translate(400)" fill="white"/>
<path id="Vector 41" d="M402 47V31M402 31V15H418V31H402Z" stroke="black" stroke-width="4" stroke-linecap="square"/>
</g>
<g id="O">
<rect width="25" height="62" transform="translate(375)" fill="white"/>
<path id="Vector 40" d="M377 47V15H393V47H377Z" stroke="black" stroke-width="4" stroke-linecap="square"/>
</g>
<g id="N">
<rect width="25" height="62" transform="translate(350)" fill="white"/>
<path id="Vector 39" d="M352 47V15H353L367 47H368V15" stroke="black" stroke-width="4" stroke-linecap="square"/>
</g>
<g id="M">
<rect width="25" height="62" transform="translate(325)" fill="white"/>
<path id="Vector 38_2" d="M327 47V15H328L331.5 24L335 33L342 15H343V47" stroke="black" stroke-width="4" stroke-linecap="square"/>
</g>
<g id="L">
<rect width="25" height="62" transform="translate(300)" fill="white"/>
<path id="Vector 37" d="M302 13V47H320" stroke="black" stroke-width="4" stroke-linecap="square"/>
</g>
<g id="K">
<rect width="25" height="62" transform="translate(275)" fill="white"/>
<path id="Vector 36" d="M277 15V35M277 47V35M293 15V18L282.778 28.5M277 35L282.778 28.5M295 47V44L282.778 28.5" stroke="black" stroke-width="4" stroke-linecap="square"/>
</g>
<g id="J">
<rect width="25" height="62" transform="translate(250)" fill="white"/>
<path id="Vector 34" d="M258 15H268V47H252" stroke="black" stroke-width="4" stroke-linecap="square"/>
</g>
<g id="I">
<rect width="25" height="62" transform="translate(225)" fill="white"/>
<path id="Vector 33" d="M227 15H235M243 15H235M235 15V47M227 47H243" stroke="black" stroke-width="4" stroke-linecap="square"/>
</g>
<g id="H">
<rect width="25" height="62" transform="translate(200)" fill="white"/>
<path id="Vector 32" d="M202 15V31M202 47V31M202 31H218M218 31V15M218 31V47" stroke="black" stroke-width="4" stroke-linecap="square"/>
</g>
<g id="G">
<rect width="25" height="62" transform="translate(175)" fill="white"/>
<path id="Vector 35" d="M193 15H177V47H193V31H187" stroke="black" stroke-width="4" stroke-linecap="square"/>
</g>
<g id="F">
<rect width="25" height="62" transform="translate(150)" fill="white"/>
<path id="Vector 26" d="M170 15H152V31M152 47V31M152 31H168" stroke="black" stroke-width="4" stroke-linecap="square"/>
</g>
<g id="E">
<rect width="25" height="62" transform="translate(125)" fill="white"/>
<path id="Vector 26_2" d="M145 15H127V31M145 47H127V31M127 31H143" stroke="black" stroke-width="4" stroke-linecap="square"/>
</g>
<g id="D">
<rect width="25" height="62" transform="translate(100)" fill="white"/>
<path id="Vector 25" d="M118 15H102V47H118V15Z" stroke="black" stroke-width="4" stroke-linecap="square"/>
</g>
<g id="C">
<rect width="25" height="62" transform="translate(75)" fill="white"/>
<path id="Vector 24" d="M93 15H77V47H93" stroke="black" stroke-width="4" stroke-linecap="square"/>
</g>
<g id="B">
<rect width="25" height="62" transform="translate(50)" fill="white"/>
<path id="Vector 24_2" d="M63 31C63 31 52 31 54 31M63 31C65 31 68 34 68 36V47H52V15H68V25.5C68 27.5 65 31 63 31Z" stroke="black" stroke-width="4" stroke-linecap="square"/>
</g>
<g id="A">
<rect width="25" height="62" transform="translate(25)" fill="white"/>
<path id="2_2" d="M27 47C27 45.7193 27.8713 43.7733 29.0561 39M45 47C45 45.7193 44.1287 43.7733 42.9439 39M29.0561 39C31.5716 28.8649 35.5 15 35.5 15H36.5C36.5 15 40.4284 28.8649 42.9439 39M29.0561 39H42.9439" stroke="black" stroke-width="4" stroke-linecap="square"/>
</g>
<g id="&#38;#32;">
<rect width="25" height="62" fill="white"/>
</g>
</g>
<defs>
<clipPath id="clip0_3335_4763">
<rect width="25" height="62" fill="white" transform="translate(2400)"/>
</clipPath>
<clipPath id="clip1_3335_4763">
<rect width="25" height="62" fill="white" transform="translate(2375)"/>
</clipPath>
<clipPath id="clip2_3335_4763">
<rect width="25" height="62" fill="white" transform="translate(2275)"/>
</clipPath>
<clipPath id="clip3_3335_4763">
<rect width="25" height="62" fill="white" transform="translate(2025)"/>
</clipPath>
<clipPath id="clip4_3335_4763">
<rect width="25" height="62" fill="white" transform="translate(1825)"/>
</clipPath>
<clipPath id="clip5_3335_4763">
<rect width="25" height="62" fill="white" transform="translate(1500)"/>
</clipPath>
<clipPath id="clip6_3335_4763">
<rect width="25" height="62" fill="white" transform="translate(1450)"/>
</clipPath>
<clipPath id="clip7_3335_4763">
<rect width="25" height="62" fill="white" transform="translate(1400)"/>
</clipPath>
<clipPath id="clip8_3335_4763">
<rect width="25" height="62" fill="white" transform="translate(1375)"/>
</clipPath>
<clipPath id="clip9_3335_4763">
<rect width="25" height="62" fill="white" transform="translate(1350)"/>
</clipPath>
<clipPath id="clip10_3335_4763">
<rect width="25" height="62" fill="white" transform="translate(1300)"/>
</clipPath>
<clipPath id="clip11_3335_4763">
<rect width="25" height="62" fill="white" transform="translate(1275)"/>
</clipPath>
<clipPath id="clip12_3335_4763">
<rect width="25" height="62" fill="white" transform="translate(1100)"/>
</clipPath>
<clipPath id="clip13_3335_4763">
<rect width="25" height="62" fill="white" transform="translate(950)"/>
</clipPath>
<clipPath id="clip14_3335_4763">
<rect width="25" height="62" fill="white" transform="translate(650)"/>
</clipPath>
<clipPath id="clip15_3335_4763">
<rect width="25" height="62" fill="white" transform="translate(500)"/>
</clipPath>
</defs>
</svg>
