# Blender 3.3.0
# www.blender.org
mtllib TV-1990-screen-Light-01.mtl
g defaultMaterial_Mesh
v -0.195496 0.423431 0.175374
v -0.195496 0.381133 0.177364
v -0.146649 0.381133 0.179161
v -0.146600 0.423431 0.175374
v -0.195496 0.296678 0.179792
v -0.146746 0.296678 0.183968
v -0.048905 0.381133 0.181152
v -0.049002 0.296678 0.188678
v -0.048857 0.423431 0.175374
v -0.195496 0.212177 0.179792
v -0.146746 0.212130 0.183774
v -0.195496 0.127675 0.177364
v -0.146649 0.127628 0.179015
v -0.049002 0.212035 0.188338
v -0.048905 0.127487 0.180860
v 0.048984 0.212035 0.188775
v 0.048984 0.296678 0.189115
v 0.048984 0.381133 0.181346
v 0.048984 0.085425 0.175374
v 0.048984 0.127487 0.181006
v -0.048857 0.085425 0.175374
v 0.146727 0.085425 0.175374
v 0.146727 0.127581 0.179161
v 0.195671 0.381133 0.177364
v 0.146727 0.381133 0.179307
v 0.146727 0.296678 0.184357
v 0.195671 0.296678 0.179792
v 0.195671 0.423431 0.175374
v 0.146727 0.423431 0.175374
v 0.048984 0.423431 0.175374
v -0.195496 0.085425 0.175374
v -0.146600 0.085425 0.175374
v 0.195671 0.212177 0.179792
v 0.146727 0.212130 0.184211
v 0.195671 0.127675 0.177364
v 0.195671 0.085425 0.175374
vn -0.0137 0.0840 0.9964
vn -0.0187 0.0649 0.9977
vn -0.0401 0.0526 0.9978
vn -0.0305 0.0695 0.9971
vn -0.0725 0.0198 0.9972
vn -0.0569 0.0271 0.9980
vn -0.0221 0.0367 0.9991
vn -0.0118 0.0969 0.9952
vn -0.0053 0.1168 0.9931
vn -0.0706 -0.0210 0.9973
vn -0.0557 -0.0286 0.9980
vn -0.0374 -0.0521 0.9979
vn -0.0290 -0.0679 0.9973
vn -0.0114 -0.0944 0.9955
vn -0.0225 -0.0401 0.9989
vn 0.0179 -0.0408 0.9990
vn 0.0187 0.0374 0.9991
vn 0.0095 0.0970 0.9952
vn -0.0050 -0.1122 0.9937
vn 0.0046 -0.1143 0.9934
vn 0.0092 -0.0958 0.9954
vn 0.0145 -0.0845 0.9963
vn 0.0321 -0.0706 0.9970
vn 0.0793 0.0194 0.9967
vn 0.0419 0.0526 0.9977
vn 0.0328 0.0725 0.9968
vn 0.0595 0.0278 0.9978
vn 0.0198 0.0649 0.9977
vn 0.0153 0.0878 0.9960
vn 0.0046 0.1191 0.9929
vn -0.0172 -0.0628 0.9979
vn -0.0133 -0.0824 0.9965
vn 0.0412 -0.0534 0.9977
vn 0.0771 -0.0218 0.9968
vn 0.0595 -0.0286 0.9978
vn 0.0183 -0.0643 0.9978
vt 0.000128 0.932162
vt 0.000128 0.824030
vt 0.125004 0.824030
vt 0.125128 0.932162
vt 0.000128 0.608127
vt 0.124756 0.608127
vt 0.374880 0.824030
vt 0.374632 0.608127
vt 0.375004 0.932162
vt 0.000128 0.392103
vt 0.124756 0.391983
vt 0.000128 0.176079
vt 0.125004 0.175959
vt 0.374632 0.391741
vt 0.374880 0.175597
vt 0.625128 0.391741
vt 0.625128 0.608127
vt 0.625128 0.824030
vt 0.625128 0.068067
vt 0.625128 0.175597
vt 0.375004 0.068067
vt 0.875004 0.068067
vt 0.875004 0.175839
vt 1.000128 0.824030
vt 0.875004 0.824030
vt 0.875004 0.608127
vt 1.000128 0.608127
vt 1.000128 0.932162
vt 0.875004 0.932162
vt 0.625128 0.932162
vt 0.000128 0.068067
vt 0.125128 0.068067
vt 1.000128 0.392103
vt 0.875004 0.391983
vt 1.000128 0.176079
vt 1.000128 0.068067
s 1
g off
g defaultMaterial_DefaultMaterial
usemtl DefaultMaterial
f 4/4/1 1/1/2 2/2/3
f 2/2/3 3/3/4 4/4/1
f 2/2/3 5/5/5 6/6/6
f 6/6/6 3/3/4 2/2/3
f 8/8/7 7/7/8 3/3/4
f 3/3/4 6/6/6 8/8/7
f 9/9/9 4/4/1 3/3/4
f 3/3/4 7/7/8 9/9/9
f 5/5/5 10/10/10 11/11/11
f 11/11/11 6/6/6 5/5/5
f 10/10/10 12/12/12 13/13/13
f 13/13/13 11/11/11 10/10/10
f 15/15/14 14/14/15 11/11/11
f 11/11/11 13/13/13 15/15/14
f 14/14/15 8/8/7 6/6/6
f 6/6/6 11/11/11 14/14/15
f 8/8/7 14/14/15 16/16/16
f 16/16/16 17/17/17 8/8/7
f 7/7/8 8/8/7 17/17/17
f 17/17/17 18/18/18 7/7/8
f 21/21/19 19/19/20 20/20/21
f 20/20/21 15/15/14 21/21/19
f 19/19/20 22/22/22 23/23/23
f 23/23/23 20/20/21 19/19/20
f 14/14/15 15/15/14 20/20/21
f 20/20/21 16/16/16 14/14/15
f 27/27/24 24/24/25 25/25/26
f 25/25/26 26/26/27 27/27/24
f 24/24/25 28/28/28 29/29/29
f 29/29/29 25/25/26 24/24/25
f 29/29/29 30/30/30 18/18/18
f 18/18/18 25/25/26 29/29/29
f 26/26/27 25/25/26 18/18/18
f 18/18/18 17/17/17 26/26/27
f 12/12/12 31/31/31 32/32/32
f 32/32/32 13/13/13 12/12/12
f 32/32/32 21/21/19 15/15/14
f 15/15/14 13/13/13 32/32/32
f 35/35/33 33/33/34 34/34/35
f 34/34/35 23/23/23 35/35/33
f 33/33/34 27/27/24 26/26/27
f 26/26/27 34/34/35 33/33/34
f 34/34/35 26/26/27 17/17/17
f 17/17/17 16/16/16 34/34/35
f 23/23/23 34/34/35 16/16/16
f 16/16/16 20/20/21 23/23/23
f 22/22/22 36/36/36 35/35/33
f 35/35/33 23/23/23 22/22/22
f 30/30/30 9/9/9 7/7/8
f 7/7/8 18/18/18 30/30/30
