<svg width="2048" height="2048" viewBox="0 0 2048 2048" fill="none" xmlns="http://www.w3.org/2000/svg">
<path fill-rule="evenodd" clip-rule="evenodd" d="M766.827 1132.47L858.328 1095.23C849.107 1073.33 844.01 1049.26 844.01 1024C844.01 922.516 926.28 840.247 1027.76 840.247C1129.25 840.247 1211.52 922.516 1211.52 1024C1211.52 1125.48 1129.25 1207.75 1027.76 1207.75C1018.69 1207.75 1009.77 1207.1 1001.05 1205.83L987.289 1303.63L980.813 1339.7C845.987 1304.58 792.645 1261.48 735.539 1144.61L766.827 1132.47ZM1117.62 1024C1117.62 1073.62 1077.39 1113.85 1027.76 1113.85C978.139 1113.85 937.911 1073.62 937.911 1024C937.911 974.375 978.139 934.147 1027.76 934.147C1077.39 934.147 1117.62 974.375 1117.62 1024Z" fill="#D9D9D9"/>
<path fill-rule="evenodd" clip-rule="evenodd" d="M1027.76 1576.88C1333.11 1576.88 1580.64 1329.35 1580.64 1024C1580.64 718.654 1333.11 471.121 1027.76 471.121C722.417 471.121 474.885 718.654 474.885 1024C474.885 1329.35 722.417 1576.88 1027.76 1576.88ZM1369.94 828.104L1436.79 788.44C1453.51 817.4 1467.23 848.299 1477.55 880.721L1403.96 905.815C1415.67 943.126 1421.98 982.826 1421.98 1024C1421.98 1084.23 1408.47 1141.31 1384.32 1192.37L1283.31 1144.61C1253.09 1208.51 1199.62 1259.27 1133.81 1285.93L1173.47 1390.42C1128.4 1408.36 1079.23 1418.22 1027.76 1418.22C1023.16 1418.22 1018.57 1418.14 1014 1417.98L1009.95 1495.6C797.146 1487.71 620.351 1338.9 570.134 1139.76L645.196 1119.52C637.583 1088.94 633.544 1056.94 633.544 1024C633.544 1015.02 633.843 1006.12 634.434 997.287L745.91 1004.57C747.672 978.63 752.937 953.651 761.234 930.1L655.881 892.863C675.062 838.464 705.844 789.537 745.253 749.052L688.296 696.158C716.926 666.52 749.401 640.621 784.918 619.263L827.821 684.174C886.44 649.609 954.787 629.78 1027.76 629.78C1040.32 629.78 1052.74 630.368 1065 631.516L1056.1 742.893C1120.5 749.306 1178.55 777.353 1222.85 819.661L1299.75 738.637C1327.23 764.832 1350.93 794.954 1369.94 828.104Z" fill="#D9D9D9"/>
<path fill-rule="evenodd" clip-rule="evenodd" d="M1027.76 1934.67C1530.71 1934.67 1938.44 1526.95 1938.44 1024C1938.44 1011.53 1938.19 999.115 1937.69 986.764H2012.21C1999.28 638.588 1805.65 336.599 1522.36 171.825L1486.74 237.278C1351.97 158.484 1195.14 113.328 1027.76 113.328C524.814 113.328 117.092 521.05 117.092 1024C117.092 1280.67 223.274 1512.53 394.104 1678.06L343.748 1732.96C376.459 1764.53 411.35 1793.85 448.172 1820.7L489.455 1758.61C640.248 1869.3 826.372 1934.67 1027.76 1934.67ZM1415.51 321.564C1660.65 457.167 1827.28 717.367 1829.93 1016.71H1719.84C1719.86 1019.14 1719.87 1021.57 1719.87 1024C1719.87 1093.22 1709.71 1160.07 1690.8 1223.13L1796.29 1254.7C1773.88 1329.49 1740.84 1399.69 1698.92 1463.55L1606.55 1403.65C1580.82 1442.79 1551.23 1479.17 1518.31 1512.24L1597.22 1589.02C1512.23 1674.68 1408.04 1741.25 1291.66 1781.79L1254.65 1678.06C1183.57 1702.72 1107.23 1716.11 1027.76 1716.11C997.314 1716.11 967.323 1714.15 937.911 1710.33L924.959 1819.68C794.235 1802.95 673.348 1754.77 570.134 1682.95L633.544 1592.94C453.522 1467.97 335.653 1259.75 335.653 1024C335.653 996.338 337.275 969.055 340.431 942.242L231.001 930.1C264.221 645.159 446.763 405.805 698.303 292.359L745.253 391.986C829.666 354.196 923.031 332.82 1021.29 331.919V221.825C1023.44 221.807 1025.6 221.799 1027.76 221.799C1114.99 221.799 1198.97 235.721 1277.59 261.464L1243.9 366.305C1285.43 379.947 1325.24 397.416 1362.89 418.292L1415.51 321.564Z" fill="#D9D9D9"/>
</svg>
