<svg width="2048" height="2048" viewBox="0 0 2048 2048" fill="none" xmlns="http://www.w3.org/2000/svg">
<path fill-rule="evenodd" clip-rule="evenodd" d="M766.827 1132.47L858.328 1095.23C849.107 1073.33 844.01 1049.26 844.01 1024C844.01 922.516 926.28 840.247 1027.76 840.247C1129.25 840.247 1211.52 922.516 1211.52 1024C1211.52 1125.48 1129.25 1207.75 1027.76 1207.75C1018.69 1207.75 1009.77 1207.1 1001.05 1205.83L987.289 1303.63L980.813 1339.7C845.987 1304.58 792.645 1261.48 735.539 1144.61L766.827 1132.47ZM1117.62 1024C1117.62 1073.62 1077.39 1113.85 1027.76 1113.85C978.139 1113.85 937.911 1073.62 937.911 1024C937.911 974.375 978.139 934.147 1027.76 934.147C1077.39 934.147 1117.62 974.375 1117.62 1024Z" fill="#D9D9D9"/>
</svg>
