<svg width="2048" height="2048" viewBox="0 0 2048 2048" fill="none" xmlns="http://www.w3.org/2000/svg">
<path fill-rule="evenodd" clip-rule="evenodd" d="M1415.51 321.564C1660.65 457.167 1827.28 717.367 1829.93 1016.71H1719.84C1719.86 1019.14 1719.87 1021.57 1719.87 1024C1719.87 1093.22 1709.71 1160.07 1690.8 1223.13L1796.29 1254.7C1773.88 1329.49 1740.84 1399.69 1698.92 1463.55L1606.55 1403.65C1580.82 1442.79 1551.23 1479.17 1518.31 1512.24L1597.22 1589.02C1512.23 1674.68 1408.04 1741.25 1291.66 1781.79L1254.65 1678.06C1183.57 1702.72 1107.23 1716.11 1027.76 1716.11C997.314 1716.11 967.323 1714.15 937.911 1710.33L924.959 1819.68C794.235 1802.95 673.348 1754.77 570.134 1682.95L633.544 1592.94C453.522 1467.97 335.653 1259.75 335.653 1024C335.653 996.338 337.275 969.055 340.431 942.242L231.001 930.1C264.221 645.159 446.763 405.805 698.303 292.359L745.253 391.986C829.666 354.196 923.031 332.82 1021.29 331.919V221.825C1023.44 221.807 1025.6 221.799 1027.76 221.799C1114.99 221.799 1198.97 235.721 1277.59 261.464L1243.9 366.306C1285.43 379.947 1325.24 397.416 1362.89 418.292L1415.51 321.564Z" fill="#D9D9D9"/>
</svg>
