<svg width="2048" height="2048" viewBox="0 0 2048 2048" fill="none" xmlns="http://www.w3.org/2000/svg">
<path fill-rule="evenodd" clip-rule="evenodd" d="M1027.76 1576.88C1333.11 1576.88 1580.64 1329.35 1580.64 1024C1580.64 718.654 1333.11 471.121 1027.76 471.121C722.418 471.121 474.885 718.654 474.885 1024C474.885 1329.35 722.418 1576.88 1027.76 1576.88ZM1369.94 828.104L1436.79 788.44C1453.51 817.4 1467.23 848.3 1477.55 880.721L1403.96 905.815C1415.67 943.126 1421.98 982.826 1421.98 1024C1421.98 1084.23 1408.47 1141.31 1384.32 1192.37L1283.31 1144.61C1253.09 1208.51 1199.62 1259.27 1133.81 1285.93L1173.47 1390.42C1128.4 1408.36 1079.23 1418.22 1027.76 1418.22C1023.16 1418.22 1018.57 1418.14 1014 1417.98L1009.96 1495.6C797.146 1487.71 620.351 1338.9 570.134 1139.76L645.196 1119.52C637.583 1088.94 633.544 1056.94 633.544 1024C633.544 1015.02 633.844 1006.12 634.434 997.287L745.91 1004.57C747.672 978.63 752.937 953.651 761.234 930.1L655.881 892.863C675.063 838.464 705.844 789.537 745.253 749.052L688.296 696.158C716.926 666.52 749.401 640.621 784.918 619.264L827.821 684.175C886.44 649.61 954.787 629.78 1027.76 629.78C1040.32 629.78 1052.74 630.368 1065 631.516L1056.1 742.893C1120.51 749.306 1178.55 777.353 1222.85 819.662L1299.75 738.637C1327.23 764.832 1350.93 794.954 1369.94 828.104Z" fill="#D9D9D9"/>
</svg>
