<svg width="31" height="13" viewBox="0 0 31 13" fill="none" xmlns="http://www.w3.org/2000/svg">
<path d="M3.5 9.5C7.33337 9.5 9.5 9.5 9.5 9.5V6.5H3.5V3.5L13.5 3.49998M22.5 3.49998V9.5M26.5 3.49998V9.5M21.5 0.5H28.5C29.6046 0.5 30.5 1.39543 30.5 2.5V10.5C30.5 11.6046 29.6046 12.5 28.5 12.5H20.5C19.3954 12.5 18.5 11.6046 18.5 10.5V10.5C18.5 10.5 18.5 7.40528 18.5 3.5M13.5 9.49998V3.49998M13.5 3.49998L15.5 3.5M15.5 0.5H2.5C1.39543 0.5 0.5 1.39543 0.5 2.5V10.5C0.5 11.6046 1.39543 12.5 2.5 12.5H17.5" stroke="white" stroke-width="0.5" stroke-linecap="square" stroke-linejoin="round"/>
</svg>
