# Blender v3.1.2 OBJ File: 'second-relatity-v02.blend'
# www.blender.org
o AnyConv.com__PXLSHIP3
v -0.621002 0.173861 -0.744424
v -0.576452 0.242399 -0.744424
v -0.606152 0.071053 -0.744424
v -0.606152 -0.031755 -0.744424
v -0.576452 -0.203101 -0.744424
v -0.621002 -0.134563 -0.744424
v -0.650702 -0.031755 -0.744424
v -0.650702 0.071053 -0.744424
v -0.743513 -0.173114 -0.521673
v -0.659980 -0.258786 -0.521673
v -0.799202 -0.044605 -0.521673
v -0.799202 0.083903 -0.521673
v -0.743513 0.212412 -0.521673
v -0.659980 0.298085 -0.521673
v -0.715669 0.083903 -0.521673
v -0.715669 -0.044605 -0.521673
v -0.888302 -0.237370 -0.150423
v -0.799202 -0.351601 -0.150423
v -0.947702 -0.066024 -0.150423
v -0.947702 0.105322 -0.150423
v -0.888302 0.276668 -0.150423
v -0.799202 0.390899 -0.150423
v -0.858602 0.105322 -0.150423
v -0.858602 -0.066024 -0.150423
v -0.888302 -0.237370 0.220827
v -0.799202 -0.351601 0.220827
v -0.947702 -0.066024 0.220827
v -0.947702 0.105322 0.220827
v -0.888302 0.276668 0.220827
v -0.799202 0.390899 0.220827
v -0.858602 0.105322 0.220827
v -0.858602 -0.066024 0.220827
v -0.743513 -0.205242 0.592077
v -0.659980 -0.305194 0.592077
v -0.799202 -0.055315 0.592077
v -0.799202 0.094613 0.592077
v -0.743513 0.244540 0.592077
v -0.715669 0.094613 0.592077
v -0.715669 -0.055315 0.592077
v -0.621002 -0.185967 0.814827
v -0.576452 -0.277351 0.814827
v -0.650702 -0.048890 0.814827
v -0.650702 0.088187 0.814827
v -0.621002 0.225264 0.814827
v -0.576452 0.316649 0.814827
v -0.606152 0.088187 0.814827
v -0.606152 -0.048890 0.814827
v -0.413998 -0.029812 0.117526
v -0.413998 -0.008811 0.075526
v -0.413998 0.012189 0.117526
v -0.413998 0.012189 0.306526
v -0.413998 -0.050812 0.306526
v -0.413998 -0.008811 0.327526
v -0.758451 -0.008811 0.065026
v -0.758451 0.033189 0.012526
v -0.758451 -0.050812 0.301276
v -0.758451 0.033188 0.327526
v -0.758451 0.075188 0.301276
v -0.758451 0.075189 0.065026
v -0.834996 0.012189 0.012526
v -0.834996 0.075188 -0.050474
v -0.834996 -0.050812 0.296026
v -0.834996 0.075188 0.327526
v -0.834996 0.138189 0.296026
v -0.834996 0.138188 0.012526
v 0.435074 0.012189 0.117526
v 0.435074 -0.008811 0.075526
v 0.435074 -0.029811 0.117526
v 0.435074 0.012189 0.306526
v 0.435074 -0.050811 0.306526
v 0.435074 -0.008811 0.327526
v 0.779527 -0.008811 0.065026
v 0.779527 0.033189 0.012526
v 0.779527 -0.050811 0.301276
v 0.779527 0.033189 0.327526
v 0.779527 0.075189 0.301276
v 0.779527 0.075189 0.065026
v 0.856072 0.012189 0.012526
v 0.856072 0.075189 -0.050474
v 0.856072 -0.050811 0.296026
v 0.856072 0.075189 0.327526
v 0.856072 0.138189 0.296026
v 0.856072 0.138189 0.012526
v 0.611130 0.070899 -0.744423
v 0.581430 0.242246 -0.744423
v 0.625980 0.173707 -0.744423
v 0.625980 -0.134716 -0.744423
v 0.581430 -0.203255 -0.744423
v 0.611130 -0.031908 -0.744423
v 0.655680 -0.031908 -0.744423
v 0.655680 0.070899 -0.744423
v 0.748491 -0.173268 -0.521673
v 0.664958 -0.258940 -0.521673
v 0.804180 -0.044759 -0.521673
v 0.804180 0.083750 -0.521673
v 0.748491 0.212259 -0.521673
v 0.664958 0.297931 -0.521673
v 0.720647 0.083750 -0.521673
v 0.720647 -0.044759 -0.521673
v 0.893280 -0.237524 -0.150423
v 0.804180 -0.351755 -0.150423
v 0.952680 -0.066178 -0.150423
v 0.952680 0.105169 -0.150423
v 0.893280 0.276515 -0.150423
v 0.804180 0.390746 -0.150423
v 0.863580 0.105169 -0.150423
v 0.863580 -0.066178 -0.150423
v 0.893280 -0.237524 0.220827
v 0.804180 -0.351755 0.220827
v 0.952680 -0.066178 0.220827
v 0.952680 0.105168 0.220827
v 0.893280 0.276515 0.220827
v 0.804180 0.390746 0.220827
v 0.863580 0.105168 0.220827
v 0.863580 -0.066178 0.220827
v 0.748491 -0.205396 0.592077
v 0.664958 -0.305347 0.592077
v 0.804180 -0.055468 0.592077
v 0.804180 0.094459 0.592077
v 0.748491 0.244387 0.592077
v 0.720647 0.094459 0.592077
v 0.720647 -0.055468 0.592077
v 0.625980 -0.186120 0.814828
v 0.581430 -0.277505 0.814827
v 0.655680 -0.049043 0.814828
v 0.655680 0.088034 0.814828
v 0.625980 0.225111 0.814828
v 0.581430 0.316496 0.814828
v 0.611130 0.088034 0.814828
v 0.611130 -0.049043 0.814828
v -0.073837 0.016194 0.577499
v -0.158452 -0.006145 0.577499
v -0.158452 -0.073160 0.577499
v -0.073837 -0.095498 0.577499
v 0.095394 0.016194 0.577499
v 0.095394 -0.095498 0.577499
v 0.180009 -0.006145 0.577499
v 0.180009 -0.073160 0.577499
v -0.200760 -0.151345 0.323653
v -0.412298 -0.095498 0.323653
v 0.222317 -0.151345 0.323653
v 0.433856 -0.095498 0.323653
v 0.433856 0.072040 0.323653
v 0.222317 0.127886 0.323653
v -0.200760 0.127886 0.323653
v -0.412298 0.072040 0.323653
v -0.200760 -0.151345 0.069807
v -0.412298 -0.095498 0.069807
v 0.222317 -0.151345 0.069807
v 0.433856 -0.095498 0.069807
v 0.433856 0.072040 0.069807
v 0.222317 0.127886 0.069807
v -0.200760 0.127886 0.069807
v -0.412298 0.072040 0.069807
v 0.264625 -0.069095 -0.522501
v 0.136932 -0.095498 -0.522501
v 0.136932 -0.039652 -0.522501
v -0.243068 -0.067829 -0.522501
v 0.136929 -0.101332 -0.460628
v -0.115304 -0.101332 -0.460628
v 0.136929 -0.095498 -0.522501
v -0.115304 -0.095498 -0.522501
v 0.136929 0.095069 -0.046214
v -0.115304 0.094962 -0.046593
v -0.115304 0.005340 -0.363437
v -0.115304 -0.016475 -0.440560
v -0.115304 -0.039652 -0.522501
v 0.136929 -0.056978 -0.522501
v 0.136929 -0.039653 -0.522501
v -0.115304 0.047439 -0.057365
v 0.136929 0.047439 -0.057365
vn -0.9693 -0.1616 0.1852
vn -0.8583 -0.4740 -0.1966
vn -0.8662 -0.4670 0.1777
vn -0.7564 -0.4958 -0.4267
vn -0.7712 -0.3781 -0.5121
vn -0.7140 -0.5235 -0.4650
vn -0.2134 0.9321 -0.2927
vn -0.1300 0.9814 -0.1415
vn -0.1888 0.9375 -0.2924
vn -0.8717 -0.1681 -0.4604
vn -0.8230 -0.1189 -0.5555
vn -0.7071 0.0000 0.7071
vn -0.7494 0.4850 -0.4508
vn -0.7902 0.3971 -0.4668
vn -0.8316 0.1388 -0.5377
vn -0.8674 0.1728 -0.4666
vn -0.6595 0.6175 -0.4286
vn -0.7644 0.4969 -0.4109
vn 0.6595 0.6175 -0.4286
vn 0.7494 0.4850 -0.4508
vn 0.7902 0.3971 -0.4668
vn 0.9121 -0.1094 0.3952
vn 0.8931 -0.0761 0.4435
vn 0.8875 -0.1892 0.4201
vn -0.7737 0.6076 0.1794
vn -0.8005 0.4477 0.3985
vn -0.7768 0.4552 0.4352
vn -0.6355 0.7721 -0.0000
vn -0.4637 0.8860 -0.0000
vn -0.4160 0.9093 -0.0000
vn 0.0055 -0.9864 -0.1645
vn 0.0002 -0.9603 -0.2788
vn 0.0051 -0.9225 -0.3860
vn -0.7706 -0.6011 -0.2117
vn -0.6657 -0.6340 -0.3934
vn 0.9769 0.1046 0.1865
vn 0.9769 -0.1046 0.1865
vn 0.8583 -0.4740 -0.1966
vn 0.8717 -0.1681 -0.4604
vn 0.9688 -0.1627 -0.1871
vn -0.8613 0.4708 -0.1911
vn -0.7669 0.6101 -0.1993
vn -0.2187 -0.9683 -0.1209
vn -0.1321 -0.9898 -0.0537
vn -0.2549 -0.9655 -0.0535
vn -0.1799 0.9837 -0.0000
vn 0.9121 0.1094 0.3952
vn 0.8974 0.2233 0.3805
vn 1.0000 0.0000 0.0000
vn -0.7737 -0.6076 0.1794
vn 0.6355 0.7721 0.0000
vn 0.4637 0.8860 0.0000
vn 0.8662 0.4670 0.1777
vn 0.7669 0.6101 -0.1993
vn 0.7737 0.6076 0.1794
vn 0.0000 0.0000 1.0000
vn 0.2205 0.9301 -0.2936
vn 0.1303 0.9813 -0.1420
vn 0.2529 0.9578 -0.1366
vn 0.8796 0.1476 0.4522
vn 0.8005 0.4477 0.3985
vn 0.8662 -0.4670 0.1777
vn 0.9693 -0.1616 0.1852
vn 0.7899 -0.4443 0.4226
vn 0.7737 -0.6076 0.1794
vn 0.0012 0.2271 -0.9739
vn 0.0002 0.2219 -0.9751
vn 0.0014 0.2280 -0.9737
vn -0.9783 0.1004 -0.1810
vn -0.9619 0.2001 0.1865
vn -0.9624 0.2027 -0.1809
vn -0.8341 -0.3345 0.4386
vn -0.7899 -0.4443 0.4226
vn -0.7265 -0.5693 0.3848
vn -0.8369 -0.4080 0.3648
vn -0.8386 -0.1149 0.5325
vn -0.8740 -0.1547 0.4606
vn -0.9693 0.1616 0.1852
vn -0.8274 0.0907 0.5542
vn -0.8095 0.3098 0.4987
vn -0.8796 0.1476 0.4522
vn 0.9152 -0.0900 -0.3927
vn 0.9009 -0.1602 -0.4034
vn 0.8952 -0.0580 -0.4418
vn 0.8095 0.3098 0.4987
vn 0.8952 0.0580 -0.4418
vn 0.9009 0.1602 -0.4034
vn 0.9152 0.0900 -0.3927
vn 0.9783 0.1004 -0.1810
vn 0.9783 -0.1004 -0.1810
vn -1.0000 -0.0000 0.0000
vn 0.0000 0.0000 -1.0000
vn 0.0142 -0.8841 -0.4672
vn -0.0002 -0.9603 -0.2788
vn -0.0051 -0.9225 -0.3860
vn 0.1357 -0.7559 -0.6404
vn 0.8613 0.4708 -0.1911
vn 0.8674 0.1728 -0.4666
vn -0.9769 -0.1046 0.1865
vn -0.9619 -0.2001 0.1865
vn -0.8974 -0.2233 0.3805
vn -0.0482 -0.4238 0.9045
vn -0.0544 -0.4465 0.8931
vn -0.1022 -0.3025 0.9477
vn -0.0572 -0.2794 0.9585
vn 0.1130 0.6876 0.7173
vn 0.1177 0.7022 0.7022
vn 0.2436 0.5184 0.8197
vn 0.1637 0.5090 0.8451
vn 0.1934 0.8660 -0.4611
vn 0.1875 0.8786 -0.4393
vn 0.4933 0.6844 -0.5368
vn 0.4859 0.6714 -0.5595
vn 0.1975 -0.7200 -0.6653
vn 0.1904 -0.6942 -0.6942
vn -0.0132 -0.9830 -0.1831
vn -0.1182 -0.9693 -0.2154
vn -0.1146 -0.2689 0.9563
vn -0.0664 -0.2420 0.9680
vn 0.2770 0.4557 0.8459
vn 0.2383 0.4343 0.8687
vn 0.7154 0.5133 -0.4741
vn 0.7296 0.4835 -0.4835
vn 0.9624 0.2027 -0.1809
vn -0.8662 0.4670 0.1777
vn -0.0142 -0.8841 -0.4672
vn -0.1357 -0.7559 -0.6404
vn -0.0055 -0.9864 -0.1645
vn 0.1022 -0.3025 0.9477
vn 0.0544 -0.4466 0.8931
vn 0.0482 -0.4238 0.9045
vn 0.0572 -0.2794 0.9585
vn -0.2436 0.5184 0.8197
vn -0.1177 0.7022 0.7022
vn -0.1130 0.6876 0.7173
vn -0.1637 0.5090 0.8451
vn 0.9688 0.1627 -0.1871
vn -0.4933 0.6844 -0.5368
vn -0.1875 0.8786 -0.4393
vn -0.1934 0.8660 -0.4611
vn -0.4859 0.6714 -0.5595
vn -0.1975 -0.7200 -0.6653
vn -0.1904 -0.6942 -0.6942
vn 0.1182 -0.9693 -0.2154
vn 0.0132 -0.9830 -0.1831
vn 0.1146 -0.2689 0.9563
vn 0.0664 -0.2420 0.9680
vn -0.2770 0.4557 0.8459
vn -0.2383 0.4343 0.8687
vn -0.7154 0.5133 -0.4741
vn -0.7296 0.4835 -0.4835
vn 0.8740 -0.1547 0.4606
vn 0.9693 0.1616 0.1852
vn 0.7071 0.0000 0.7071
vn -0.9688 0.1627 -0.1871
vn -0.9688 -0.1627 -0.1871
vn 0.7140 -0.5235 -0.4650
vn 0.7712 -0.3781 -0.5121
vn 0.7564 -0.4958 -0.4267
vn 0.8230 -0.1189 -0.5555
vn -0.9624 -0.2027 -0.1809
vn -0.9783 -0.1004 -0.1810
vn 0.8316 0.1388 -0.5377
vn 0.7644 0.4969 -0.4109
vn -0.8875 -0.1892 0.4201
vn -0.8931 -0.0761 0.4435
vn -0.9121 -0.1094 0.3952
vn 0.1318 -0.9898 -0.0532
vn -0.1433 -0.9793 0.1427
vn 0.2114 -0.9701 -0.1196
vn 0.0926 -0.9900 -0.1065
vn 0.6657 -0.6340 -0.3934
vn 0.7706 -0.6011 -0.2117
vn 0.8974 -0.2233 0.3805
vn -0.9121 0.1094 0.3952
vn -0.8875 0.1892 0.4201
vn -0.8974 0.2233 0.3805
vn -0.2536 -0.9606 0.1138
vn -0.2416 -0.9153 0.3222
vn 0.4160 0.9093 0.0000
vn 0.1799 0.9837 0.0000
vn 0.2549 -0.9655 -0.0526
vn 0.1433 -0.9793 0.1427
vn -0.9769 0.1046 0.1865
vn 0.7265 -0.5693 0.3848
vn 0.8341 -0.3345 0.4386
vn 0.8369 -0.4080 0.3648
vn 0.8386 -0.1149 0.5325
vn -0.1382 0.9632 0.2306
vn -0.2234 0.8461 0.4840
vn -0.0868 0.8951 0.4373
vn 0.8274 0.0907 0.5542
vn -0.9152 -0.0900 -0.3927
vn -0.8952 -0.0580 -0.4418
vn -0.9009 -0.1602 -0.4034
vn -0.9152 0.0900 -0.3927
vn -0.9009 0.1602 -0.4034
vn -0.8952 0.0580 -0.4418
vn -0.8931 0.0761 0.4435
vn 0.9918 0.0000 -0.1280
vn 0.9906 0.0000 -0.1368
vn 0.0000 0.9382 -0.3461
vn -0.9906 0.0000 -0.1367
vn -0.9918 0.0000 -0.1281
vn 0.1382 0.9632 0.2306
vn 0.0868 0.8951 0.4373
vn 0.9615 0.0000 -0.2747
vn -0.9615 0.0000 -0.2747
vn 0.2416 -0.9153 0.3222
vn 0.0900 -0.9623 0.2567
vn 0.0000 -0.9956 -0.0939
vn 0.2234 0.8461 0.4840
vn 0.2509 0.9506 0.1829
vn -0.2529 0.9579 -0.1357
vn 0.9619 -0.2001 0.1865
vn 0.9624 -0.2027 -0.1809
vn -0.8321 0.5547 0.0000
vn 0.0000 -1.0000 0.0000
vn -0.0000 0.9622 -0.2722
vn -0.9084 0.2024 -0.3659
vn -0.0900 -0.9623 0.2567
vn -0.0017 -0.9939 -0.1104
vn -0.1916 -0.9742 -0.1195
vn 0.9619 0.2001 0.1865
vn 0.8875 0.1892 0.4201
vn 0.8931 0.0761 0.4435
vn -0.0032 0.9586 -0.2848
vn 0.7768 0.4552 0.4352
vn 0.0000 0.2211 -0.9753
vn 0.0137 0.0000 -0.9999
vn 0.0069 0.0000 -1.0000
vn 0.0017 -0.9939 -0.1104
vn 0.2536 -0.9606 0.1138
vn 0.9084 0.2024 -0.3659
vn -0.2509 0.9506 0.1829
vn 0.0000 -0.9956 -0.0935
vn -0.2036 0.9425 -0.2649
s 1
f 27//1 17//2 25//3
f 9//4 6//5 5//6
f 158//7 153//8 167//9
f 11//10 7//11 6//5
f 9//4 11//10 6//5
f 140//12 132//12 146//12
f 13//13 1//14 8//15
f 12//16 13//13 8//15
f 14//17 2//18 1//14
f 97//19 96//20 86//21
f 15//22 3//23 2//24
f 30//25 37//26 45//27
f 82//28 77//29 76//30
f 74//31 68//32 72//33
f 18//34 17//2 10//35
f 24//36 15//22 23//37
f 100//38 94//39 102//40
f 21//41 22//42 13//13
f 158//43 147//44 148//45
f 76//30 66//46 69//46
f 16//47 24//36 10//48
f 165//49 164//49 170//49
f 25//3 18//34 26//50
f 64//51 59//52 65//51
f 112//53 105//54 113//55
f 131//56 132//56 133//56
f 155//57 152//58 151//59
f 119//60 112//53 120//61
f 108//62 102//40 110//63
f 116//64 109//65 108//62
f 113//55 120//61 112//53
f 171//66 164//67 163//68
f 115//69 101//70 109//71
f 40//72 33//73 34//74
f 41//75 40//72 34//74
f 42//76 35//77 33//73
f 40//72 42//76 33//73
f 35//77 28//78 27//1
f 43//79 44//80 36//81
f 38//82 45//83 46//84
f 120//61 127//85 119//60
f 47//86 41//87 39//88
f 32//89 23//37 31//90
f 69//91 66//91 68//91
f 156//92 161//92 168//92
f 49//93 48//94 54//95
f 49//93 54//95 55//96
f 104//97 95//98 96//20
f 106//99 105//100 97//101
f 52//102 53//103 57//104
f 52//102 57//104 56//105
f 53//106 51//107 58//108
f 53//106 58//108 57//109
f 50//110 49//111 55//112
f 50//110 55//112 59//113
f 55//96 54//95 60//114
f 55//96 60//114 61//115
f 54//95 62//116 60//117
f 56//105 57//104 63//118
f 56//105 63//118 62//119
f 57//109 58//108 64//120
f 57//109 64//120 63//121
f 59//113 55//112 61//122
f 59//113 61//122 65//123
f 43//79 35//77 42//76
f 65//91 61//91 60//91
f 26//124 24//36 32//89
f 30//25 21//41 29//125
f 72//33 68//32 67//126
f 73//127 72//33 67//126
f 48//94 56//128 54//95
f 75//129 71//130 70//131
f 74//132 75//129 70//131
f 76//133 69//134 71//135
f 75//136 76//133 71//135
f 102//40 95//98 103//137
f 73//138 67//139 66//140
f 77//141 73//138 66//140
f 78//142 72//33 73//127
f 79//143 78//142 73//127
f 78//144 80//145 72//33
f 81//146 75//129 74//132
f 80//147 81//146 74//132
f 82//148 76//133 75//136
f 81//149 82//148 75//136
f 79//150 73//138 77//141
f 83//151 79//150 77//141
f 39//88 31//90 38//82
f 47//86 38//82 46//84
f 118//152 111//153 119//60
f 16//47 3//23 15//22
f 142//154 137//154 138//154
f 20//155 11//10 19//156
f 88//157 87//158 92//159
f 9//4 10//35 17//2
f 87//158 90//160 94//39
f 87//158 94//39 92//159
f 113//161 106//99 114//162
f 91//163 86//21 96//20
f 91//163 96//20 95//98
f 86//21 85//164 97//19
f 85//165 84//166 98//167
f 149//168 139//169 147//44
f 155//170 149//168 156//171
f 93//172 100//38 101//173
f 17//2 11//10 9//4
f 80//49 78//49 82//49
f 21//41 12//16 20//155
f 96//20 105//54 104//97
f 15//22 2//24 14//174
f 167//92 162//92 158//92
f 99//175 88//176 93//177
f 147//44 140//178 148//45
f 139//169 133//179 140//178
f 58//180 50//181 59//52
f 50//49 51//49 48//49
f 33//73 26//50 34//74
f 35//77 25//3 33//73
f 150//182 141//183 149//168
f 36//81 29//125 28//78
f 92//159 93//172 88//157
f 118//152 108//62 110//63
f 114//162 107//184 115//69
f 26//124 32//89 39//88
f 117//185 116//64 123//186
f 117//185 123//186 124//187
f 116//64 118//152 125//188
f 116//64 125//188 123//186
f 145//189 132//190 131//191
f 44//80 37//26 36//81
f 119//60 127//85 126//192
f 121//193 129//194 128//195
f 106//99 99//175 107//184
f 122//196 124//197 130//198
f 47//56 46//56 42//56
f 98//167 89//199 99//175
f 126//56 129//56 130//56
f 110//63 103//137 111//153
f 151//200 142//49 150//201
f 170//202 159//202 160//202
f 148//203 146//91 154//204
f 153//8 144//205 152//58
f 144//205 131//191 135//206
f 12//16 7//11 11//10
f 94//39 91//163 95//98
f 90//92 89//92 84//92
f 29//125 20//155 28//78
f 111//153 104//97 112//53
f 168//91 159//91 169//91
f 109//65 100//38 108//62
f 14//17 13//13 22//42
f 155//207 151//200 150//201
f 158//208 148//203 154//204
f 141//183 138//209 136//210
f 160//211 159//211 149//168
f 166//49 162//49 167//49
f 169//91 171//91 163//91
f 144//205 137//212 143//213
f 154//214 145//189 153//8
f 31//90 22//215 30//216
f 167//217 164//217 165//217
f 165//218 166//218 167//218
f 163//219 153//8 152//58
f 117//220 122//196 109//71
f 141//183 134//221 139//169
f 28//78 19//156 27//1
f 8//92 3//92 4//92
f 152//58 143//213 151//59
f 130//198 121//193 122//196
f 121//193 115//69 122//196
f 125//188 119//60 126//192
f 38//82 30//216 45//83
f 88//176 99//175 89//199
f 27//1 19//156 17//2
f 158//7 154//214 153//8
f 140//12 133//12 132//12
f 97//19 105//54 96//20
f 30//25 29//125 37//26
f 82//28 83//28 77//29
f 72//33 80//145 74//31
f 74//31 70//222 68//32
f 24//36 16//47 15//22
f 100//38 92//159 94//39
f 158//43 162//223 147//44
f 76//30 77//29 66//46
f 24//36 18//224 10//48
f 10//48 5//225 16//47
f 5//225 4//226 16//47
f 170//49 160//49 165//49
f 160//49 162//49 166//49
f 165//49 160//49 166//49
f 25//3 17//2 18//34
f 64//51 58//180 59//52
f 112//53 104//97 105//54
f 133//56 134//56 131//56
f 134//56 136//56 131//56
f 136//56 138//56 137//56
f 137//56 135//56 136//56
f 135//56 131//56 136//56
f 155//57 157//227 152//58
f 119//60 111//153 112//53
f 108//62 100//38 102//40
f 116//64 117//185 109//65
f 113//55 128//228 120//61
f 171//66 170//229 164//67
f 115//69 107//184 101//70
f 35//77 36//81 28//78
f 120//61 128//228 127//85
f 32//89 24//36 23//37
f 67//91 68//91 66//91
f 68//91 70//91 69//91
f 70//91 71//91 69//91
f 168//92 169//230 157//231
f 157//231 155//92 168//92
f 155//92 156//92 168//92
f 104//97 103//137 95//98
f 85//165 98//167 97//101
f 98//167 106//99 97//101
f 43//79 36//81 35//77
f 60//91 62//91 64//91
f 62//91 63//91 64//91
f 64//91 65//91 60//91
f 26//124 18//224 24//36
f 30//25 22//42 21//41
f 52//232 56//128 48//94
f 56//128 62//116 54//95
f 102//40 94//39 95//98
f 39//88 32//89 31//90
f 47//86 39//88 38//82
f 118//152 110//63 111//153
f 16//47 4//226 3//23
f 142//154 143//154 137//154
f 20//155 12//16 11//10
f 9//4 5//6 10//35
f 113//161 105//100 106//99
f 149//168 141//183 139//169
f 155//170 150//182 149//168
f 17//2 19//156 11//10
f 79//49 83//49 78//49
f 83//49 82//49 78//49
f 82//49 81//49 80//49
f 21//41 13//13 12//16
f 22//215 23//37 14//174
f 23//37 15//22 14//174
f 93//177 101//70 107//184
f 107//184 99//175 93//177
f 147//44 139//169 140//178
f 139//169 134//221 133//179
f 58//180 51//181 50//181
f 53//49 52//49 51//49
f 52//49 48//49 51//49
f 48//49 49//49 50//49
f 33//73 25//3 26//50
f 35//77 27//1 25//3
f 150//182 142//233 141//183
f 36//81 37//26 29//125
f 92//159 100//38 93//172
f 118//152 116//64 108//62
f 114//162 106//99 107//184
f 39//88 41//87 34//234
f 34//234 26//124 39//88
f 145//189 146//235 132//190
f 44//80 45//27 37//26
f 128//195 113//161 121//193
f 113//161 114//162 121//193
f 106//99 98//167 99//175
f 46//56 45//56 44//56
f 44//56 43//56 46//56
f 43//56 42//56 46//56
f 42//56 40//56 47//56
f 40//56 41//56 47//56
f 98//167 84//166 89//199
f 123//56 125//56 130//56
f 125//56 126//56 130//56
f 126//56 127//56 129//56
f 127//56 128//56 129//56
f 124//56 123//56 130//56
f 110//63 102//40 103//137
f 151//200 143//49 142//49
f 170//202 171//202 159//202
f 148//203 140//91 146//91
f 153//8 145//189 144//205
f 144//205 145//189 131//191
f 12//16 8//15 7//11
f 94//39 90//160 91//163
f 86//92 91//92 84//92
f 91//92 90//92 84//92
f 90//92 87//92 89//92
f 87//92 88//92 89//92
f 85//92 86//92 84//92
f 29//125 21//41 20//155
f 111//153 103//137 104//97
f 168//91 161//91 159//91
f 109//65 101//173 100//38
f 14//17 1//14 13//13
f 141//183 142//233 138//209
f 159//211 161//236 156//171
f 147//44 162//223 160//211
f 159//211 156//171 149//168
f 147//44 160//211 149//168
f 169//91 159//91 171//91
f 144//205 135//206 137//212
f 154//214 146//235 145//189
f 31//90 23//37 22//215
f 164//219 167//9 153//8
f 152//58 157//227 163//219
f 157//227 169//237 163//219
f 163//219 164//219 153//8
f 117//220 124//197 122//196
f 122//196 115//69 109//71
f 141//183 136//210 134//221
f 28//78 20//155 19//156
f 6//92 7//92 4//92
f 7//92 8//92 4//92
f 8//92 1//92 3//92
f 1//92 2//92 3//92
f 5//92 6//92 4//92
f 152//58 144//205 143//213
f 130//198 129//194 121//193
f 121//193 114//162 115//69
f 125//188 118//152 119//60
f 38//82 31//90 30//216
