# Blender v2.93.0 OBJ File: 'nevoke-v01.blend'
# www.blender.org
mtllib triangleBeveled.mtl
o TriangleBeveled_Cylinder.002
v 0.000000 -0.078455 0.000000
v 0.000000 0.005777 0.000000
v -0.009685 0.017358 0.983225
v 0.000000 -0.004940 0.961704
v 0.009685 0.017358 0.983225
v -0.856340 0.017358 -0.483225
v -0.846655 0.017358 -0.500000
v -0.832860 -0.004940 -0.480852
v 0.846655 0.017358 -0.500000
v 0.856340 0.017358 -0.483225
v 0.832860 -0.004940 -0.480852
v -0.009685 0.062848 0.983225
v 0.009685 0.062848 0.983225
v 0.000000 0.079292 0.961704
v -0.856340 0.062848 -0.483225
v -0.832860 0.079292 -0.480852
v -0.846655 0.062848 -0.500000
v 0.846655 0.062848 -0.500000
v 0.832860 0.079292 -0.480852
v 0.856340 0.062848 -0.483225
vt 0.333333 0.500000
vt 0.333333 0.980852
vt 0.012765 0.980852
vt 1.000000 0.500000
vt 0.679432 0.980852
vt 1.000000 0.980852
vt 0.998276 0.034386
vt 0.668079 0.011641
vt 0.998276 0.011641
vt 0.333333 0.500000
vt 0.012765 0.980852
vt 0.333333 0.980852
vt 0.666667 0.500000
vt 0.346099 0.980852
vt 0.666667 0.980852
vt 0.666667 0.500000
vt 0.666667 0.980852
vt 0.346099 0.980852
vt 0.331610 0.034386
vt 0.001412 0.011641
vt 0.331610 0.011641
vt 1.000000 0.500000
vt 1.000000 0.980852
vt 0.679432 0.980852
vt 0.664943 0.011641
vt 0.666511 0.000492
vt 0.334745 0.011641
vt 0.333177 0.000492
vt -0.001724 0.011641
vt -0.000156 0.000492
vt 0.664943 0.034386
vt 0.668079 0.034386
vt 0.666511 0.042608
vt 0.334745 0.034386
vt 0.333177 0.042608
vt 0.001412 0.034386
vt -0.000156 0.042608
vt -0.001724 0.034386
vt 0.999844 0.000492
vt 0.999844 0.042608
vn 0.1309 -0.9885 0.0756
vn 0.1309 0.9885 -0.0756
vn 0.8660 0.0000 0.5000
vn -0.1309 0.9885 -0.0756
vn -0.0000 0.9885 0.1511
vn 0.0000 -0.9885 -0.1511
vn 0.0000 0.0000 -1.0000
vn -0.1309 -0.9885 0.0756
vn 0.0000 -0.6945 0.7195
vn -0.6231 -0.6945 -0.3598
vn 0.6231 -0.6945 -0.3598
vn 0.0000 0.7946 0.6071
vn -0.5258 0.7946 -0.3036
vn 0.5258 0.7946 -0.3036
vn -0.6570 -0.6515 0.3793
vn 0.0000 -0.6515 -0.7587
vn 0.6570 -0.6515 0.3793
vn -0.5642 0.7587 0.3257
vn 0.0000 0.7587 -0.6515
vn 0.5642 0.7587 0.3257
vn 0.8660 0.0000 -0.5000
vn -0.8660 0.0000 -0.5000
vn 0.0000 0.0000 1.0000
vn -0.8660 0.0000 0.5000
usemtl None
s off
f 1/1/1 11/2/1 4/3/1
f 2/4/2 16/5/2 14/6/2
f 20/7/3 5/8/3 10/9/3
f 2/10/4 14/11/4 19/12/4
f 2/13/5 19/14/5 16/15/5
f 1/16/6 8/17/6 11/18/6
f 17/19/7 9/20/7 7/21/7
f 1/22/8 4/23/8 8/24/8
f 3/25/9 4/26/9 5/8/9
f 6/27/10 7/21/10 8/28/10
f 9/20/11 10/29/11 11/30/11
f 12/31/12 13/32/12 14/33/12
f 15/34/13 16/35/13 17/19/13
f 18/36/14 19/37/14 20/38/14
f 4/26/15 6/27/15 8/28/15
f 8/28/16 9/20/16 11/30/16
f 11/39/17 5/8/17 4/26/17
f 12/31/18 16/35/18 15/34/18
f 17/19/19 19/37/19 18/36/19
f 20/7/20 14/33/20 13/32/20
f 18/36/21 10/29/21 9/20/21
f 15/34/22 7/21/22 6/27/22
f 5/8/23 12/31/23 3/25/23
f 12/31/24 6/27/24 3/25/24
f 20/7/3 13/32/3 5/8/3
f 17/19/7 18/36/7 9/20/7
f 4/26/15 3/25/15 6/27/15
f 8/28/16 7/21/16 9/20/16
f 11/39/17 10/9/17 5/8/17
f 12/31/18 14/33/18 16/35/18
f 17/19/19 16/35/19 19/37/19
f 20/7/20 19/40/20 14/33/20
f 18/36/21 20/38/21 10/29/21
f 15/34/22 17/19/22 7/21/22
f 5/8/23 13/32/23 12/31/23
f 12/31/24 15/34/24 6/27/24
