<svg width="896" height="96" viewBox="0 0 896 96" fill="none" xmlns="http://www.w3.org/2000/svg">
<path d="M51.0019 18.4851C47.0019 20.8185 37.9999 27.9989 44.4999 36.4989C48.8486 42.1857 71.4998 42.5127 79.4999 28.9989C87.545 15.4091 84.0985 3.30873 69.0019 1.48512C20.8303 -4.33381 -23.8859 69.8217 18.0002 77.4987C39.4251 81.4256 64.3351 68.4854 70.5017 58.9855M80.5 58.5C85.5 58.8333 93.5 58.5 102 50.5C109 43.9118 107 39 102 39C86 39 62 74.161 83 73.5C104.495 72.8234 118.5 39 133 39C142.821 39 136.236 49.5 134 49.5C128.852 49.5 133 44.0492 134.739 44.0492M111 57C105.834 60.9417 104.413 73.835 113 73.5C128.752 72.8854 154.494 43.7532 154.994 42.2532C155.394 41.0532 153.732 41.0559 152.899 41.0559C144.566 51.7225 131.147 73.5 142.921 73.5C151.103 73.5 162.667 61.5 167 55.5M182.5 62.5C189.119 58 202.894 39.0354 203.767 39.7347C203.942 39.8752 199.591 45.5211 196.503 52C192.473 60.4528 188.571 71.1622 189.481 71.2347C190.97 71.3533 197.105 62.1925 204.984 54.8254C214.731 45.7117 226.447 38 227 38C227.8 38 229.343 38.6769 229 39C225.439 42.353 219.863 47.4682 216.957 52.6302C212.217 61.0508 209.274 71.5 213.166 71.5C223.243 71.5 229 61.8099 234.5 55.5M243.5 27C244.397 24.3927 248.903 25.6069 248.996 28.5492C249.081 31.253 245.329 38.8862 241.104 41.6545M247 58C251.5 59.5 260.508 58.2717 267.5 52C274.492 45.7283 277.149 40.8726 270.5 39C260.541 36.1951 229.597 74.3841 251 73.5C269.223 72.7472 300.147 29.638 306 30C309.681 30.2277 308.833 30.6663 308 31.5C306 32.6667 303.586 35.8514 302.5 36.5C300.112 37.9263 301.857 70.6368 290.5 71.5C277.523 72.4863 277.16 59.5853 278.66 55.7519M297.479 67.5971C312.845 68.5949 328.667 40.8333 338 29C332.167 36.6667 319.798 53.9135 317.236 61.0117C314.673 68.11 315.439 73.5 326.216 72.4863C333.91 71.7626 350.063 58 352 55.5M320.428 40C322.895 38.1839 343.078 40 355.5 38M389.775 40C380.785 39.8435 354.199 89.5477 363.5 93C364.852 93.5019 365.365 93.3798 365 93C355.356 82.9765 377.235 48.4181 391 43C397.207 40.5568 413.423 38 408.833 52.8298C406.107 61.6372 389.077 74.2824 377.502 71.5C371.024 69.9428 372.814 66 372 65M449 40C446 34.67 436.771 36.1667 424.598 47.3419C417.958 53.4378 407.935 71.5 418.5 72.5C431.48 73.7286 450.5 42 451.5 41C453 41 439.946 57.0311 439 66C438.419 71.5094 444.141 72.742 446 71.5C452.535 67.1354 485.827 31.9549 488.5 32C492.105 32.0608 492 32 491 32C490 32 485.5 35 485.5 42C485.5 49 482.849 69.3794 475.5 71.5C466.705 74.0379 462.119 65.85 462 60M478.579 70.391C480.579 69.391 485.5 67.9963 493.5 64C500.603 60.4519 502.333 55.5 503 54.5M519 61.5C521.497 62.0256 537.106 39.8966 540 40C543.498 40.125 540.5 40.5 540 42C539.5 43.5 514.672 73 526.672 73C538.672 73 561.5 40.5 562.5 40C563.3 39.6 564.5 39.5 565 39.5C556.667 49.8333 542.821 72.2 550.021 73C557.221 73.8 577 50.5 586.5 39.5C584.384 44.1695 579.702 50.2489 577.061 56.3221C573.668 64.1222 573.384 71.2661 573 71.5C572.731 71.6637 599.882 39.6444 607.5 39.5C612.699 39.4014 611.937 40.39 611 41C600.07 48.1162 590.764 69.4431 597 71.5C600.324 72.5963 613 61.5 614.5 60M618 58.5C620 59 626.88 59.9446 636.529 51.832C641.846 47.362 645.5 39.5 640 39.5C634.5 39.5 628.248 42 622 49C616.452 55.2161 607.69 70.9015 618.5 73C628.355 74.9133 643.456 61.2633 649 52.5M682.5 41C680.5 42 664.867 59.1159 666 68C666.583 72.5727 668.019 74.2406 669.5 74C682.5 71.8877 706.674 41.5547 708.5 39.5C709.317 38.5809 703.923 47.0232 700.089 55.2245C697.562 60.6277 696.155 66.1974 694.301 70.5C700.135 64 705.548 56.9197 714 49C723.437 40.1578 728 38 729.5 37.5C730.7 37.1 731.691 37.6799 731.5 38C724.39 49.924 716.977 72.6163 716.5 71.5C714.298 66.3467 746.686 37.5 752.5 39.5C753.256 39.7602 753.833 40.5 754 41C749.333 47 744.49 49 739.5 62C738.41 64.8394 739.017 70.1517 742.5 70.5C752.5 71.5 767.265 53.3691 772.528 48.1402C783.251 37.4879 790.5 35 794 37C796.8 38.6 792.333 38.3333 790.5 38C781 44.1667 767.639 52.5 763.5 63C761.116 69.0471 764.576 74.0733 769.635 72.7857C778.615 70.5 797.766 45.4506 798.766 43.4506C800.766 41.8506 800.933 42.7839 800.766 43.4506C796.933 48.6172 787.495 59.7049 787.495 64.1049C787.495 69.6049 789.742 71.5 793.382 71.5C801.253 71.5 818.287 48.2319 823.615 43.4506C830.113 37.6194 841.5 36.5614 845.5 38.5614C848.3 40.1614 843.326 37.4317 836.342 37.9306C829.357 38.4295 827.507 41 815.234 54.1269C809.728 60.0162 805.156 69.4929 812.5 71.5C819.844 73.5071 846.339 44.8149 845.5 41C845.228 39.7646 847 40.1667 847.5 40.5C841.667 51.1667 829.2 73.7 826 78.5C822 84.5 809 95.5 806 95C803.6 94.6 800.667 89.5 799.5 87M850.5 57.5C851.5 58.5 852.331 60 861.831 57.5C871.331 55 883.5 39.5 875.5 39.5C863.627 39.5 849.067 55.1392 847.5 63C846.165 69.6925 848.114 72.3286 853 73.5C860.16 75.2164 878.386 61.2055 884 53M160.782 28.9989C158.187 30.9781 162 33.6755 164 32.1755C166 30.6755 163.376 27.0197 160.782 28.9989ZM890.261 68.5C890.761 71.5 891.761 73.5 893.261 71.5C894.761 69.5 896.261 68 893.261 67.5C890.861 67.1 890.261 68 890.261 68.5ZM688 29.5C688 32.5 689.5 34.5 690.5 32.5C691.5 30.5 693 29 692 28.5C691 28 688 27 688 29.5Z" stroke="black"/>
</svg>
