<svg width="39" height="39" viewBox="0 0 39 39" fill="none" xmlns="http://www.w3.org/2000/svg">
<g clip-path="url(#clip0_227_7)">
<path d="M7 14.7282V22H14V17H11V15H8V21H13V18H10V16H9V20H12V19H9.731M7 7.5V12H9V9.5L8 8.5V11M11 6.28287V5H8.5L10.5 7H19V12H14V10H18V11H15M20 7H29.5L32 9.5V12H30V9L31 10V11.2787M27 14.6843V16.5L24.5 14H22V10H25V13H23V11H24V12.3045M34.2369 17H27.7404M19.2604 17H17V22H19V18H18V21M25.2428 24H22V17H23L25 19V23H23V18.5L24 19.5V22M34 19.7037V22H30V20H33V21H30.6946M4.74609 27H9.30078M7 29.6836V32H11V30H8V31H10M14 26.7109V32H17V31H15V30H17V29H15V28H17V27H14.7305M19.6983 27H25.2428M22 29.7383V32H27V31H23V30H27.2496M27.7404 27H32.2785M34.2841 32H30V31H34V30H29.7265" stroke="white" stroke-width="0.5"/>
<path d="M3 5V36H36V7.79289L31.2071 3H3V4H30.7929L35 8.20711V35H4V5.75781" stroke="white" stroke-width="0.5"/>
<path d="M38.5 1H32L38 7V2H34.5C34.5 2 36.0237 3.52369 37 4.5V3H36.5M2.75781 5H7.20711L11 8.79289V14H5V7H6V13H10V9.20711L6.79289 6H4M12 6H19V5H12V6ZM20 6H27V5H20V6ZM28 6H29.7929L33 9.20711V13H29V8H28V14H34V8.79289L30.2071 5H28V6ZM12 8H18V9H13V13H19V14H12V8ZM20 8H27V14H26V9H21V14H20V8ZM12 16H15V23H12V24H19V23H16V16C18.8313 16 16.1687 16 19 16V15H12V16ZM20 15H24L27 18V24H26V18.5L23.5 16H21V24H20V15ZM28 16H34V15H28V16ZM6 23V15H5V24H11V23H6ZM28 18H34V19H29V23H34V24H28V18ZM5 26H10V28H5V34H11V33H6V29H11V25H5V26ZM12 25H19V34H12V25ZM13 33V26H18V33H13ZM20 26H26V28H20V34H27V33H21V29H27V25H20V26ZM28 26H33V28H28V34H34V33H29V29H34V25H28V26Z" stroke="white" stroke-width="0.5"/>
</g>
<defs>
<clipPath id="clip0_227_7">
<rect width="39" height="39" fill="white"/>
</clipPath>
</defs>
</svg>
