<svg width="512" height="221" viewBox="0 0 512 221" fill="none" xmlns="http://www.w3.org/2000/svg">
<path d="M151.703 69.6992H208.803L213.603 64.8992V7.69922H212.103L151.703 68.1992V69.6992Z" fill="black"/>
<path d="M151.703 141.099H208.803L213.603 136.299V79.1992H212.103L151.703 139.699V141.099Z" fill="black"/>
<path d="M208.798 74.4004H151.698L146.898 79.2004V136.3H148.298L208.798 75.8004V74.4004Z" fill="black"/>
<path d="M8.79688 141.099H65.8969L70.6969 136.299V79.1992H69.6969L8.79688 140.099V141.099Z" fill="black"/>
<path d="M65.9 74.4004H8.8L4 79.2004V136.3H5.5L65.9 75.8004V74.4004Z" fill="black"/>
<path d="M280.197 74.4004H223.097L218.297 79.2004V136.3H219.797L280.197 75.8004V74.4004Z" fill="black"/>
<path d="M280.197 3H223.097L218.297 7.7V64.9H219.797L280.197 4.4V3Z" fill="black"/>
<path d="M299.297 141.099H356.397L361.197 136.299V79.1992H359.797L299.297 139.699V141.099Z" fill="black"/>
<path d="M356.4 74.4004H299.3L294.5 79.2004V136.3H295.9L356.4 75.8004V74.4004Z" fill="black"/>
<path d="M370.703 141.099H427.903L432.603 136.299V79.1992H431.203L370.703 139.699V141.099Z" fill="black"/>
<path d="M427.9 74.4004H370.7L366 79.2004V136.3H366.9L427.9 75.4004V74.4004Z" fill="black"/>
<path d="M442.102 141.099H499.302L504.102 136.299V79.1992H502.602L442.102 139.699V141.099Z" fill="black"/>
<path d="M499.298 74.4004H442.098L437.398 79.2004V136.3H438.298L499.298 75.4004V74.4004Z" fill="black"/>
<path d="M137.4 145.9H80.2L75.5 150.6V207.8H76.9L137.4 147.3V145.9Z" fill="black"/>
<path d="M65.8969 212.5L70.6969 207.8V150.6H69.2969L8.79688 211.1V212.5H65.8969Z" fill="black"/>
<path d="M65.9 145.9H8.8L4 150.6V207.8H5.5L65.9 147.3V145.9Z" fill="black"/>
<path d="M356.4 145.9H299.3L294.5 150.6V207.8H295.5L356.4 146.8V145.9Z" fill="black"/>
<path d="M427.9 145.9H370.7L366 150.6V207.8H366.9L427.9 146.8V145.9Z" fill="black"/>
<path d="M499.298 145.9H442.098L437.398 150.6V207.8H438.298L499.298 146.8V145.9Z" fill="black"/>
<path d="M8.79688 69.6992H65.8969L70.6969 64.8992V7.69922H69.6969L8.79688 68.6992V69.6992Z" fill="black"/>
<path d="M223.102 69.6992H280.202L285.002 64.8992V7.69922H283.602L223.102 68.1992V69.6992Z" fill="black"/>
<path d="M299.297 69.6992H356.397L361.197 64.8992V7.69922H359.797L299.297 68.1992V69.6992Z" fill="black"/>
<path d="M370.703 69.6992H427.903L432.603 64.8992V7.69922H431.203L370.703 68.1992V69.6992Z" fill="black"/>
<path d="M442.102 69.6992H499.302L504.102 64.8992V7.69922H502.602L442.102 68.1992V69.6992Z" fill="black"/>
<path d="M213.603 207.8V150.6L208.803 145.9H151.703V147.3L212.103 207.8H213.603Z" fill="black"/>
</svg>
