<?xml version="1.0" encoding="utf-8"?>
<svg width="1968" height="119" viewBox="0 0 1968 119" fill="none" xmlns="http://www.w3.org/2000/svg">
  <defs>
    <font horiz-adv-x="50">
      <font-face font-family="Hershey Sans 1-stroke" units-per-em="1000" ascent="800" descent="-200"
        cap-height="500" x-height="300" />
      <glyph horiz-adv-x="25" vert-origin-x="207" unicode="H" glyph-name="H"
        d="M209 13 V31 M209 49 V31 M209 31 H225 M225 31 V13 M225 31V49" />

      <glyph horiz-adv-x="25" vert-origin-x="1532" unicode="9" glyph-name="9"
        d="M1550 28V28C1549.41 30.3508 1547.3 32 1544.88 32H1540C1536.69 32 1534 29.3137 1534 26V21C1534 17.6863 1536.69 15 1540 15H1544C1547.31 15 1550 17.6863 1550 21V41C1550 44.3137 1547.31 47 1544 47H1534" />
      <glyph horiz-adv-x="25" vert-origin-x="1507" unicode="8" glyph-name="8"
        d="M1520.5 29V29C1523.06 28.7153 1525 26.5499 1525 23.9723V21C1525 17.6863 1522.31 15 1519 15H1515C1511.69 15 1509 17.6863 1509 21V23.9723C1509 26.5499 1510.94 28.7153 1513.5 29V29M1520.5 29V29C1523.06 29.2847 1525 31.4501 1525 34.0277V41C1525 44.3137 1522.31 47 1519 47H1515C1511.69 47 1509 44.3137 1509 41V34.0277C1509 31.4501 1510.94 29.2847 1513.5 29V29M1520.5 29H1513.5" />
      <glyph horiz-adv-x="25" vert-origin-x="1482" unicode="7" glyph-name="7"
        d="M1482 15H1500.22V16L1486 49" />
      <glyph horiz-adv-x="25" vert-origin-x="1457" unicode="6" glyph-name="6"
        d="M1475 15H1465C1461.69 15 1459 17.6863 1459 21V29M1459 29V41C1459 44.3137 1461.69 47 1465 47H1469C1472.31 47 1475 44.3137 1475 41V35C1475 31.6863 1472.31 29 1469 29H1459Z" />
      <glyph horiz-adv-x="25" vert-origin-x="1432" unicode="5" glyph-name="5"
        d="M1450 15H1434V29.2673H1444C1447.31 29.2673 1450 31.9536 1450 35.2673V41C1450 44.3137 1447.31 47 1444 47H1432" />
      <glyph horiz-adv-x="25" vert-origin-x="1407" unicode="4" glyph-name="4"
        d="M1417 13L1409 36V37H1427M1421 25V49" />
      <glyph horiz-adv-x="25" vert-origin-x="1382" unicode="3" glyph-name="3"
        d="M1382 15H1400V17L1389.5 28.5V29H1394C1397.31 29 1400 31.6863 1400 35V41C1400 44.3137 1397.31 47 1394 47H1382" />
      <glyph horiz-adv-x="25" vert-origin-x="1357" unicode="2" glyph-name="2"
        d="M1357 15H1369C1372.31 15 1375 17.6863 1375 21V23.8953C1375 25.2577 1374.54 26.5796 1373.69 27.6435L1359 46V47H1377" />
      <glyph horiz-adv-x="25" vert-origin-x="1332" unicode="1" glyph-name="1"
        d="M1334 17L1342 15V47M1342 47H1334M1342 47H1350" />
      <glyph horiz-adv-x="25" vert-origin-x="1307" unicode="0" glyph-name="0"
        d="M1317 26V36M1325 20.9965C1325 27.6198 1325 35.6403 1325 41.0067C1325 44.3204 1322.31 47 1319 47H1315C1311.69 47 1309 44.3137 1309 41V21C1309 17.6863 1311.69 15 1315 15H1319C1322.31 15 1325 17.6828 1325 20.9965Z" />
      <glyph horiz-adv-x="25" vert-origin-x="1282" unicode="z" glyph-name="z"
        d="M1282 23H1300V24L1284 46V47H1302" />
      <glyph horiz-adv-x="25" vert-origin-x="1257" unicode="y" glyph-name="y"
        d="M1259 21V21.3146C1259 22.4303 1259.19 23.5382 1259.55 24.5923L1266.95 45.9077C1267.31 46.9618 1267.5 48.0697 1267.5 49.1854V49.5M1257 55H1259.94C1263.52 55 1266.67 52.6162 1267.64 49.166L1274.63 24.328C1274.87 23.4468 1275 22.5358 1275 21.6205V21" />
      <glyph horiz-adv-x="25" vert-origin-x="1232" unicode="x" glyph-name="x"
        d="M1234 21V21C1234 22.3041 1234.39 23.579 1235.11 24.6641L1248.89 45.3359C1249.61 46.421 1250 47.6959 1250 49V49M1234 49V49C1234 47.6959 1234.39 46.421 1235.11 45.3359L1248.89 24.6641C1249.61 23.579 1250 22.3041 1250 21V21" />
      <glyph horiz-adv-x="25" vert-origin-x="1207" unicode="v" glyph-name="v"
        d="M1209 21V22.2113C1209 23.3944 1209.21 24.5681 1209.62 25.6778L1217.5 47H1218.5L1224.62 25.3337C1224.87 24.4488 1225 23.5336 1225 22.6141V21" />
      <glyph horiz-adv-x="25" vert-origin-x="1182" unicode="u" glyph-name="u"
        d="M1184 21V41C1184 44.3137 1186.69 47 1190 47H1194.08C1196.94 47 1199.4 44.9812 1199.96 42.1767L1200 42M1200 42V21M1200 42V49" />
      <glyph horiz-adv-x="25" vert-origin-x="1157" unicode="t" glyph-name="t"
        d="M1165 13V41C1165 44.3137 1167.69 47 1171 47H1177M1159 23H1175" />
      <glyph horiz-adv-x="25" vert-origin-x="1132" unicode="s" glyph-name="s"
        d="M1150 23H1140C1136.69 23 1134 25.6863 1134 29V29C1134 32.3137 1136.69 35 1140 35H1144C1147.31 35 1150 37.6863 1150 41V41C1150 44.3137 1147.31 47 1144 47H1134" />
      <glyph horiz-adv-x="25" vert-origin-x="1107" unicode="r" glyph-name="r"
        d="M1107 23H1113V30M1113 47H1107M1113 47H1119M1113 47V30M1127 23H1119.2C1116.22 23 1113.69 25.1956 1113.26 28.1515L1113 30" />
      <glyph horiz-adv-x="25" vert-origin-x="1082" unicode="q" glyph-name="q"
        d="M1100 60C1100 59.7659 1100 55.7302 1100 47.2609M1100 47.2609C1100 37.4322 1100 31.0388 1100 23H1090C1086.69 23 1084 25.6863 1084 29V41.3183C1084 44.6455 1086.71 47.3374 1090.03 47.3182L1100 47.2609Z" />
      <glyph horiz-adv-x="25" vert-origin-x="1057" unicode="p" glyph-name="p"
        d="M1059 60V47.3529M1059 47.3529V23H1069C1072.31 23 1075 25.6863 1075 29V41.3529C1075 44.6667 1072.31 47.3529 1069 47.3529H1059Z" />
      <glyph horiz-adv-x="25" vert-origin-x="1032" unicode="o" glyph-name="o"
        d="M1044 23H1040C1036.69 23 1034 25.6863 1034 29V41C1034 44.3137 1036.69 47 1040 47H1044C1047.31 47 1050 44.3137 1050 41V29C1050 25.6863 1047.31 23 1044 23Z" />
      <glyph horiz-adv-x="25" vert-origin-x="1007" unicode="n" glyph-name="n"
        d="M1009 49C1009 48.3748 1009 37.1242 1009 27.9415M1009 21C1009 22.967 1009 25.3734 1009 27.9415M1009 27.9415L1009.03 27.8099C1009.59 25.0117 1012.05 23 1014.91 23H1019C1022.31 23 1025 25.6863 1025 29V49" />
      <glyph horiz-adv-x="25" vert-origin-x="982" unicode="m" glyph-name="m"
        d="M984 49V23H992M1000 49V27C1000 24.7909 998.209 23 996 23H992M992 23V49" />
      <glyph horiz-adv-x="25" vert-origin-x="957" unicode="l" glyph-name="l"
        d="M957 15H967V41C967 44.3137 969.686 47 973 47H977" />
      <glyph horiz-adv-x="25" vert-origin-x="932" unicode="k" glyph-name="k"
        d="M934 13V35M934 49V35M948 21V21.0838C948 22.925 947.155 24.6642 945.707 25.8017L938.455 31.5M934 35L938.455 31.5M938.455 31.5L950.385 44.2707C951.423 45.3819 952 46.8458 952 48.3665V49" />
      <glyph horiz-adv-x="25" vert-origin-x="907" unicode="j" glyph-name="j"
        d="M913 23H923V49C923 52.3137 920.314 55 917 55H909M923 13V17" />
      <glyph horiz-adv-x="25" vert-origin-x="882" unicode="i" glyph-name="i"
        d="M884 23H894V47H904M894 13V17" />
      <glyph horiz-adv-x="25" vert-origin-x="857" unicode="h" glyph-name="h"
        d="M859 49V29M859 13V29M859 29L859.164 28.0136C859.647 25.1205 862.15 23 865.083 23H869C872.314 23 875 25.6863 875 29V49" />
      <glyph horiz-adv-x="25" vert-origin-x="832" unicode="g" glyph-name="g"
        d="M838 39H844C847.314 39 850 36.3137 850 33V23H840C836.686 23 834 25.6863 834 29V35C834 37.2091 835.791 39 838 39V39ZM838 39V45H845C847.761 45 850 47.2386 850 50V50C850 52.7614 847.761 55 845 55H834" />
      <glyph horiz-adv-x="25" vert-origin-x="807" unicode="f" glyph-name="f"
        d="M823 47C820.657 47 818.828 47 817 47M811 47C813.343 47 815.172 47 817 47M817 47V23M827 15H823C819.686 15 817 17.6863 817 21V23M817 23H811M817 23H827" />
      <glyph horiz-adv-x="25" vert-origin-x="782" unicode="e" glyph-name="e"
        d="M800 47H790C786.686 47 784 44.3137 784 41V35M784 35V29C784 25.6863 786.686 23 790 23H794C797.314 23 800 25.6863 800 29V35H784Z" />
      <glyph horiz-adv-x="25" vert-origin-x="757" unicode="d" glyph-name="d"
        d="M775 13V30M775 30V47H765C761.686 47 759 44.3137 759 41V29C759 25.6863 761.686 23 765 23H768.796C771.782 23 774.314 25.1956 774.736 28.1515L775 30Z" />
      <glyph horiz-adv-x="25" vert-origin-x="732" unicode="c" glyph-name="c"
        d="M750 23H740C736.686 23 734 25.6863 734 29V41C734 44.3137 736.686 47 740 47H750" />
      <glyph horiz-adv-x="25" vert-origin-x="707" unicode="b" glyph-name="b"
        d="M709 29V29C709 25.6863 711.686 23 715 23H719C722.314 23 725 25.6863 725 29V41C725 44.3137 722.314 47 719 47H709V13" />
      <glyph horiz-adv-x="25" vert-origin-x="682" unicode="a" glyph-name="a"
        d="M684 23H694C697.314 23 700 25.6863 700 29V33M700 33V47H690C686.686 47 684 44.3137 684 41V39C684 35.6863 686.686 33 690 33H700Z" />
      <glyph horiz-adv-x="25" vert-origin-x="657" unicode="Z" glyph-name="Z"
        d="M657 15H675V16L659 46V47H677" />
      <glyph horiz-adv-x="25" vert-origin-x="632" unicode="Y" glyph-name="Y"
        d="M634 13V13.5C634 15.1414 634.404 16.7576 635.176 18.2059L642 31M642 31L648.824 18.2059C649.596 16.7576 650 15.1414 650 13.5V13M642 31V49" />
      <glyph horiz-adv-x="25" vert-origin-x="607" unicode="X" glyph-name="X"
        d="M609 13V13.5C609 15.1414 609.404 16.7576 610.176 18.2059L623.824 43.7941C624.596 45.2424 625 46.8586 625 48.5V49M609 49V48.5C609 46.8586 609.404 45.2424 610.176 43.7941L623.824 18.2059C624.596 16.7576 625 15.1414 625 13.5V13" />
      <glyph horiz-adv-x="25" vert-origin-x="582" unicode="W" glyph-name="W"
        d="M584 13V47H585L588.5 38L592 29L599 47H600V13" />
      <glyph horiz-adv-x="25" vert-origin-x="557" unicode="V" glyph-name="V"
        d="M559 13V14.7771C559 16.2519 559.204 17.7197 559.606 19.1387L567.5 47H568.5L574.637 18.6746C574.878 17.5614 575 16.4256 575 15.2865V13" />
      <glyph horiz-adv-x="25" vert-origin-x="532" unicode="U" glyph-name="U"
        d="M534 13V41C534 44.3137 536.686 47 540 47H544C547.314 47 550 44.3137 550 41V13" />
      <glyph horiz-adv-x="25" vert-origin-x="507" unicode="T" glyph-name="T"
        d="M527 15H517M507 15H517M517 15V49" />
      <glyph horiz-adv-x="25" vert-origin-x="482" unicode="S" glyph-name="S"
        d="M484 41V41C484 44.3137 486.686 47 490 47H494C497.314 47 500 44.3137 500 41V37C500 33.6863 497.314 31 494 31H490C486.686 31 484 28.3137 484 25V21C484 17.6863 486.686 15 490 15H494C497.314 15 500 17.6863 500 21V21" />
      <glyph horiz-adv-x="25" vert-origin-x="457" unicode="R" glyph-name="R"
        d="M461 49V31M461 31V15H471C474.314 15 477 17.6863 477 21V25C477 28.3137 474.314 31 471 31H469.5M461 31H469.5M469.5 31L478.069 44.5299C478.677 45.4902 479 46.6035 479 47.7402V49" />
      <glyph horiz-adv-x="25" vert-origin-x="432" unicode="Q" glyph-name="Q"
        d="M448.5 45.5L454 51M448.5 45.5C448.5 45.5 447 47 444.5 47C443.549 47 441.801 47 440 47C436.686 47 434 44.3137 434 41V21C434 17.6863 436.686 15 440 15H444C447.314 15 450 17.6831 450 20.9968C450 28.5272 450 40.6333 450 42C450 44 448.5 45.5 448.5 45.5Z" />
      <glyph horiz-adv-x="25" vert-origin-x="407" unicode="P" glyph-name="P"
        d="M409 49V31M409 31V15H419C422.314 15 425 17.6863 425 21V25C425 28.3137 422.314 31 419 31H409Z" />
      <glyph horiz-adv-x="25" vert-origin-x="382" unicode="O" glyph-name="O"
        d="M384 41V21C384 17.6863 386.686 15 390 15H394C397.314 15 400 17.6863 400 21V41C400 44.3137 397.314 47 394 47H390C386.686 47 384 44.3137 384 41Z" />
      <glyph horiz-adv-x="25" vert-origin-x="357" unicode="N" glyph-name="N"
        d="M359 49V15H360L374 47H375V13" />
      <glyph horiz-adv-x="25" vert-origin-x="332" unicode="M" glyph-name="M"
        d="M334 49V15H335L338.5 24L342 33L349 15H350V49" />
      <glyph horiz-adv-x="25" vert-origin-x="307" unicode="L" glyph-name="L" d="M309 13V47H327" />
      <glyph horiz-adv-x="25" vert-origin-x="282" unicode="K" glyph-name="K"
        d="M284 13V35M284 49V35M300 13V13.859C300 15.2436 299.521 16.5855 298.645 17.6573L289.778 28.5M284 35L289.778 28.5M302 49V47.8878C302 46.659 301.623 45.4597 300.919 44.4523L289.778 28.5" />
      <glyph horiz-adv-x="25" vert-origin-x="257" unicode="J" glyph-name="J"
        d="M265 15H275V41C275 44.3137 272.314 47 269 47H259" />
      <glyph horiz-adv-x="25" vert-origin-x="232" unicode="I" glyph-name="I"
        d="M234 15H242M250 15H242M242 15V47M234 47H250" />

      <glyph horiz-adv-x="25" vert-origin-x="182" unicode="G" glyph-name="G"
        d="M200 15H190C186.686 15 184 17.6863 184 21V41C184 44.3137 186.686 47 190 47H200V31H194" />
      <glyph horiz-adv-x="25" vert-origin-x="157" unicode="F" glyph-name="F"
        d="M177 15H159V31M159 48V31M159 31H175" />
      <glyph horiz-adv-x="25" vert-origin-x="132" unicode="E" glyph-name="E"
        d="M152 15H134V31M152 47H134V31M134 31H150" />
      <glyph horiz-adv-x="25" vert-origin-x="107" unicode="D" glyph-name="D"
        d="M119 15H109V47H119C122.314 47 125 44.3137 125 41V21C125 17.6863 122.314 15 119 15Z" />
      <glyph horiz-adv-x="25" vert-origin-x="82" unicode="C" glyph-name="C"
        d="M100 15H90C86.6863 15 84 17.6863 84 21V41C84 44.3137 86.6863 47 90 47H100" />
      <glyph horiz-adv-x="25" vert-origin-x="57" unicode="B" glyph-name="B"
        d="M70 31C70 31 59 31 61 31M70 31C72 31 75 34 75 36V42C75 44.7614 72.7614 47 70 47H59V15H70C72.7614 15 75 17.2386 75 20V25.5C75 27.5 72 31 70 31Z" />
    </font>
</defs>
</svg>
