<svg width="168" height="119" viewBox="0 0 168 119" fill="none" xmlns="http://www.w3.org/2000/svg">
<rect width="168" height="119" fill="#1E1E1E"/>
<g id="Monono-Font">
<rect width="168" height="119" fill="white"/>
<g id="A">
<rect width="25" height="50" transform="translate(32 7)" fill="#E8E8E8"/>
<path id="Vector 22" d="M34 50C34 46 42.5 16 42.5 16H43.5C43.5 16 52 46 52 50" stroke="black" stroke-width="4"/>
<path id="Vector 23" d="M36 40H50" stroke="black" stroke-width="3"/>
</g>
<g id="B">
<rect width="25" height="50" transform="translate(57 7)" fill="#E8E8E8"/>
<path id="Vector 24" d="M70 32C70 32 59 32 61 32M70 32C72 32 75 35 75 37V43C75 45.7614 72.7614 48 70 48H59V16H70C72.7614 16 75 18.2386 75 21V26.5C75 28.5 72 32 70 32Z" stroke="black" stroke-width="4"/>
</g>
<g id="C">
<rect width="25" height="50" transform="translate(82 7)" fill="#E8E8E8"/>
<path id="Vector 24_2" d="M100 16H90C86.6863 16 84 18.6863 84 22V42C84 45.3137 86.6863 48 90 48H100" stroke="black" stroke-width="4"/>
</g>
<g id="D">
<rect width="25" height="50" transform="translate(107 7)" fill="#E8E8E8"/>
<path id="Vector 25" d="M119 16H109V48H119C122.314 48 125 45.3137 125 42V22C125 18.6863 122.314 16 119 16Z" stroke="black" stroke-width="4"/>
</g>
<g id="E">
<rect width="25" height="50" transform="translate(132 7)" fill="#E8E8E8"/>
<path id="Vector 26" d="M152 16H134V32M152 48H134V32M134 32H150" stroke="black" stroke-width="4"/>
</g>
<g id="c">
<rect width="25" height="50" transform="translate(82 61)" fill="#E8E8E8"/>
<path id="Vector 29" d="M100 78C99.5412 78 94.3461 78 89.9982 78C86.6845 78 84 80.6863 84 84V96C84 99.3137 86.6863 102 90 102H100" stroke="black" stroke-width="4"/>
</g>
<g id="d">
<rect width="25" height="50" transform="translate(107 61)" fill="#E8E8E8"/>
<path id="Vector 30" d="M125 68V102H115C111.686 102 109 99.3137 109 96V84C109 80.6863 111.686 78 115 78H118.515C120.106 78 121.632 78.6321 122.757 79.7574L125 82" stroke="black" stroke-width="4"/>
</g>
<g id="e">
<rect width="25" height="50" transform="translate(132 61)" fill="#E8E8E8"/>
<path id="Vector 31" d="M150 102H140C136.686 102 134 99.3137 134 96V84C134 80.6863 136.686 78 140 78H144C147.314 78 150 80.6863 150 84V90H134" stroke="black" stroke-width="4"/>
</g>
<g id="a">
<rect width="25" height="50" transform="translate(32 61)" fill="#E8E8E8"/>
<path id="Vector 27" d="M34 78H44C47.3137 78 50 80.6863 50 84V88M50 88V102H40C36.6863 102 34 99.3137 34 96V94C34 90.6863 36.6863 88 40 88H50Z" stroke="black" stroke-width="4"/>
</g>
<g id="b">
<rect width="25" height="50" transform="translate(57 61)" fill="#E8E8E8"/>
<path id="Vector 28" d="M59 68V82M59 82V102H69C72.3137 102 75 99.3137 75 96V84C75 80.6863 72.3137 78 69 78H65.4853C63.894 78 62.3679 78.6321 61.2426 79.7574L59 82Z" stroke="black" stroke-width="4"/>
</g>
</g>
</svg>
