<?xml version="1.0" standalone="no"?>
<svg>
<font id="Monono" horiz-adv-x="27" >
<font-face units-per-em="100" ascent="80" descent="-20" />
<glyph unicode="A" horiz-adv-x="50" d="M8.16098 23.68591 C9.50063 23.68591 10.84027 23.68591 12.17992 23.68591 C13.25581 23.68591 14.3317 23.68591 15.40759 23.68591 C18.63527 23.68591 21.86294 23.68591 25.09062 23.68591 C29.79775 23.68591 34.50488 23.68591 39.21201 23.68591 L39.21201 16.30591 C37.73255 16.30591 36.2531 16.30591 34.77364 16.30591 C31.54597 16.30591 28.31829 16.30591 25.09062 16.30591 C21.86294 16.30591 18.63527 16.30591 15.40759 16.30591 C12.99205 16.30591 10.57652 16.30591 8.16098 16.30591 L8.16098 23.68591 zM22.32865 59.30351 C20.85518 53.3933 21.83612 57.1053 19.44806 48.15059 C17.14473 39.6553 14.6832 31.20541 12.40016 22.70468 C10.48687 15.20798 8.43766 7.74108 7.99317 -0.00965 C5.3265 -0.00963 2.65984 -0.00961 -0.00683 -0.00959 C0.05246 1.09155 0.07773 2.19504 0.17105 3.29382 C1.06147 10.56226 2.75424 17.61517 4.64801 24.68058 C7.03137 33.19575 9.44857 41.70003 11.7268 50.24395 C13.62271 57.48089 15.47158 64.72645 17.22354 72 C18.27386 72 19.32418 72 20.3745 72 C20.93581 72 21.49712 72 22.05842 72 C22.50535 72 22.95229 72 23.39922 72 C24.78573 72 26.17225 72 27.55877 72 C27.79678 70.96536 28.03479 69.93072 28.27281 68.89608 C31.01654 57.34403 33.90641 45.84564 36.97327 34.37527 C39.01405 26.78063 41.05395 19.23374 42.59816 11.52333 C43.28516 7.65082 43.8375 3.91442 44.01976 -0.00991 C41.35309 -0.00993 38.68643 -0.00995 36.01976 -0.00997 C35.98873 0.68486 35.9749 1.38067 35.92667 2.07451 C35.66284 4.69554 35.29177 7.26266 34.77546 9.84841 C33.1588 17.41031 31.2395 24.8478 29.24209 32.31884 C27.05945 40.52492 24.88248 48.72694 22.88071 56.97897 C22.69297 57.75292 22.51267 58.52866 22.32865 59.30351 z" />
<glyph unicode="B" horiz-adv-x="50" d="M34.17174 36.71979 C34.79049 36.19433 35.3694 35.64472 35.91174 35.0412 C37.07964 33.66669 38.04718 32.24386 38.74103 30.57826 C39.99202 27.37781 40 24.19823 40 20.81278 C40 20.01373 40 19.21468 40 18.41563 C40 14.6749 39.96682 11.06622 38.29939 7.65738 C37.06814 5.27746 35.37986 3.38235 33.04168 2.06745 C32.84363 1.96211 29.49987 0 23.9998 0 C21.34385 0 18.6879 0 16.03195 0 C14.03433 0 12.0367 0 10.03908 0 C6.69272 0 3.34636 0 -0 0 C-0 1.33355 -0 2.66709 0 4.00064 C0 13.70252 0 23.4044 0 33.10628 C0 39.75885 0 46.41142 0 53.06399 C0 59.37599 -0 65.688 0 72 C1.3334 72 2.6668 72 4.0002 72 C7.03204 72 10.06388 72 13.09571 72 C15.17464 72 17.25357 72 19.3325 72 C20.38803 72 24.00022 72 24.00026 72 C26.93828 71.88937 29.68488 71.59942 32.34262 70.29939 C34.72254 69.06814 36.61765 67.37986 37.93255 65.04168 C39.98161 61.18907 40 57.07024 40 52.81278 C40 52.01373 40 51.21468 40 50.41563 C40 48.97995 40.0665 47.52379 39.8717 46.09631 C39.61044 44.18176 38.95528 42.40127 37.92516 40.77625 C36.98445 39.36461 35.94077 38.1125 34.60875 37.06384 C34.39025 36.89181 34.31741 36.83447 34.17174 36.71979 zM26.98087 32 C25.45358 32 23.92629 32 22.399 32 C19.90428 32 17.40957 32 14.91486 32 C12.6099 32 10.30495 32 8 32 C8 24 8 16 8 8 C8.67969 8 9.35939 8 10.03908 8 C12.0367 8 14.03433 8 16.03195 8 C17.79337 8 19.55478 8 21.3162 8 C21.51072 8 23.8999 8 23.99998 8 C25.72254 8.0282 27.46582 8.15847 29.00705 8.97554 C29.90598 9.47892 30.58541 10.13923 31.05656 11.05466 C32.16822 13.34211 32 15.93968 32 18.41563 C32 19.21468 32 20.01373 32 20.81278 C32 23.02737 32.23722 25.28703 31.4076 27.38126 C31.06608 28.19073 30.64307 28.91296 30.06848 29.5771 C29.27092 30.45145 28.42009 31.21039 27.38408 31.77878 C27.18248 31.88939 27.11527 31.92626 26.98087 32 zM8 40 C10.30495 40 12.6099 40 14.91486 40 C17.40957 40 19.90428 40 22.399 40 C22.69369 40 22.84103 40 23.28306 40 C25.07428 40.67097 26.77162 41.33916 28.37108 42.38672 C29.41686 43.10954 30.38654 43.87618 31.09442 44.94049 C32.17345 46.6512 32 48.43554 32 50.41563 C32 51.21468 32 52.01373 32 52.81278 C32 55.53317 32.34089 58.5239 31.02446 61.00705 C30.52108 61.90598 29.86077 62.58541 28.94534 63.05656 C27.40929 63.80305 25.70005 64 24 64 C22.44417 64 20.88833 64 19.3325 64 C17.25357 64 15.17464 64 13.09571 64 C11.39714 64 9.69857 64 8 64 C8 60.35466 8 56.70933 8 53.06399 C8 50.84647 8 48.62894 8 46.41142 L8 40 z" />
<glyph unicode="C" horiz-adv-x="50" d="M16.0002 72 C19.03204 72 22.06388 72 25.09571 72 C27.17464 72 29.25357 72 31.3325 72 C32.88833 72 34.44417 72 36 72 C36 69.33333 36 66.66667 36 64 C35.13714 64 34.27428 64 33.41143 64 C32.71845 64 32.02547 64 31.3325 64 C29.25357 64 27.17464 64 25.09571 64 C23.01678 64 20.93786 64 18.85893 64 C16.2455 64 13.38162 64.2908 10.99295 63.02446 C10.09402 62.52108 9.41459 61.86077 8.94344 60.94534 C8.19693 59.40925 8 57.69282 8 56 C8 53.16669 8 50.33338 8 47.50006 C8 43.96511 8 40.43016 8 36.89521 C8 32.53609 8 28.17697 8 23.81786 C8 20.48549 7.09634 14.53765 8.97554 10.99295 C9.47892 10.09402 10.13923 9.41459 11.05466 8.94344 C12.59071 8.19695 14.29995 8 16 8 C17.41666 8 18.83331 8 20.24997 8 C22.01744 8 23.78492 8 25.5524 8 C29.03483 8 32.51727 8 35.9997 8 L35.9997 0 C34.69682 0 33.39395 0 32.09107 0 C29.91151 0 27.73196 0 25.5524 0 C23.78492 0 22.01744 0 20.24997 0 C19.38325 0 16.39977 -0.00001 15.99974 0 C13.06172 0.11063 10.31512 0.40058 7.65738 1.70061 C5.27746 2.93186 3.38235 4.62014 2.06745 6.95832 C-0.68785 12.13881 0 18.16155 0 23.81786 C0 28.17697 0 32.53609 0 36.89521 C0 40.43016 0 43.96511 0 47.50006 C0 53.09494 -0.83521 59.15847 1.70061 64.34262 C2.93186 66.72254 4.62014 68.61765 6.95832 69.93255 C9.43545 71.25005 12.04544 71.9125 14.83728 71.97432 C15.46715 71.98827 15.99915 72 16.0002 72 z" />
<glyph unicode="D" horiz-adv-x="50" d="M4.0003 72 C5.30318 72 6.60605 72 7.90893 72 C10.08849 72 12.26804 72 14.4476 72 C16.21508 72 17.98256 72 19.75003 72 C20.61668 72 23.60025 72 24.00026 72 C26.93828 71.88937 29.68488 71.59942 32.34262 70.29939 C34.72254 69.06814 36.61765 67.37986 37.93255 65.04168 C40.68785 59.86119 40 53.83845 40 48.18214 C40 43.82303 40 39.46391 40 35.10479 C40 31.56984 40 28.03489 40 24.49994 C40 18.90506 40.83521 12.84153 38.29939 7.65738 C37.06814 5.27746 35.37986 3.38235 33.04168 2.06745 C32.84363 1.96211 29.49987 0 23.9998 0 C20.96796 0 17.93612 0 14.90429 0 C12.82536 0 10.74643 0 8.6675 0 C5.77834 0 2.88917 0 -0 0 C-0 1.33355 -0 2.66709 0 4.00064 C0 13.70252 0 23.4044 0 33.10628 C0 39.75885 0 46.41142 0 53.06399 C0 59.37599 -0 65.688 0 72 C1.33343 72 2.66687 72 4.0003 72 zM8 8 C8.33375 8 8.33375 8 8.6675 8 C10.74643 8 12.82536 8 14.90429 8 C16.98322 8 19.06214 8 21.14107 8 C22.74396 8 23.0499 8 23.99998 8 C25.72254 8.0282 27.46582 8.15847 29.00705 8.97554 C29.90598 9.47892 30.58541 10.13923 31.05656 11.05466 C31.80307 12.59075 32 14.30718 32 16 C32 18.83331 32 21.66662 32 24.49994 C32 28.03489 32 31.56984 32 35.10479 C32 39.46391 32 43.82303 32 48.18214 C32 51.51451 32.90366 57.46235 31.02446 61.00705 C30.52108 61.90598 29.86077 62.58541 28.94534 63.05656 C27.40929 63.80305 25.70005 64 24 64 C22.58334 64 21.16669 64 19.75003 64 C17.98256 64 16.21508 64 14.4476 64 C12.2984 64 10.1492 64 8 64 C8 60.35466 8 56.70933 8 53.06399 C8 46.41142 8 39.75885 8 33.10628 C8 26.45371 8 19.80114 8 13.14857 L8 8 z" />
<glyph unicode="E" horiz-adv-x="50" d="M8 8 C9.46717 8 10.93434 8 12.4015 8 C16.14358 8 19.88565 8 23.62772 8 C29.08502 8 34.54233 8 39.99964 8 L39.99964 0 C38.2844 0 36.56917 0 34.85393 0 C31.11186 0 27.36979 0 23.62772 0 C19.88565 0 16.14358 0 12.4015 0 C8.26767 0 4.13383 0 -0 0 C-0 1.33355 -0 2.66709 0 4.00064 C0 13.70252 0 23.4044 0 33.10628 C0 39.75885 0 46.41142 0 53.06399 C0 59.37599 -0 65.688 0 72 C1.33345 72 2.66691 72 4.00036 72 C9.45767 72 14.91498 72 20.37228 72 C24.11435 72 27.85642 72 31.5985 72 C34.399 72 37.1995 72 40 72 C40 69.33333 40 66.66667 40 64 C38.44686 64 36.89371 64 35.34057 64 C34.09321 64 32.84585 64 31.5985 64 C27.85642 64 24.11435 64 20.37228 64 C16.24819 64 12.12409 64 8 64 C8 60.35466 8 56.70933 8 53.06399 C8 46.41142 8 39.75885 8 33.10628 C8 26.45371 8 19.80114 8 13.14857 C8 10.57429 8 9.71619 8 8 zM36 32 C34.61943 32 33.23885 32 31.85828 32 C30.74952 32 29.64076 32 28.532 32 C25.20571 32 21.87943 32 18.55314 32 C13.7022 32 8.85126 32 4.00032 32 L4.00032 40 C5.52498 40 7.04963 40 8.57429 40 C11.90057 40 15.22686 40 18.55314 40 C21.87943 40 25.20571 40 28.532 40 C31.02133 40 33.51067 40 36 40 L36 32 z" />
<glyph unicode="F" horiz-adv-x="50" d="M8 64 C8 60.0435 8 56.08699 8 52.13049 C8 45.06213 8 37.99378 8 30.92542 C8 20.61718 8 10.30893 8 0.00068 L0 0.00068 C0 3.24057 0 6.48046 0 9.72036 C0 16.78871 0 23.85707 0 30.92542 C0 37.99378 0 45.06213 0 52.13049 C0 58.75366 0 65.37683 0 72 C1.33345 72 2.66691 72 4.00036 72 C9.45767 72 14.91498 72 20.37228 72 C24.11435 72 27.85642 72 31.5985 72 C34.399 72 37.1995 72 40 72 C40 69.33333 40 66.66667 40 64 C38.44686 64 36.89371 64 35.34057 64 C34.09321 64 32.84585 64 31.5985 64 C27.85642 64 24.11435 64 20.37228 64 C16.63021 64 12.88814 64 9.14607 64 C8.57304 64 8.38202 64 8 64 zM4 40 C5.208 40 6.416 40 7.624 40 C8.59417 40 9.56434 40 10.5345 40 C13.445 40 16.3555 40 19.266 40 C23.51057 40 27.75515 40 31.99972 40 L31.99972 32 C30.66565 32 29.33157 32 27.9975 32 C25.087 32 22.1765 32 19.266 32 C16.3555 32 13.445 32 10.5345 32 C8.35634 32 6.17817 32 4 32 L4 40 z" />
<glyph unicode="G" horiz-adv-x="50" d="M16.0002 72 C18.65615 72 21.3121 72 23.96805 72 C25.96567 72 27.9633 72 29.96092 72 C31.97395 72 33.98697 72 36 72 C36 69.33333 36 66.66667 36 64 C34.81016 64 33.62033 64 32.43049 64 C31.6073 64 30.78411 64 29.96092 64 C27.9633 64 25.96567 64 23.96805 64 C22.20663 64 20.44522 64 18.6838 64 C16.11859 64 13.33403 64.26557 10.99295 63.02446 C10.09402 62.52108 9.41459 61.86077 8.94344 60.94534 C8.19693 59.40925 8 57.69282 8 56 C8 51.97395 8 47.94789 8 43.92184 C8 39.92659 8 35.93134 8 31.93609 C8 28.41326 8 24.89043 8 21.3676 C8 18.22179 7.38008 14.00243 8.97554 10.99295 C9.47892 10.09402 10.13923 9.41459 11.05466 8.94344 C12.59071 8.19695 14.29995 8 16 8 C17.55583 8 19.11167 8 20.6675 8 C22.74643 8 24.82536 8 26.90429 8 C28.60286 8 30.30143 8 32 8 C32 9.156 32 10.312 32 11.468 C32 14.79429 32 18.12057 32 21.44686 C32 24.96457 32 28.48229 32 32 C31.15248 32 30.30495 32 29.45743 32 C27.63833 32 25.81922 32 24.00012 32 L24.00012 40 C24.57187 40 25.14361 40 25.71536 40 C26.96271 40 28.21007 40 29.45743 40 C30.70478 40 31.95214 40 33.1995 40 C35.46633 40 37.73317 40 40 40 C40 38.66656 40 37.33312 40 35.99968 C40 31.14874 40 26.2978 40 21.44686 C40 18.12057 40 14.79429 40 11.468 C40 7.64534 40 3.82267 40 0 C38.6666 0 37.3332 0 35.9998 0 C32.96796 0 29.93612 0 26.90429 0 C24.82536 0 22.74643 0 20.6675 0 C19.61161 0 15.99977 0 15.99974 0 C13.06172 0.11063 10.31512 0.40058 7.65738 1.70061 C5.27746 2.93186 3.38235 4.62014 2.06745 6.95832 C-0.33412 11.47372 0 16.38866 0 21.3676 C0 24.89043 0 28.41326 0 31.93609 C0 35.93134 0 39.92659 0 43.92184 C0 50.4716 -1.31441 58.17881 1.70061 64.34262 C2.93186 66.72254 4.62014 68.61765 6.95832 69.93255 C9.43545 71.25005 12.04544 71.9125 14.83728 71.97432 C15.46717 71.98827 15.99916 72 16.0002 72 z" />
<glyph unicode="H" horiz-adv-x="50" d="M0 0 C0 3.10629 0 6.21258 0 9.31887 C0 11.81358 0 14.3083 0 16.80301 C0 24.28715 0 31.77129 0 39.25543 C0 50.17005 0 61.08466 0 71.99928 L8 71.99928 C8 68.56881 8 65.13833 8 61.70786 C8 54.22372 8 46.73958 8 39.25543 C8 31.77129 8 24.28715 8 16.80301 C8 11.20201 8 5.601 8 0 L0 0 zM40 72 C40 68.89371 40 65.78742 40 62.68113 C40 60.18642 40 57.6917 40 55.19699 C40 47.71285 40 40.22871 40 32.74457 C40 21.82995 40 10.91534 40 0.00072 L32 0.00072 C32 3.43119 32 6.86167 32 10.29214 C32 17.77628 32 25.26042 32 32.74457 C32 40.22871 32 47.71285 32 55.19699 C32 60.79799 32 66.399 32 72 L40 72 zM36 32 C34.61943 32 33.23885 32 31.85828 32 C30.74952 32 29.64076 32 28.532 32 C25.20571 32 21.87943 32 18.55314 32 C13.7022 32 8.85126 32 4.00032 32 L4.00032 40 C5.52498 40 7.04963 40 8.57429 40 C11.90057 40 15.22686 40 18.55314 40 C21.87943 40 25.20571 40 28.532 40 C31.02133 40 33.51067 40 36 40 L36 32 z" />
<glyph unicode="I" horiz-adv-x="50" d="M36 0 C34.61943 0 33.23885 0 31.85828 0 C30.74952 0 29.64076 0 28.532 0 C25.20571 0 21.87943 0 18.55314 0 C13.7022 0 8.85126 0 4.00032 0 L4.00032 8 C5.52498 8 7.04963 8 8.57429 8 C11.90057 8 15.22686 8 18.55314 8 C21.87943 8 25.20571 8 28.532 8 C31.02133 8 33.51067 8 36 8 L36 0 zM4 72 C5.38057 72 6.76115 72 8.14172 72 C9.25048 72 10.35924 72 11.468 72 C14.79429 72 18.12057 72 21.44686 72 C26.2978 72 31.14874 72 35.99968 72 L35.99968 64 C34.47502 64 32.95037 64 31.42571 64 C28.09943 64 24.77314 64 21.44686 64 C18.12057 64 14.79429 64 11.468 64 C8.97867 64 6.48933 64 4 64 L4 72 zM16 8 C16 10.416 16 12.83201 16 15.24801 C16 17.18834 16 19.12867 16 21.06901 C16 26.89001 16 32.71101 16 38.532 C16 47.02115 16 55.51029 16 63.99944 L24 63.99944 C24 61.33129 24 58.66315 24 55.995 C24 50.174 24 44.353 24 38.532 C24 32.71101 24 26.89001 24 21.06901 C24 16.71267 24 12.35634 24 8 L16 8 z" />
<glyph unicode="J" horiz-adv-x="50" d="M32 63.99922 C31.67862 63.99916 31.67862 63.99916 31.35725 63.99909 C29.289 63.99869 27.22074 63.99829 25.15249 63.99788 C22.13622 63.9973 19.11996 63.99671 16.10369 63.99612 L16.10213 71.99612 C17.05014 71.9963 17.99816 71.99649 18.94618 71.99667 C21.01443 71.99708 23.08268 71.99748 25.15093 71.99788 C27.21918 71.99829 29.28744 71.99869 31.35569 71.99909 C34.23712 71.99966 37.11856 72.00022 40 72.00078 C40 70.66693 40 69.33307 40 67.99922 C40 58.94489 40 49.89056 40 40.83623 C40 36.24079 40 31.64536 40 27.04992 C40 20.77386 41.17582 13.53785 38.29939 7.65738 C37.06814 5.27746 35.37986 3.38235 33.04168 2.06745 C32.84363 1.96211 29.49987 0 23.9998 0 C20.96796 0 17.93612 0 14.90429 0 C12.82536 0 10.74643 0 8.6675 0 C7.11167 0 5.55583 0 4 0 L4 8 C4.86286 8 5.72572 8 6.58857 8 C7.28155 8 7.97453 8 8.6675 8 C10.74643 8 12.82536 8 14.90429 8 C16.98322 8 19.06214 8 21.14107 8 C23.7545 8 26.61838 7.7092 29.00705 8.97554 C29.90598 9.47892 30.58541 10.13923 31.05656 11.05466 C31.80307 12.59075 32 14.30718 32 16 C32 19.68331 32 23.36661 32 27.04992 C32 31.64536 32 36.24079 32 40.83623 C32 46.50308 32 52.16994 32 57.83679 C32 60.918 32 61.94508 32 63.99922 z" />
<glyph unicode="K" horiz-adv-x="50" d="M0 0 C0 3.10629 0 6.21258 0 9.31887 C0 11.81358 0 14.3083 0 16.80301 C0 24.28715 0 31.77129 0 39.25543 C0 50.17005 0 61.08466 0 71.99928 L8 71.99928 C8 68.56881 8 65.13833 8 61.70786 C8 54.22372 8 46.73958 8 39.25543 C8 31.77129 8 24.28715 8 16.80301 C8 11.20201 8 5.601 8 0 L0 0 zM42.17951 9.86554 C42.72937 8.53258 43.16548 7.20005 43.45403 5.78762 C43.8111 3.84174 43.92255 1.98665 44 0.00001 C41.33333 0 38.66667 -0 36 -0.00001 C35.97866 0.61068 35.9683 1.22185 35.93599 1.83206 C35.86628 2.5788 35.78889 3.31174 35.64552 4.04774 C35.46018 4.90197 35.2463 5.727 34.90679 6.53276 C34.41384 7.63565 33.79516 8.54797 32.93747 9.40569 C32.87333 9.49547 32.8092 9.58526 32.74507 9.67505 C31.18923 11.85322 29.6334 14.03138 28.07756 16.20955 C25.99864 19.12005 23.91971 22.03055 21.84078 24.94105 C18.80894 29.18562 15.7771 33.43019 12.74527 37.67477 L19.25513 42.32467 C20.20804 40.9906 21.16095 39.65653 22.11386 38.32245 C24.19279 35.41195 26.27172 32.50145 28.35065 29.59095 C30.42957 26.68046 32.5085 23.76996 34.58743 20.85946 C36.01592 18.85957 37.35962 16.79873 38.82852 14.82833 C39.90519 13.38409 41.04338 12.21452 41.85014 10.57474 C41.9652 10.34086 42.07491 10.10428 42.17951 9.86554 zM34.82844 57.17159 C31.12069 52.27774 27.31704 47.50174 23.30452 42.85502 C20.31001 39.43864 17.29536 36.05375 14.18119 32.74606 C9.60943 27.95633 12.05584 30.48552 6.82843 25.17157 C4.94281 27.05719 3.05719 28.94281 1.17157 30.82843 C2.50819 32.18688 3.85388 33.53647 5.18144 34.90378 C6.23646 35.99038 7.28073 37.08744 8.31911 38.18995 C11.33181 41.4335 14.31719 44.68878 17.21112 48.0387 C21.26323 52.80089 25.21757 57.62346 28.97056 62.62741 C29.03756 62.69441 29.10456 62.76141 29.17156 62.82841 C29.72381 63.40456 30.1815 64.01417 30.55345 64.71955 C31.0022 65.61962 31.33083 66.53387 31.55293 67.51402 C31.8601 69.01074 31.9557 70.4717 32 71.99985 C34.66667 71.99984 37.33333 71.99984 40 71.99983 C39.98307 71.38129 39.97777 70.76231 39.9492 70.1442 C39.84226 68.72449 39.70035 67.33676 39.39767 65.9456 C39.00299 64.29597 38.51507 62.72798 37.74532 61.2157 C37.12574 60.06347 36.48939 58.96352 35.59999 58.00399 C35.21422 57.58779 35.08563 57.44905 34.82844 57.17159 z" />
<glyph unicode="L" horiz-adv-x="50" d="M8 8 C9.46717 8 10.93434 8 12.4015 8 C16.14358 8 19.88565 8 23.62772 8 C29.08502 8 34.54233 8 39.99964 8 L39.99964 0 C38.2844 0 36.56917 0 34.85393 0 C31.11186 0 27.36979 0 23.62772 0 C19.88565 0 16.14358 0 12.4015 0 C8.26767 0 4.13383 0 -0 0 C-0 1.33356 -0 2.66712 0 4.00068 C0 14.30893 0 24.61718 0 34.92542 C0 41.99378 0 49.06213 0 56.13049 C0 61.42033 0 66.71016 0 72 C2.66667 72 5.33333 72 8 72 C8 69.06628 8 66.13256 8 63.19885 C8 60.84273 8 58.48661 8 56.13049 C8 49.06213 8 41.99378 8 34.92542 C8 27.85707 8 20.78871 8 13.72036 C8 10.86018 8 9.90679 8 8 z" />
<glyph unicode="M" horiz-adv-x="50" d="M19.81461 40.37471 C20.57839 42.7256 21.34217 45.0765 22.10596 47.42739 C23.4568 51.58525 24.80765 55.7431 26.1585 59.90096 C27.46879 63.93397 28.77907 67.96699 30.08936 72 C31.05812 72 32.02688 72 32.99564 72 C33.45108 72 33.90652 72 34.36196 72 C34.67426 72 34.98655 72 35.29885 72 C36.8659 72 38.43295 72 40 72 C40 70.66644 40 69.33288 40 67.99932 C40 57.69107 40 47.38282 40 37.07458 C40 30.00622 40 22.93787 40 15.86951 C40 10.57967 40 5.28984 40 0 L32 0 C32 2.93372 32 5.86744 32 8.80115 C32 11.15727 32 13.51339 32 15.86951 C32 22.93787 32 30.00622 32 37.07458 C32 42.04646 32 47.01834 32 51.99022 C31.23816 49.6453 30.47632 47.30038 29.71448 44.95546 C27.15961 37.09168 24.60475 29.2279 22.04988 21.36412 L18.1499 21.30549 C17.51142 23.0872 16.87295 24.86891 16.23447 26.65063 C15.11941 29.7623 14.00435 32.87396 12.88928 35.98563 C11.39932 40.14349 9.90936 44.30135 8.41939 48.4592 C8.2097 49.04437 8.1398 49.23943 8 49.62955 C8 43.39484 8 37.16013 8 30.92542 C8 20.61718 8 10.30893 8 0.00068 L0 0.00068 C0 3.24057 0 6.48046 0 9.72036 C0 16.78871 0 23.85707 0 30.92542 C0 37.99378 0 45.06213 0 52.13049 C0 58.75366 -0 65.37683 0 72 C1.33334 72 2.66668 72 4.00002 72 C4.25257 72 4.50513 72 4.75769 72 C4.93087 72 5.10405 72 5.27723 72 C6.34539 72 7.41355 72 8.48172 72 C8.79838 71.11632 9.11505 70.23265 9.43171 69.34897 C11.60462 63.2853 13.77753 57.22162 15.95045 51.15795 C16.94376 48.38604 17.93706 45.61414 18.93037 42.84223 C19.37249 41.60847 19.51986 41.19722 19.81461 40.37471 z" />
<glyph unicode="N" horiz-adv-x="50" d="M31.905 18.84476 C31.905 24.20498 31.905 29.5652 31.905 34.92542 C31.905 41.99378 31.905 49.06213 31.905 56.13049 C31.905 61.42033 31.905 66.71016 31.905 72 C34.635 72 37.365 72 40.095 72 C40.095 69.06628 40.095 66.13256 40.095 63.19885 C40.095 60.84273 40.095 58.48661 40.095 56.13049 C40.095 49.06213 40.095 41.99378 40.095 34.92542 C40.095 23.25195 40.095 11.57847 40.095 -0.095 C38.73 -0.095 37.365 -0.095 36 -0.095 C35.82316 -0.095 35.64632 -0.095 35.46948 -0.095 C35.23318 -0.095 34.99688 -0.095 34.76059 -0.095 C33.51056 -0.095 32.26053 -0.095 31.0105 -0.095 C30.65837 0.73913 30.30625 1.57327 29.95412 2.4074 C27.85239 7.38607 25.75066 12.36474 23.64893 17.34341 C20.84057 23.99598 18.03221 30.64855 15.22385 37.30112 C12.87923 42.85515 10.53462 48.40918 8.19 53.9632 C8.19 53.04685 8.19 53.04685 8.19 52.13049 C8.19 45.06213 8.19 37.99378 8.19 30.92542 C8.19 20.61718 8.19 10.30893 8.19 0.00068 L-0 0.00068 C-0 3.24057 -0 6.48046 -0 9.72036 C-0 16.78871 -0 23.85707 -0 30.92542 C-0 37.99378 -0 45.06213 -0 52.13049 C-0 58.78533 -0 65.44016 0 72.095 C1.36501 72.095 2.73002 72.095 4.09503 72.095 C4.49134 72.095 4.88765 72.095 5.28396 72.095 C5.55572 72.095 5.82747 72.095 6.09922 72.095 C7.208 72.095 8.31679 72.095 9.42558 72.095 C9.7778 71.26065 10.13001 70.42631 10.48223 69.59196 C14.57785 59.89008 18.67347 50.1882 22.76908 40.48632 C25.57745 33.83375 28.38581 27.18118 31.19417 20.52861 C31.54958 19.68668 31.66806 19.40604 31.905 18.84476 z" />
<glyph unicode="O" horiz-adv-x="50" d="M16.14074 -0.095 C16.15592 -0.09466 16.1711 -0.09432 16.18627 -0.09398 C13.1217 -0.04547 10.26255 0.2316 7.51403 1.64348 C5.37411 2.80454 3.6559 4.33699 2.39394 6.41925 C0.71521 9.35017 0.05791 12.60363 -0 15.96472 C-0 15.97662 -0 15.98851 -0 16.0004 C-0 21.3123 -0 26.62419 -0 31.93609 C-0 35.93134 -0 39.92659 -0 43.92184 C-0 50.48934 -1.31187 58.20433 1.70961 64.38296 C2.9496 66.78044 4.65028 68.68978 7.00541 70.01459 C7.08611 70.05752 10.64507 72.09502 16.09508 72.095 C16.47624 72.095 16.85741 72.095 17.23857 72.095 C18.07014 72.095 18.90171 72.095 19.73329 72.095 C20.56486 72.095 21.39643 72.095 22.228 72.095 C22.95039 72.095 23.99523 72.095 24.09526 72.095 C27.0476 71.98389 29.8072 71.69145 32.47796 70.38539 C34.87544 69.1454 36.78478 67.44472 38.10959 65.08959 C40.52064 60.55761 40.19 55.63057 40.19 50.6324 C40.19 47.10957 40.19 43.58674 40.19 40.06391 C40.19 36.06866 40.19 32.07341 40.19 28.07816 C40.19 21.51066 41.50187 13.79567 38.48039 7.61704 C37.2404 5.21956 35.53972 3.31022 33.18459 1.98541 C33.10391 1.94249 29.54495 -0.095 24.09492 -0.095 C23.03254 -0.095 21.97016 -0.095 20.90778 -0.095 C20.10873 -0.095 19.30968 -0.095 18.51063 -0.095 C18.18136 -0.095 17.85208 -0.095 17.5228 -0.095 C17.06212 -0.095 16.60143 -0.095 16.14074 -0.095 zM8.19 16.0004 C8.26273 14.19905 8.41982 12.37151 9.32475 10.78273 C9.78625 10.01608 10.35554 9.41433 11.1421 8.98604 C12.64987 8.20852 14.37621 8.05762 16.04926 8.095 C16.06451 8.095 16.07975 8.095 16.095 8.095 C16.90021 8.095 17.70542 8.095 18.51063 8.095 C19.30968 8.095 20.10873 8.095 20.90778 8.095 C23.60933 8.095 26.58687 7.7519 29.05414 9.05757 C29.93636 9.5507 30.60283 10.1972 31.06555 11.095 C31.80661 12.61778 32 14.3218 32 16 C32 20.02605 32 24.05211 32 28.07816 C32 32.07341 32 36.06866 32 40.06391 C32 43.58674 32 47.10957 32 50.6324 C32 53.75179 32.62044 57.96778 31.03743 60.95914 C30.5443 61.84136 29.8978 62.50783 29 62.97055 C28.46635 63.23025 26.94505 63.905 24.095 63.905 C23.47267 63.905 22.85033 63.905 22.228 63.905 C21.39643 63.905 20.56486 63.905 19.73329 63.905 C18.5209 63.905 17.30851 63.905 16.09612 63.905 C14.40098 63.905 12.65032 63.74387 11.13586 62.94243 C10.25364 62.4493 9.58717 61.8028 9.12445 60.905 C8.38339 59.38222 8.19 57.6782 8.19 56 C8.19 51.97395 8.19 47.94789 8.19 43.92184 C8.19 39.92659 8.19 35.93134 8.19 31.93609 C8.19 28.41326 8.19 24.89043 8.19 21.3676 C8.19 19.57853 8.19 17.78947 8.19 16.0004 z" />
<glyph unicode="P" horiz-adv-x="50" d="M23.99984 31.905 C21.58877 31.905 19.1777 31.905 16.76663 31.905 C15.11337 31.905 13.4601 31.905 11.80683 31.905 C10.60122 31.905 9.39561 31.905 8.19 31.905 C8.19 31.57847 8.19 31.41521 8.19 30.92542 C8.19 20.61718 8.19 10.30893 8.19 0.00068 L-0 0.00068 C-0 3.24057 -0 6.48046 -0 9.72036 C-0 16.78871 -0 23.85707 -0 30.92542 C-0 37.99378 -0 45.06213 -0 52.13049 C-0 58.78533 -0 65.44016 0 72.095 C1.3651 72.095 2.7302 72.095 4.0953 72.095 C7.56119 72.095 11.02708 72.095 14.49298 72.095 C16.25206 72.095 18.01114 72.095 19.77022 72.095 C20.4802 72.095 24.70029 72.09499 24.00026 72.095 C26.9526 71.98389 29.7122 71.69145 32.38296 70.38539 C34.78044 69.1454 36.68978 67.44472 38.01459 65.08959 C40.23375 60.91829 40.095 56.41956 40.095 51.82096 C40.095 51.11397 40.095 50.40698 40.095 49.69999 C40.095 46.18663 39.94639 42.80912 38.38539 39.61704 C37.1454 37.21956 35.44472 35.31022 33.08959 33.98541 C30.59914 32.66047 27.97554 31.99302 25.16845 31.93085 C24.53475 31.91682 24.00023 31.905 23.99984 31.905 zM8.19 63.905 C8.19 59.98016 8.19 56.05533 8.19 52.13049 C8.19 48.11866 8.19 44.10683 8.19 40.095 C9.39561 40.095 10.60122 40.095 11.80683 40.095 C13.4601 40.095 15.11337 40.095 16.76663 40.095 C18.4199 40.095 20.07317 40.095 21.72644 40.095 C22.03395 40.095 23.99965 40.095 23.99998 40.095 C25.70508 40.12271 27.43278 40.24983 28.95914 41.05757 C29.84136 41.5507 30.50783 42.1972 30.97055 43.095 C31.97381 45.15657 31.905 47.45896 31.905 49.69999 C31.905 50.40698 31.905 51.11397 31.905 51.82096 C31.905 54.7968 32.38881 58.22596 30.94243 60.95914 C30.4493 61.84136 29.8028 62.50783 28.905 62.97055 C28.37131 63.23027 26.85001 63.90532 24 63.905 C22.59007 63.905 21.18015 63.905 19.77022 63.905 C18.01114 63.905 16.25206 63.905 14.49298 63.905 C13.12967 63.905 11.76636 63.905 10.40305 63.905 C9.29653 63.905 8.92768 63.905 8.19 63.905 z" />
<glyph unicode="Q" horiz-adv-x="50" d="M16.09508 72.095 C16.47172 72.095 16.84835 72.095 17.22499 72.095 C18.04669 72.095 18.86838 72.095 19.69008 72.095 C20.51178 72.095 21.33347 72.095 22.15517 72.095 C22.30164 72.095 23.65019 72.09501 24.00026 72.095 C26.9526 71.98389 29.7122 71.69145 32.38296 70.38539 C34.78044 69.1454 36.68978 67.44472 38.01459 65.08959 C40.42564 60.55761 40.095 55.63057 40.095 50.6324 C40.095 47.10957 40.095 43.58674 40.095 40.06391 C40.095 36.06866 40.095 32.07341 40.095 28.07816 C40.095 21.51066 41.40687 13.79567 38.38539 7.61704 C37.1454 5.21956 35.44472 3.31022 33.08959 1.98541 C32.8862 1.87721 29.54995 -0.095 23.99992 -0.095 C22.95016 -0.095 21.90039 -0.095 20.85063 -0.095 C20.06107 -0.095 19.27151 -0.095 18.48195 -0.095 C16.88624 -0.095 16.09477 -0.095 16.09474 -0.095 C13.1424 0.01611 10.3828 0.30855 7.71204 1.61461 C5.31456 2.8546 3.40522 4.55528 2.08041 6.91041 C-0.33064 11.44239 -0 16.36943 -0 21.3676 C-0 24.89043 -0 28.41326 -0 31.93609 C-0 35.93134 -0 39.92659 -0 43.92184 C-0 50.48934 -1.31187 58.20433 1.70961 64.38296 C2.9496 66.78044 4.65028 68.68978 7.00541 70.01459 C7.0861 70.05752 10.64506 72.09501 16.09508 72.095 zM16.09987 63.905 C14.4034 63.905 12.65157 63.74453 11.13586 62.94243 C10.25364 62.4493 9.58717 61.8028 9.12445 60.905 C8.38339 59.38222 8.19 57.6782 8.19 56 C8.19 51.97395 8.19 47.94789 8.19 43.92184 C8.19 39.92659 8.19 35.93134 8.19 31.93609 C8.19 28.41326 8.19 24.89043 8.19 21.3676 C8.19 18.24822 7.56956 14.03222 9.15257 11.04086 C9.6457 10.15864 10.2922 9.49217 11.19 9.02945 C11.72365 8.76975 13.24495 8.095 16.095 8.095 C16.89065 8.095 17.6863 8.095 18.48195 8.095 C19.27151 8.095 20.06107 8.095 20.85063 8.095 C23.5414 8.095 26.50217 7.75735 28.95914 9.05757 C29.84136 9.5507 30.50783 10.1972 30.97055 11.095 C31.71161 12.61778 31.905 14.3218 31.905 16 C31.905 20.02605 31.905 24.05211 31.905 28.07816 C31.905 32.07341 31.905 36.06866 31.905 40.06391 C31.905 43.58674 31.905 47.10957 31.905 50.6324 C31.905 53.75178 32.52544 57.96778 30.94243 60.95914 C30.4493 61.84136 29.8028 62.50783 28.905 62.97055 C27.84239 63.48767 26.65593 63.77646 25.47615 63.84573 C25.21546 63.86104 24.15027 63.905 24 63.905 C23.38506 63.905 22.77011 63.905 22.15517 63.905 C21.33347 63.905 20.51178 63.905 19.69008 63.905 C18.86838 63.905 18.04669 63.905 17.22499 63.905 C16.66243 63.905 16.47491 63.905 16.09987 63.905 zM41.1044 -6.8956 C40.58668 -6.37789 40.06897 -5.86017 39.55125 -5.34246 C39.13547 -4.92667 38.71968 -4.51089 38.3039 -4.0951 C37.05654 -2.84774 35.80918 -1.60039 34.56183 -0.35303 C32.74272 1.46607 30.92362 3.28518 29.10452 5.10428 L34.89572 10.89548 C35.46747 10.32374 36.03921 9.75199 36.61096 9.18025 C37.85832 7.93289 39.10567 6.68553 40.35303 5.43817 C41.60039 4.19082 42.84774 2.94346 44.0951 1.6961 C45.0286 0.7626 45.9621 -0.1709 46.8956 -1.1044 L41.1044 -6.8956 z" />
<glyph unicode="R" horiz-adv-x="50" d="M43.69 51.82096 C43.69 51.11397 43.69 50.40698 43.69 49.69999 C43.69 46.18663 43.54139 42.80912 41.98039 39.61704 C40.7404 37.21956 39.03972 35.31022 36.68459 33.98541 C36.60386 33.94246 33.04482 31.90498 27.5948 31.905 C24.56296 31.905 21.53112 31.905 18.49929 31.905 C16.42036 31.905 14.34143 31.905 12.2625 31.905 C11.97625 31.905 11.88083 31.905 11.69 31.905 C11.69 31.57847 11.69 31.41521 11.69 30.92542 C11.69 20.61718 11.69 10.30893 11.69 0.00068 L3.5 0.00068 C3.5 3.24057 3.5 6.48046 3.5 9.72036 C3.5 16.78871 3.5 23.85707 3.5 30.92542 C3.5 37.99378 3.5 45.06213 3.5 52.13049 C3.5 58.78533 3.5 65.44016 3.5 72.095 C4.865 72.095 6.23001 72.095 7.59501 72.095 C9.04082 72.095 10.48663 72.095 11.93244 72.095 C14.45303 72.095 16.97361 72.095 19.49419 72.095 C21.10313 72.095 25.64516 72.09503 27.59527 72.095 C30.59456 71.98549 33.41014 71.70602 36.13237 70.39712 C38.49489 69.19467 40.39357 67.55196 41.70902 65.24535 C43.85909 61.2595 43.69 57.01266 43.69 52.6019 C43.69 52.34158 43.69 52.08127 43.69 51.82096 zM11.69 63.905 C11.69 59.98016 11.69 56.05533 11.69 52.13049 C11.69 48.11866 11.69 44.10683 11.69 40.095 C11.97625 40.095 12.07167 40.095 12.2625 40.095 C14.34143 40.095 16.42036 40.095 18.49929 40.095 C20.57822 40.095 22.65714 40.095 24.73607 40.095 C27.32992 40.095 30.18158 39.80202 32.55414 41.05757 C33.43636 41.5507 34.10283 42.1972 34.56555 43.095 C35.56881 45.15657 35.5 47.45896 35.5 49.69999 C35.5 50.40698 35.5 51.11397 35.5 51.82096 C35.5 53.237 35.5 54.65303 35.5 56.06907 C35.50078 56.09208 35.50155 56.1151 35.50233 56.13811 C35.53408 57.82366 35.46668 59.56328 34.66038 61.07488 C34.18894 61.91162 33.55961 62.52572 32.70482 62.95883 C31.59657 63.48852 30.36024 63.77567 29.13456 63.84529 C28.58234 63.87665 27.74509 63.905 27.595 63.905 C24.89473 63.905 22.19446 63.905 19.49419 63.905 C16.97361 63.905 14.45303 63.905 11.93244 63.905 C11.81122 63.905 11.77081 63.905 11.69 63.905 zM26.92724 38.38017 C28.28854 36.44349 29.66548 34.51772 31.01115 32.57015 C32.20887 30.8367 33.39224 29.0932 34.55713 27.33752 C37.38273 22.97776 40.1882 18.65648 42.66678 14.09106 C44.98615 9.57981 47.3517 5.12359 47.69 0.00021 C44.96 0.00018 42.23 0.00014 39.5 0.00011 C39.48367 0.19858 39.4727 0.39757 39.451 0.59552 C38.87169 4.0604 37.03861 7.31345 35.38769 10.33727 C32.94697 14.61215 30.40891 18.7805 27.68536 22.88164 C22.94095 29.8786 25.41168 26.2968 20.26276 33.61983 C22.48425 35.20661 24.70575 36.79339 26.92724 38.38017 z" />
<glyph unicode="S" horiz-adv-x="50" d="M23.99988 63.905 C22.62345 63.905 21.24702 63.905 19.87059 63.905 C19.17199 63.905 18.4734 63.905 17.7748 63.905 C17.61464 63.905 15.69462 63.90499 16.09478 63.905 C14.38783 63.83646 12.72644 63.76242 11.19 62.97055 C10.30361 62.48634 9.62531 61.85245 9.15257 60.95914 C7.76668 58.1948 8.19 54.7968 8.19 51.82096 C8.19 51.11397 8.19 50.40698 8.19 49.69999 C8.19 47.45896 8.07409 45.13297 9.12445 43.095 C9.60866 42.20861 10.24255 41.53031 11.13586 41.05757 C13.88692 39.67834 17.26199 40.095 20.22441 40.095 C20.92301 40.095 21.6216 40.095 22.3202 40.095 C22.48024 40.095 24.40029 40.09499 24.00026 40.095 C26.9526 39.98389 29.7122 39.69145 32.38296 38.38539 C34.78044 37.1454 36.68978 35.44472 38.01459 33.08959 C40.23375 28.91829 40.095 24.41956 40.095 19.82096 C40.095 19.11397 40.095 18.40698 40.095 17.69999 C40.095 17.12791 40.095 16.55584 40.095 15.98376 C40.09496 15.97828 40.09491 15.9728 40.09487 15.96732 C39.96098 13.00911 39.64644 10.24557 38.32322 7.57589 C37.07421 5.1922 35.37272 3.29165 33.02332 1.97275 C32.91879 1.91724 29.44995 -0.095 23.99992 -0.095 C22.75577 -0.095 21.51163 -0.095 20.26749 -0.095 C19.44467 -0.095 18.62184 -0.095 17.79901 -0.095 C17.19395 -0.095 16.58888 -0.095 15.98381 -0.095 C15.97835 -0.09496 15.97288 -0.09491 15.96742 -0.09487 C13.04846 0.03903 10.32865 0.35585 7.69738 1.66782 C5.30088 2.93088 3.40253 4.65373 2.08487 7.02228 C0.59676 9.85562 0.14143 12.78667 0.00021 15.95867 C2.73007 15.98622 5.45993 16.01378 8.18979 16.04133 C8.20401 15.67415 8.21131 15.30665 8.23246 14.93981 C8.3542 13.61082 8.55153 12.31293 9.17438 11.12289 C9.6732 10.22207 10.32357 9.53395 11.23501 9.05438 C12.74165 8.30438 14.33856 8.17726 16 8.095 C16.59967 8.095 17.19934 8.095 17.79901 8.095 C18.62184 8.095 19.44467 8.095 20.26749 8.095 C23.10245 8.095 26.3022 7.67649 28.89935 9.04869 C29.78705 9.54402 30.45772 10.19557 30.92815 11.0957 C31.69447 12.64587 31.82184 14.29305 31.905 16 C31.905 16.56666 31.905 17.13332 31.905 17.69999 C31.905 18.40698 31.905 19.11397 31.905 19.82096 C31.905 22.7968 32.38881 26.22596 30.94243 28.95914 C30.4493 29.84136 29.8028 30.50783 28.905 30.97055 C27.84239 31.48767 26.65593 31.77646 25.47615 31.84573 C25.2155 31.86104 24.15022 31.905 24 31.905 C23.44007 31.905 22.88013 31.905 22.3202 31.905 C21.6216 31.905 20.92301 31.905 20.22441 31.905 C18.84733 31.905 17.47025 31.905 16.09317 31.905 C12.8881 31.97603 9.82031 32.40198 7.00541 33.98541 C4.68209 35.36525 2.89536 37.19228 1.70961 39.61704 C0.22068 42.84337 -0 46.18663 -0 49.69999 C-0 50.40698 -0 51.11397 -0 51.82096 C-0 56.41956 -0.23607 60.97154 2.08041 65.08959 C3.46025 67.41291 5.28728 69.19964 7.71204 70.38539 C9.46866 71.19606 11.30081 71.70867 13.22479 71.93347 C13.52484 71.96852 13.82522 72.00396 14.12684 72.02094 C14.44422 72.0388 15.89466 72.095 16.095 72.095 C16.65493 72.095 17.21487 72.095 17.7748 72.095 C18.4734 72.095 19.17199 72.095 19.87059 72.095 C21.2477 72.095 22.62482 72.095 24.00194 72.095 C27.18494 72.02349 30.22676 71.59718 33.02332 70.02725 C35.34118 68.65368 37.12813 66.83528 38.32322 64.42411 C39.58659 61.7256 39.96098 58.99089 40.09487 56.03268 C37.36496 56.01105 34.63504 55.98943 31.90513 55.9678 C31.8816 56.46049 31.86712 56.95369 31.83456 57.44587 C31.69772 58.65188 31.49327 59.823 30.92815 60.9043 C30.43698 61.79328 29.79816 62.47643 28.89935 62.95131 C27.57399 63.61473 26.13818 63.86986 24.66952 63.89401 C24.43544 63.89786 24.25038 63.905 23.99988 63.905 z" />
<glyph unicode="T" horiz-adv-x="50" d="M0 72.095 C1.72572 72.095 3.45143 72.095 5.17715 72.095 C6.5631 72.095 7.94905 72.095 9.33501 72.095 C13.49286 72.095 17.65072 72.095 21.80857 72.095 C27.87225 72.095 33.93592 72.095 39.9996 72.095 L39.9996 63.905 C38.09378 63.905 36.18796 63.905 34.28214 63.905 C30.12429 63.905 25.96643 63.905 21.80857 63.905 C17.65072 63.905 13.49286 63.905 9.33501 63.905 C6.22334 63.905 3.11167 63.905 0 63.905 L0 72.095 zM15.905 0 C15.905 2.93372 15.905 5.86744 15.905 8.80115 C15.905 11.15727 15.905 13.51339 15.905 15.86951 C15.905 22.93787 15.905 30.00622 15.905 37.07458 C15.905 47.38282 15.905 57.69107 15.905 67.99932 L24.095 67.99932 C24.095 64.75943 24.095 61.51954 24.095 58.27964 C24.095 51.21129 24.095 44.14293 24.095 37.07458 C24.095 30.00622 24.095 22.93787 24.095 15.86951 C24.095 10.57967 24.095 5.28984 24.095 0 L15.905 0 z" />
<glyph unicode="U" horiz-adv-x="50" d="M32.38141 27.86533 C32.33863 32.81427 32.29584 37.7632 32.25305 42.71213 C32.16876 52.46295 32.08446 62.21376 32.00016 71.96458 C34.66672 71.98763 37.33329 72.01069 39.99986 72.03374 C40.0314 68.38569 40.06294 64.73763 40.09447 61.08958 C40.14723 54.98682 40.2 48.88406 40.25276 42.78129 C40.29554 37.83236 40.33833 32.88343 40.38111 27.93449 C40.41569 23.93519 40.45026 19.9359 40.48484 15.9366 C40.48352 15.9039 40.4822 15.87119 40.48088 15.83849 C40.24714 12.8419 39.82809 10.05658 38.38247 7.39931 C37.11258 5.18799 35.4746 3.41716 33.25792 2.15356 C29.51057 0.13498 26.09995 0 23.99992 0 C22.82131 0 21.6427 0 20.4641 0 C19.69537 0 18.92664 0 18.15792 0 C17.50355 0 16.59476 -0 16.49473 0 C13.45064 0.11297 10.59863 0.39773 7.83396 1.72248 C5.42203 2.94497 3.48165 4.62054 2.1269 6.96554 C-0.72342 12.18311 0 18.28111 0 24.005 C0 29.826 0 35.647 0 41.468 C0 47.28899 0 53.10999 0 58.93099 C0 63.28733 0 67.64366 0 72 L8 72 C8 69.584 8 67.16799 8 64.75199 C8 62.81166 8 60.87133 8 58.93099 C8 53.10999 8 47.28899 8 41.468 C8 35.647 8 29.826 8 24.005 C8 20.71874 7.05623 14.62801 8.98664 11.08185 C9.51891 10.15642 10.22292 9.47056 11.17467 8.99157 C13.59767 7.83897 16.29495 8 16.495 8 C17.04931 8 17.60361 8 18.15792 8 C18.92664 8 19.69537 8 20.4641 8 C23.35525 8 26.54579 7.61694 29.17915 9.03568 C30.07875 9.54811 30.77893 10.20394 31.2915 11.10311 C33.15876 14.56485 32.45609 19.22749 32.42516 22.80509 C32.41058 24.49184 32.39599 26.17858 32.38141 27.86533 z" />
<glyph unicode="V" horiz-adv-x="50" d="M21.50828 16.35696 C23.71802 25.46482 22.52707 20.27932 25.18781 31.88901 C26.91324 39.57435 28.64268 47.24724 30.11829 54.98427 C31.14058 60.64329 32.1719 66.25123 32.47671 71.99978 C35.14338 71.99977 37.81004 71.99975 40.47671 71.99974 C40.42184 70.89859 40.40627 69.79478 40.3121 68.6963 C39.72987 63.60635 38.9493 58.5975 37.99117 53.56384 C36.4309 45.7282 34.77802 37.92455 32.99355 30.13675 C30.63865 20.04546 28.22384 9.97059 25.73584 -0.08915 C24.69209 -0.08915 23.64834 -0.08915 22.60459 -0.08915 C22.38335 -0.08915 22.1621 -0.08915 21.94086 -0.08915 C21.77445 -0.08915 21.60804 -0.08915 21.44164 -0.08915 C20.2757 -0.08915 19.10976 -0.08915 17.94383 -0.08915 C17.66259 0.86907 17.38136 1.82729 17.10013 2.78551 C13.06572 16.7579 9.01062 30.70345 5.49555 44.81521 C4.02029 50.94495 2.54771 57.03999 1.44438 63.24692 C0.98094 66.21053 0.64812 69.00597 0.47671 71.99997 C3.14338 71.99999 5.81004 72.00001 8.47671 72.00003 C8.52004 71.23284 8.54242 70.46418 8.60669 69.69846 C8.94889 66.78138 8.65171 68.42007 9.30219 64.74854 C10.45252 58.7193 11.76146 52.75941 13.24473 46.80273 C15.5311 37.88715 17.85977 28.99307 20.41306 20.1501 C20.96067 18.25353 21.1432 17.62134 21.50828 16.35696 z" />
<glyph unicode="W" horiz-adv-x="50" d="M19.95168 34.93803 C19.06259 32.20883 18.17349 29.47963 17.28439 26.75043 C15.79443 22.17679 14.30447 17.60315 12.8145 13.02951 C11.39962 8.68634 9.98474 4.34317 8.56986 0 C7.60191 0 6.63397 0 5.66602 0 C5.41347 0 5.16091 0 4.90835 0 C4.73517 0 4.56199 0 4.38881 0 C2.92587 0 1.46294 0 0 0 C0 1.33356 0 2.66712 0 4.00068 C0 14.30893 0 24.61718 0 34.92542 C0 41.99378 0 49.06213 0 56.13049 C0 61.42033 0 66.71016 0 72 C2.66667 72 5.33333 72 8 72 C8 69.06628 8 66.13256 8 63.19885 C8 60.84273 8 58.48661 8 56.13049 C8 49.06213 8 41.99378 8 34.92542 C8 31.30963 8 27.69384 8 24.07805 C8.55928 25.79484 9.11857 27.51164 9.67785 29.22843 C12.44052 37.70882 15.20319 46.1892 17.96586 54.66959 L22.08335 54.65459 C22.65968 52.84 23.23601 51.02542 23.81233 49.21083 C24.89945 45.78799 25.98657 42.36516 27.07369 38.94232 C28.52632 34.36868 29.97894 29.79504 31.43157 25.2214 C31.71578 24.32653 31.81052 24.02825 32 23.43167 C32 29.31264 32 35.19361 32 41.07458 C32 51.38282 32 61.69107 32 71.99932 C34.66667 71.99932 37.33333 71.99932 40 71.99932 C40 68.75943 40 65.51954 40 62.27964 C40 55.21129 40 48.14293 40 41.07458 C40 34.00622 40 26.93787 40 19.86951 C40 13.24634 40 6.62317 40 0 C38.66666 0 37.33332 0 35.99998 0 C35.69297 0 35.38596 0 35.07895 0 C34.86843 0 34.65791 0 34.44739 0 C33.31435 0 32.18132 0 31.04828 0 C30.75294 0.92987 30.45761 1.85974 30.16228 2.78961 C28.04382 9.45965 25.92536 16.1297 23.8069 22.79974 C22.83848 25.84883 21.87007 28.89793 20.90165 31.94702 C20.42667 33.44253 20.26834 33.94103 19.95168 34.93803 z" />
<glyph unicode="X" horiz-adv-x="56" d="M20.99163 42.12189 C23.38878 38.12664 25.78593 34.13139 28.18308 30.13614 C30.62505 26.06618 33.06703 21.99621 35.50901 17.92625 C35.53194 17.88039 35.55487 17.83454 35.57779 17.78869 C36.71467 15.34996 37.74938 12.96099 38.49984 10.37822 C38.91362 8.8291 39.29272 7.30293 39.54455 5.71954 C39.81019 3.79071 39.92562 1.9549 40 0.00001 C37.33333 0 34.66667 -0 32 -0.00001 C31.97714 0.65777 31.96771 1.31616 31.93141 1.97334 C31.79152 3.51574 31.91135 2.73945 31.66861 4.31615 C31.44964 5.56495 31.20847 6.78468 30.86029 8.00392 C28.83269 14.58707 24.84593 20.14885 21.32313 26.02018 C18.92598 30.01543 16.52883 34.01068 14.13168 38.00593 C10.91812 43.36187 7.70455 48.71781 4.49099 54.07375 C4.46809 54.11955 4.44519 54.16535 4.42229 54.21115 C2.63769 58.16545 3.27151 56.41766 2.23284 59.34385 C1.708 60.93298 1.21902 62.50076 0.86096 64.13532 C0.34156 66.76243 0.076 69.32338 0 71.99983 C2.66667 71.99984 5.33333 71.99984 8 71.99985 C8.01711 71.43003 8.02308 70.85976 8.05133 70.29039 C8.17622 68.73765 8.36519 67.22344 8.70577 65.70342 C9.02552 64.40085 9.36976 63.13008 9.82421 61.86794 C12.04649 56.07441 15.70872 50.92674 18.89127 45.62249 C19.59139 44.45563 20.29151 43.28876 20.99163 42.12189 zM9.13971 8.00392 C8.81853 6.77729 8.52431 5.56924 8.33139 4.31615 C8.13869 2.86189 8.05114 1.47127 8 -0.00001 C5.33333 -0 2.66667 0 0 0.00001 C0.03449 0.90653 0.05062 1.81394 0.10347 2.71957 C0.2936 4.6999 0.1352 3.70604 0.45545 5.71954 C0.74013 7.29735 1.05277 8.83847 1.50016 10.37822 C2.31505 12.98133 3.26861 15.48147 4.49099 17.92625 C4.51733 17.97016 4.54368 18.01407 4.57003 18.05798 C6.98566 22.08404 9.40129 26.11009 11.81692 30.13614 C14.21407 34.13139 16.61122 38.12664 19.00837 42.12189 C22.85851 48.53879 27.63583 54.81375 30.17579 61.86794 C30.60219 63.13983 31.00098 64.39463 31.29423 65.70342 C31.72085 67.80862 31.93554 69.85297 32 71.99985 C34.66667 71.99984 37.33333 71.99984 40 71.99983 C39.98088 71.32638 39.97469 70.65244 39.94263 69.97949 C39.79326 68.00188 39.56342 66.07258 39.13904 64.13532 C38.7479 62.50835 38.32698 60.921 37.76716 59.34385 C37.07845 57.52458 36.3953 55.84635 35.50901 54.07375 C35.48258 54.0297 35.45616 53.98566 35.42973 53.94162 C32.24259 48.62972 29.05545 43.31782 25.86832 38.00593 C23.47117 34.01068 21.07402 30.01543 18.67687 26.02018 C15.40999 20.57538 11.56341 15.409 9.55479 9.35161 C9.40685 8.90544 9.26878 8.4559 9.13971 8.00392 z" />
<glyph unicode="Y" horiz-adv-x="56" d="M29.82235 61.09396 C30.32374 62.52301 30.79362 63.93338 31.14744 65.40567 C31.63251 67.62552 31.90037 69.78671 32.0004 72.05648 C34.6668 72.01872 37.3332 71.98096 39.9996 71.94321 C39.97075 71.26374 39.95567 70.58356 39.91305 69.90482 C39.72371 67.80891 39.44986 65.76575 38.96725 63.71728 C38.50947 61.93164 38.0163 60.19074 37.37684 58.46153 C36.79358 56.97773 36.21669 55.55589 35.53028 54.1092 C35.49681 54.05341 35.46333 53.99761 35.42985 53.94182 C33.61075 50.90998 31.79165 47.87814 29.97254 44.8463 C28.72519 42.76738 27.47783 40.68845 26.23047 38.60952 C24.41462 35.5831 22.59877 32.55668 20.78292 29.53026 L19.21704 29.53033 C18.33465 31.00099 17.45225 32.47165 16.56985 33.94232 C14.48039 37.42475 12.39093 40.90719 10.30147 44.38962 C9.24098 46.1571 8.1805 47.92457 7.12001 49.69205 C6.24367 51.15262 5.36733 52.61319 4.49099 54.07375 C4.46806 54.11961 4.44513 54.16546 4.42221 54.21131 C3.28533 56.65004 2.25062 59.03901 1.50016 61.62178 C1.08638 63.1709 0.70728 64.69707 0.45545 66.28046 C0.18981 68.20929 0.07438 70.0451 0 71.99999 C2.66667 72 5.33333 72 8 72.00001 C8.02286 71.34223 8.03229 70.68384 8.06859 70.02666 C8.20848 68.48426 8.08865 69.26055 8.33139 67.68385 C8.55036 66.43505 8.79153 65.21532 9.13971 63.99608 C9.75908 61.98512 10.43052 59.91873 11.42997 58.05798 C12.21172 56.60255 13.12996 55.22467 13.97995 53.80801 C15.04044 52.04054 16.10092 50.27306 17.16141 48.50559 C18.10761 46.92859 19.0538 45.3516 20 43.7746 C21.03753 45.50383 22.07507 47.23305 23.1126 48.96227 C25.19954 52.44051 27.62551 55.8251 29.21195 59.5579 C29.42746 60.06497 29.62925 60.57794 29.82235 61.09396 zM24 36 C24 34.44686 24 32.89371 24 31.34057 C24 30.09321 24 28.84585 24 27.5985 C24 23.85642 24 20.11435 24 16.37228 C24 10.91498 24 5.45767 24 0.00036 L16 0.00036 C16 1.7156 16 3.43083 16 5.14607 C16 8.88814 16 12.63021 16 16.37228 C16 20.11435 16 23.85642 16 27.5985 C16 30.399 16 33.1995 16 36 L24 36 z" />
<glyph unicode="Z" horiz-adv-x="56" d="M9.29807 8 C12.98947 8 16.68088 8 20.37228 8 C24.11435 8 27.85642 8 31.5985 8 C34.399 8 37.1995 8 40 8 C40 5.33333 40 2.66667 40 0 C38.44686 0 36.89371 0 35.34057 0 C34.09321 0 32.84585 0 31.5985 0 C27.85642 0 24.11435 0 20.37228 0 C13.58152 0 6.79076 0 0 0 C0 1.33333 0 2.66667 0 4 C0 4.20775 0 4.41549 0 4.62324 C0 4.90083 0 5.17842 0 5.45602 C0 6.20363 0 6.95125 0 7.69886 C0.16532 7.99914 0.33063 8.29941 0.49595 8.59969 C2.98528 13.12125 5.47462 17.64282 7.96395 22.16439 C11.29024 28.20617 14.61652 34.24796 17.94281 40.28974 C22.29401 48.19316 26.64521 56.09658 30.99641 64 C29.29745 64 29.29745 64 27.5985 64 C23.85642 64 20.11435 64 16.37228 64 C10.91498 64 5.45767 64 0.00036 64 C0.00036 66.66667 0.00036 69.33333 0.00036 72 C1.7156 72 3.43083 72 5.14607 72 C8.88814 72 12.63021 72 16.37228 72 C20.11435 72 23.85642 72 27.5985 72 C31.73233 72 35.86617 72 40 72 C40 70.66666 40 69.33331 40 67.99997 C40 67.51405 40 67.02813 40 66.54222 C40 66.20902 40 65.87583 40 65.54264 C40 64.95051 40 64.35838 40 63.76625 C39.83458 63.46578 39.66916 63.16531 39.50373 62.86484 C34.65279 54.05371 29.80185 45.24258 24.95091 36.43145 C21.62463 30.38967 18.29834 24.34788 14.97206 18.3061 C13.8633 16.29217 12.75454 14.27824 11.64577 12.26431 C10.47192 10.13216 10.08064 9.42144 9.29807 8 z" />
<glyph unicode="a" horiz-adv-x="50" d="M43.99998 0 C43.71482 0.00651 43.42949 0.00764 43.1445 0.01954 C41.07317 0.15424 39.11435 0.5346 37.29978 1.56028 C35.52744 2.61785 34.16224 4.01831 33.25994 5.87204 C31.47692 9.75433 32 14.16924 32 18.31665 C32 20.90342 32 23.49019 32 26.07697 C32 28.40442 32 30.73188 32 33.05934 C32 36.6827 32.19506 40.41813 30.78966 43.82247 C30.25535 45.04095 29.58606 46.13008 28.47064 46.88113 C26.048 48.42968 22.85559 48 20.15981 48 C19.27732 48 18.39484 48 17.51235 48 C15.62648 48 13.7406 48 11.85473 48 C9.23656 48 6.61838 48 4.0002 48 C4.0002 50.66667 4.0002 53.33333 4.0002 56 C4.91224 56 5.82428 56 6.73633 56 C8.44246 56 10.1486 56 11.85473 56 C13.7406 56 15.62648 56 17.51235 56 C20.27484 56 21.95025 56.00004 24.00027 56 C27.14137 55.85967 29.98422 55.40375 32.66074 53.69605 C35.14041 52.03004 36.91454 49.83302 38.08666 47.10176 C40.75857 40.48365 40 33.05364 40 26.07697 C40 23.49019 40 20.90342 40 18.31665 C40 16.2111 40 14.10555 40 12 C40 11.0802 40.06029 10.09341 40.50276 9.26932 C40.70769 8.91049 40.96539 8.65273 41.3344 8.46838 C42.16308 8.07473 43.09606 8.01211 44.00002 8 C44.00001 5.33333 43.99999 2.66667 43.99998 0 zM16.00218 36 C17.76576 36 19.52934 36 21.29292 36 C23.14019 36 24.98745 36 26.83471 36 C28.55647 36 30.27824 36 32 36 C32 33.33333 32 30.66667 32 28 C31.00924 28 30.01848 28 29.02772 28 C28.29672 28 27.56571 28 26.83471 28 C24.98745 28 23.14019 28 21.29292 28 C19.9643 28 18.63567 28 17.30704 28 C16.89688 28 16.45029 28 16.00002 28 C14.27746 27.9718 12.53418 27.84153 10.99295 27.02446 C10.09402 26.52108 9.41459 25.86077 8.94344 24.94534 C7.8912 22.78016 7.99998 20.34906 7.99997 17.99994 C7.99998 15.99997 7.99999 13.99999 8 12.00002 C8.00167 11.87555 8.00094 11.75103 8.005 11.62662 C8.04559 10.84223 8.11341 10.04494 8.46838 9.3344 C8.66061 8.96944 8.90526 8.69824 9.26932 8.50276 C9.74693 8.26093 10.49998 8 12 8 C13.24467 8 14.48933 8 15.734 8 C17.39714 8 19.06029 8 20.72343 8 C22.38657 8 24.04971 8 25.71286 8 C26.96136 8 28.87655 7.67136 30.02788 8.51592 C30.61633 8.97131 30.95991 9.62636 31.21561 10.30974 C32.0673 12.73638 32 15.32832 32 17.867 C32 18.69857 32 19.53014 32 20.36171 C32 21.57445 32 22.78718 32 23.99992 C34.66667 23.99992 37.33333 23.99992 40 23.99992 C40 23.61876 40 23.23759 40 22.85643 C40 22.02486 40 21.19329 40 20.36171 C40 19.53014 40 18.69857 40 17.867 C40 14.41616 39.95912 11.00994 38.7899 7.73483 C38.00347 5.67253 36.94143 3.86169 35.23603 2.44343 C32.27556 0.11472 29.0499 0 27.99984 0 C25.57437 0 23.1489 0 20.72343 0 C19.06029 0 17.39714 0 15.734 0 C14.28929 0 12.19984 -0 11.99982 0 C9.84036 0.08037 7.82647 0.30861 5.87204 1.25994 C4.03899 2.20354 2.57587 3.50306 1.56028 5.29978 C0.7304 6.85221 0.27253 8.48886 0.0871 10.23798 C0.07764 10.23753 0.05978 10.22721 0.05872 10.23663 C-0.03422 11.06498 -0.01936 11.06995 -0.01994 11.79395 C-0.01936 13.06395 -0.01684 14.33394 -0.01345 15.60394 C-0.0008 20.0072 -0.26587 24.32242 1.70061 28.34262 C2.93186 30.72254 4.62014 32.61765 6.95832 33.93255 C9.97164 35.53522 13.65108 36 16.00218 36 z" />
<glyph unicode="b" horiz-adv-x="50" d="M16.00557 56 C17.39673 56 18.78788 56 20.17904 56 C20.88603 56 21.59302 56 22.30001 56 C23.21632 56 23.6502 56.00001 24.00026 56 C26.93828 55.88937 29.68488 55.59942 32.34262 54.29939 C34.72254 53.06814 36.61765 51.37986 37.93255 49.04168 C40.22976 44.7225 40 40.0786 40 35.30929 C40 32.69382 40 30.07835 40 27.46288 C40 25.34191 40 23.22093 40 21.09996 C40 16.59629 40.32385 12.03159 38.7899 7.73483 C38.00347 5.67253 36.94143 3.86169 35.23603 2.44343 C32.27556 0.11472 29.04985 0 27.99976 0 C24.36155 0 20.72335 0 17.08514 0 C14.59043 0 12.09572 0 9.601 0 C6.40067 0 3.20033 0 -0 0 C-0 1.33356 -0 2.66712 0 4.00068 C0 14.30893 0 24.61718 0 34.92542 C0 41.99378 0 49.06213 0 56.13049 C0 61.42033 0 66.71016 0 72 C2.66667 72 5.33333 72 8 72 C8 69.06628 8 66.13256 8 63.19885 C8 60.84273 8 58.48661 8 56.13049 C8 55.09423 8 54.74881 8 54.05797 C8.46177 54.3146 8.93458 54.53809 9.42174 54.74103 C12.1746 55.81706 14.85371 56 16.00557 56 zM8 8 C8.8005 8 8.8005 8 9.601 8 C12.09572 8 14.59043 8 17.08514 8 C19.57986 8 22.07457 8 24.56929 8 C25.80219 8 28.66133 7.51349 30.02788 8.51592 C30.61633 8.97131 30.95991 9.62636 31.21561 10.30974 C32.40903 13.71007 32 17.57901 32 21.09996 C32 23.22093 32 25.34191 32 27.46288 C32 30.07835 32 32.69382 32 35.30929 C32 38.3433 32.53615 42.15558 31.02446 45.00705 C30.52108 45.90598 29.86077 46.58541 28.94534 47.05656 C26.64473 48.17462 23.69999 48.00002 24 48 C23.43334 48 22.86668 48 22.30001 48 C21.59302 48 20.88603 48 20.17904 48 C19.30722 48 18.43539 48 17.56357 48 C16.66796 48 16.50011 48 16.00002 48 C14.82706 47.9744 13.71237 47.84083 12.61874 47.4076 C11.80927 47.06608 11.08704 46.64307 10.4229 46.06848 C9.44026 45.17214 8.64019 44.14774 8 42.98087 C8 40.29572 8 37.61057 8 34.92542 C8 27.85707 8 20.78871 8 13.72036 L8 8 z" />
<glyph unicode="c" horiz-adv-x="50" d="M16.00002 48 C14.27746 47.9718 12.53418 47.84153 10.99295 47.02446 C10.09402 46.52108 9.41459 45.86077 8.94344 44.94534 C7.47093 41.91536 8 38.11454 8 34.90004 C8 32.77907 8 30.65809 8 28.53712 C8 25.92165 8 23.30618 8 20.69071 C8 17.6567 7.46385 13.84442 8.97554 10.99295 C9.47892 10.09402 10.13923 9.41459 11.05466 8.94344 C12.59072 8.19694 14.29996 8 16 8 C17.69999 8 19.39997 8 21.09996 8 C23.22093 8 25.34191 8 27.46288 8 C31.6418 8 35.82072 8 39.99964 8 L39.99964 0 C38.43619 0 36.87274 0 35.30929 0 C32.69382 0 30.07835 0 27.46288 0 C25.34191 0 23.22093 0 21.09996 0 C18.34992 0 17.04977 -0.00002 15.99974 0 C13.06172 0.11063 10.31512 0.40058 7.65738 1.70061 C5.27746 2.93186 3.38235 4.62014 2.06745 6.95832 C-0.22976 11.2775 0 15.9214 0 20.69071 C0 23.30618 0 25.92165 0 28.53712 C0 30.65809 0 32.77907 0 34.90004 C0 39.51014 -0.36735 44.11495 1.70061 48.34262 C2.93186 50.72254 4.62014 52.61765 6.95832 53.93255 C12.94855 57.11853 20.4302 56 26.91486 56 C29.40957 56 31.90428 56 34.399 56 C36.266 56 38.133 56 40 56 C40 53.33333 40 50.66667 40 48 C38.96457 48 37.92914 48 36.89371 48 C36.06214 48 35.23057 48 34.399 48 C31.90428 48 29.40957 48 26.91486 48 C24.42014 48 21.92543 48 19.43071 48 C17.71621 48 17.15058 48.00001 16.00002 48 z" />
<glyph unicode="d" horiz-adv-x="50" d="M28.00645 56 C29.45558 55.92024 30.70532 55.62241 32.00633 54.96802 C32.00633 60.64512 32.00633 66.32222 32.00633 71.99932 C34.673 71.99932 37.33966 71.99932 40.00633 71.99932 C40.00633 68.75943 40.00633 65.51954 40.00633 62.27964 C40.00633 55.21129 40.00633 48.14293 40.00633 41.07458 C40.00633 34.00622 40.00633 26.93787 40.00633 19.86951 C40.00633 13.24634 40.00633 6.62317 40.00633 0 C38.6729 0 37.33946 0 36.00603 0 C32.5236 0 29.04116 0 25.55873 0 C23.79125 0 22.02377 0 20.2563 0 C19.38958 0 16.4061 -0.00001 16.00607 0 C13.06805 0.11063 10.32145 0.40058 7.66371 1.70061 C5.28379 2.93186 3.38868 4.62014 2.07378 6.95832 C-1.05128 12.83402 0.00633 20.0757 0.00633 26.4476 C0.00633 28.21508 0.00633 29.98256 0.00633 31.75003 C0.00633 33.15116 0.00633 34.55228 0.00633 35.95341 C0.00669 35.93797 0.00705 35.92254 0.00741 35.90711 C0.06337 39.77711 0.37218 43.40986 2.138 46.89148 C3.65544 49.72335 5.72143 51.95103 8.53984 53.49399 C10.94608 54.73838 13.50009 55.48085 16.19273 55.79295 C16.58091 55.83795 16.96947 55.88403 17.35967 55.90515 C19.7029 56.03202 22.84408 56 24.18537 56 C24.89236 56 25.59935 56 26.30634 56 C26.54731 56 26.78827 56 27.02923 56 C27.96702 56 28.0059 56 28.00645 56 zM32.00633 8 C32.00633 11.9565 32.00633 15.91301 32.00633 19.86951 C32.00633 26.93787 32.00633 34.00622 32.00633 41.07458 C32.00633 41.71011 32.00633 42.02787 32.00633 42.98116 C30.97983 44.85291 31.47002 44.04537 30.57974 45.42995 C29.98183 46.26633 29.38383 47.11596 28.54386 47.72396 C28.42817 47.80347 28.3123 47.88024 28.18613 47.94223 C28.16133 47.95441 28.13577 47.96492 28.11094 47.97698 C28.10806 47.97838 28.09427 47.99034 28.09135 47.99079 C28.06404 47.99495 28.00722 48 28.00633 48 C27.43967 48 26.87301 48 26.30634 48 C25.59935 48 24.89236 48 24.18537 48 C23.64063 48 20.09767 47.99975 19.99593 48.00001 C17.39257 47.91719 14.84061 47.77275 12.50583 46.54626 C11.13259 45.78337 10.06663 44.78763 9.33424 43.39662 C8.20044 41.11904 7.94768 38.56398 8.00633 36.04659 C8.00633 36.03106 8.00633 36.01553 8.00633 36 C8.00633 34.58334 8.00633 33.16669 8.00633 31.75003 C8.00633 29.98256 8.00633 28.21508 8.00633 26.4476 C8.00633 24.26804 8.00633 22.08849 8.00633 19.90893 C8.00633 17.03442 7.57112 13.65402 8.98187 10.99295 C9.48525 10.09402 10.14556 9.41459 11.06099 8.94344 C12.59704 8.19695 14.30628 8 16.00633 8 C17.42299 8 18.83964 8 20.2563 8 C22.02377 8 23.79125 8 25.55873 8 C26.92854 8 28.29836 8 29.66817 8 C30.83725 8 31.22694 8 32.00633 8 z" />
<glyph unicode="e" horiz-adv-x="50" d="M24.00749 56 C26.9428 55.88906 29.68735 55.59821 32.34262 54.29939 C34.72254 53.06814 36.61765 51.37986 37.93255 49.04168 C40.23672 44.70941 40 39.98732 40 35.21917 C40 34.0206 40 32.82202 40 31.62345 C40 29.0823 40 26.54115 40 24 C38.66656 24 37.33312 24 35.99968 24 C31.14874 24 26.2978 24 21.44686 24 C18.12057 24 14.79429 24 11.468 24 C10.312 24 9.156 24 8 24 C8 22.40685 8 20.81371 8 19.22056 C8 16.51159 7.65818 13.47785 8.97554 10.99295 C9.47892 10.09402 10.13923 9.41459 11.05466 8.94344 C12.59071 8.19695 14.29996 8 16 8 C17.55583 8 19.11167 8 20.6675 8 C22.74643 8 24.82536 8 26.90429 8 C29.93612 8 32.96796 8 35.9998 8 L35.9998 0 C35.04689 0 34.09398 0 33.14107 0 C31.06214 0 28.98322 0 26.90429 0 C24.82536 0 22.74643 0 20.6675 0 C19.61161 0 15.99977 0 15.99974 0 C13.06172 0.11063 10.31512 0.40058 7.65738 1.70061 C5.27746 2.93186 3.38235 4.62014 2.06745 6.95832 C-0.93166 12.5972 0 19.42858 0 25.56166 C0 27.9588 0 30.35595 0 32.7531 C0 37.9999 -0.66628 43.50383 1.70061 48.34262 C2.93186 50.72254 4.62014 52.61765 6.95832 53.93255 C9.96954 55.53411 13.64796 56 16.00008 56 C17.06246 56 18.12484 56 19.18722 56 C19.98627 56 20.78532 56 21.58437 56 C22.43958 56 23.405 56.00001 24.00749 56 zM16.02859 48 C16.01907 48 16.00954 48 16.00002 48 C14.27746 47.9718 12.53418 47.84153 10.99295 47.02446 C10.09402 46.52108 9.41459 45.86077 8.94344 44.94534 C8.19693 43.40925 8 41.69282 8 40 C8 37.58437 8 35.16874 8 32.7531 C8 32.50207 8 32.25103 8 32 C9.156 32 10.312 32 11.468 32 C14.79429 32 18.12057 32 21.44686 32 C24.96457 32 28.48229 32 32 32 C32 33.07306 32 34.14611 32 35.21917 C32 38.37526 32.56526 42.10068 31.02446 45.00705 C30.52108 45.90598 29.86077 46.58541 28.94534 47.05656 C27.8716 47.57838 26.6738 47.87062 25.48185 47.94056 C24.76825 47.98243 24.30019 48 24 48 C23.19479 48 22.38958 48 21.58437 48 C20.78532 48 19.98627 48 19.18722 48 C18.48265 48 17.77809 48 17.07352 48 C16.72521 48 16.3769 48 16.02859 48 z" />
<glyph unicode="f" horiz-adv-x="50" d="M27.95559 72 C27.97043 72 27.98528 72 28.00012 72 C29.81922 72 31.63833 72 33.45743 72 C34.70478 72 35.95214 72 37.1995 72 C38.133 72 39.0665 72 40 72 C40 69.33333 40 66.66667 40 64 C39.48229 64 38.96457 64 38.44686 64 C38.03107 64 37.61528 64 37.1995 64 C35.95214 64 34.70478 64 33.45743 64 C32.21007 64 30.96271 64 29.71536 64 C28.29814 64 26.65336 64.19054 25.3344 63.53162 C24.96944 63.33939 24.69824 63.09474 24.50276 62.73068 C24.08023 61.89619 24 60.9198 24 60 C24 56.03336 24 52.06673 24 48.10009 C24 43.15115 24 38.20222 24 33.25329 C24 23.50247 24 13.75166 24 4.00084 L16 4.00084 C16 7.64889 16 11.29695 16 14.945 C16 21.04776 16 27.15052 16 33.25329 C16 38.20222 16 43.15115 16 48.10009 C16 49.78684 16 51.47358 16 53.16033 C16 57.41427 15.32575 62.15429 17.25994 66.12796 C18.20354 67.96101 19.50306 69.42413 21.29978 70.43972 C23.13801 71.42238 25.0694 71.93045 27.1445 71.98046 C27.55005 71.99023 27.68523 71.99349 27.95559 72 zM32 0 C30.96457 0 29.92914 0 28.89371 0 C28.06214 0 27.23057 0 26.399 0 C23.90428 0 21.40957 0 18.91486 0 C15.27665 0 11.63845 0 8.00024 0 L8.00024 8 C9.14373 8 10.28722 8 11.43071 8 C13.92543 8 16.42014 8 18.91486 8 C21.40957 8 23.90428 8 26.399 8 C28.266 8 30.133 8 32 8 L32 0 zM8 56 C9.38057 56 10.76115 56 12.14172 56 C13.25048 56 14.35924 56 15.468 56 C18.79429 56 22.12057 56 25.44686 56 C30.2978 56 35.14874 56 39.99968 56 L39.99968 48 C38.47502 48 36.95037 48 35.42571 48 C32.09943 48 28.77314 48 25.44686 48 C22.12057 48 18.79429 48 15.468 48 C12.97867 48 10.48933 48 8 48 L8 56 z" />
<glyph unicode="g" horiz-adv-x="50" d="M16.0082 56 C19.03737 56 22.06654 56 25.09571 56 C27.17464 56 29.25357 56 31.3325 56 C34.22166 56 37.11083 56 40 56 C40 54.66657 40 53.33313 40 51.9997 C40 50.69682 40 49.39395 40 48.09107 C40 45.91151 40 43.73196 40 41.5524 C40 39.78492 40 38.01744 40 36.24997 C40 31.36546 40.16589 26.51481 38.47359 21.87528 C37.37281 19.04768 35.83641 16.60122 33.3759 14.79388 C28.57858 11.45342 22.54969 12 23.99982 12 C21.91036 12 19.8209 12 17.73144 12 C16.67095 12 15.61047 12 14.54998 12 C13.25512 12 11.96973 11.97416 10.67796 12.07627 C8.33832 12.26121 6.1816 13.43726 4.58608 15.09451 C2.74506 17.11545 1.67606 19.4792 1.01692 22.10975 C-0.04308 26.74113 0 31.45547 0 36.17904 C0 36.88603 0 37.59302 0 38.30001 C0 41.79889 0.14562 45.16365 1.70061 48.34262 C2.93186 50.72254 4.62014 52.61765 6.95832 53.93255 C9.97164 55.53522 13.65546 56 16.0082 56 zM23.99997 20 C25.61017 20.03963 27.18332 20.22663 28.52957 21.15887 C29.68947 22.00505 30.41185 23.16199 30.9123 24.48812 C32.24377 28.25835 32 32.31362 32 36.24997 C32 38.01744 32 39.78492 32 41.5524 C32 43.7016 32 45.8508 32 48 C31.66625 48 31.555 48 31.3325 48 C29.25357 48 27.17464 48 25.09571 48 C23.01678 48 20.93786 48 18.85893 48 C16.2455 48 13.38162 48.2908 10.99295 47.02446 C10.09402 46.52108 9.41459 45.86077 8.94344 44.94534 C7.93475 42.86977 8 40.5563 8 38.30001 C8 37.59302 8 36.88603 8 36.17904 C8 32.17171 7.79552 28.11645 8.7397 24.19749 C9.06107 22.98172 9.40646 21.70857 10.24871 20.74558 C10.56512 20.40366 10.91249 20.1509 11.37586 20.05597 C11.41578 20.04779 11.45558 20.03796 11.49616 20.03432 C11.62979 20.02233 11.99989 20 12 20 C12.84999 20 13.69999 20 14.54998 20 C15.61047 20 16.67095 20 17.73144 20 C19.03917 20 20.34691 20 21.65464 20 C21.82585 20 23.749 20 23.99997 20 zM18.43834 -16 C16.0412 -16 13.64405 -16 11.2469 -16 C8.83126 -16 6.41563 -16 4 -16 L4 -8 C5.4278 -8 6.85561 -8 8.28341 -8 C9.27124 -8 10.25907 -8 11.2469 -8 C13.64405 -8 16.0412 -8 18.43834 -8 C23.57847 -8 26.06454 -7.99153 28.01743 -8.00004 C29.13429 -7.97349 30.25504 -7.96744 31.32076 -7.60462 C31.45318 -7.55649 31.58343 -7.50662 31.70981 -7.44409 C31.76243 -7.41805 31.8273 -7.35997 31.88808 -7.35792 C31.8951 -7.35859 31.90324 -7.3677 31.90871 -7.36578 C31.91872 -7.36225 31.92612 -7.34821 31.9305 -7.33996 C31.95116 -7.30107 31.96255 -7.25718 31.9715 -7.21436 C31.9971 -7.09202 32 -6.96634 32 -6.84142 C32.00004 -6.8364 32.00008 -6.83137 32.00011 -6.82634 C32.00499 -6.09957 32.0035 -6.44187 32.00627 -5.79947 C32.00776 -5.3766 32.00898 -4.95375 32.00865 -4.53087 C32.0077 -3.97963 32.00568 -3.42841 32 -2.87719 C32 -2.87033 32 -2.86347 32 -2.85661 C31.99308 -2.2592 31.9645 -1.61143 31.66286 -1.07968 C31.49676 -0.7985 31.24212 -0.62322 30.95071 -0.48836 C30.01299 -0.08008 29.00901 -0.04286 28 0 C26.75533 0 25.51067 0 24.266 0 C22.60286 0 20.93971 0 19.27657 0 C15.51771 0 11.75886 0 8 0 C8 1.33333 8 2.66667 8 4 C8 4.9335 8 5.867 8 6.8005 C8 8.04786 8 9.29522 8 10.54257 C8 12.36167 8 14.18078 8 15.99988 C10.66667 15.99988 13.33333 15.99988 16 15.99988 C16 15.42813 16 14.85639 16 14.28464 C16 13.03729 16 11.78993 16 10.54257 C16 9.69505 16 8.84752 16 8 C16.03125 8 19.24532 8 19.27657 8 C20.93971 8 22.60286 8 24.266 8 C26.06358 8 27.86466 8.00063 28.01762 7.99996 C30.09185 7.91974 32.04643 7.73411 33.96657 6.9214 C35.64211 6.16809 37.05301 5.14513 38.1198 3.64344 C39.80639 1.13539 40.00623 -1.57195 40.00864 -4.5169 C40.0086 -4.9538 40.00809 -5.39068 40.00622 -5.82757 C39.99421 -8.20406 39.74735 -10.29377 38.25672 -12.19946 C37.16943 -13.52072 35.84496 -14.44745 34.25132 -15.04853 C32.19829 -15.77409 30.15106 -15.93529 27.98257 -15.99996 C30.9869 -16.01305 18.62266 -16 18.43834 -16 z" />
<glyph unicode="h" horiz-adv-x="50" d="M0 0 C0 3.10629 0 6.21258 0 9.31887 C0 11.81358 0 14.3083 0 16.80301 C0 24.28715 0 31.77129 0 39.25543 C0 50.17005 0 61.08466 0 71.99928 L8 71.99928 C8 68.56881 8 65.13833 8 61.70786 C8 54.22372 8 46.73958 8 39.25543 C8 31.77129 8 24.28715 8 16.80301 C8 11.20201 8 5.601 8 0 L0 0 zM24.00026 56 C26.93828 55.88937 29.68488 55.59942 32.34262 54.29939 C34.72254 53.06814 36.61765 51.37986 37.93255 49.04168 C40.38691 44.42702 40 39.36613 40 34.28214 C40 30.12429 40 25.96643 40 21.80857 C40 17.65072 40 13.49286 40 9.33501 C40 6.22334 40 3.11167 40 0 L32 0 C32 1.72572 32 3.45143 32 5.17715 C32 6.5631 32 7.94905 32 9.33501 C32 13.49286 32 17.65072 32 21.80857 C32 25.96643 32 30.12429 32 34.28214 C32 37.47582 32.66215 41.9179 31.02446 45.00705 C30.52108 45.90598 29.86077 46.58541 28.94534 47.05656 C27.40733 47.804 25.68927 47.99998 23.99441 48 C22.79302 48 23.33473 48 22.30001 48 C21.59302 48 20.88603 48 20.17904 48 C18.79765 48 17.41625 48 16.03485 48 C16.02324 48 16.01163 48 16.00002 48 C14.82706 47.9744 13.71237 47.84083 12.61874 47.4076 C11.80927 47.06608 11.08704 46.64307 10.4229 46.06848 C9.19607 44.94941 8.37337 43.6614 7.57778 42.21129 C5.19265 43.40387 2.80751 44.59645 0.42238 45.78903 C0.70363 46.30508 0.97396 46.82724 1.26615 47.33718 C2.32447 49.03521 3.46936 50.57328 4.9588 51.91174 C6.33331 53.07964 7.75614 54.04718 9.42174 54.74103 C11.55515 55.57493 13.67654 55.9288 15.96028 56 C15.97356 56 15.98684 56 16.00012 56 C17.39309 56 18.78607 56 20.17904 56 C20.88603 56 21.59302 56 22.30001 56 C22.54098 56 22.78194 56 23.0229 56 C23.61005 56 23.84924 56 24.00026 56 z" />
<glyph unicode="i" horiz-adv-x="50" d="M16 48 C14.67732 48 13.35464 48 12.03195 48 C10.03433 48 8.0367 48 6.03908 48 C4.02605 48 2.01303 48 0 48 C0 50.66667 0 53.33333 0 56 C1.18984 56 2.37967 56 3.56951 56 C4.3927 56 5.21589 56 6.03908 56 C8.0367 56 10.03433 56 12.03195 56 C16.0213 56 20.01065 56 24 56 C24 54.66667 24 53.33333 24 52 C24 49.22019 24 46.44038 24 43.66057 C24 39.03938 24 34.41819 24 29.797 C24 22.53133 24 15.26567 24 8 C24.46105 8 24.69157 8 25.38315 8 C27.55413 8 29.72512 8 31.89611 8 C34.59735 8 37.2986 8 39.99984 8 C39.99984 5.33333 39.99984 2.66667 39.99984 0 C39.21027 0 38.4207 0 37.63112 0 C35.71945 0 33.80778 0 31.89611 0 C29.72512 0 27.55413 0 25.38315 0 C22.25543 0 19.12772 0 16 0 C16 1.33355 16 2.66709 16 4.00064 C16 12.59943 16 21.19821 16 29.797 C16 34.41819 16 39.03938 16 43.66057 C16 44.97047 16 46.28036 16 47.59025 C16 47.79513 16 47.86342 16 48 zM15.505 64 C15.505 64.37962 15.505 64.75924 15.505 65.13885 C15.505 65.44373 15.505 65.74861 15.505 66.05349 C15.505 66.96812 15.505 67.88275 15.505 68.79738 C15.505 70.13125 15.505 71.46512 15.505 72.79899 L24.495 72.79899 C24.495 72.37976 24.495 71.96052 24.495 71.54128 C24.495 70.62665 24.495 69.71202 24.495 68.79738 C24.495 67.88275 24.495 66.96812 24.495 66.05349 C24.495 65.36899 24.495 64.6845 24.495 64 L15.505 64 z" />
<glyph unicode="j" horiz-adv-x="50" d="M35.99924 -0.078 C36.00331 -2.71628 35.90267 -5.24929 35.09183 -7.76904 C34.37892 -9.83481 33.38616 -11.65364 31.7601 -13.12607 C29.57085 -15.00107 26.93966 -15.90009 24.0696 -16 C24.04627 -16 24.02293 -16 23.9996 -16 C19.31479 -16 14.62998 -16 9.94517 -16 C8.32654 -16 6.70791 -16 5.08928 -16 C4.72619 -16 4.36309 -16 4 -16 C4 -13.33333 4 -10.66667 4 -8 C4.11168 -8 4.22336 -8 4.33504 -8 C4.58645 -8 4.83786 -8 5.08928 -8 C6.70791 -8 8.32654 -8 9.94517 -8 C14.59868 -8 19.25218 -8 23.90569 -8 C24.75622 -7.95407 25.61987 -7.83246 26.29486 -7.28388 C26.86717 -6.79207 27.20011 -6.14244 27.43902 -5.43784 C27.99059 -3.69076 28.0602 -1.8489 27.99868 -0.02857 C27.99937 0.00695 28.00007 0.04248 28.00076 0.078 C28.11476 7.03331 28.08251 3.68515 28.14173 10.12199 C28.17877 15.25123 28.20321 20.37986 28.1963 25.50923 C28.17504 33.00649 28.12281 40.50308 28.04962 48 C27.94976 48 27.8499 48 27.75003 48 C25.98256 48 24.21508 48 22.4476 48 C18.96517 48 15.48273 48 12.0003 48 C12.0003 50.66667 12.0003 53.33333 12.0003 56 C13.30318 56 14.60605 56 15.90893 56 C18.08849 56 20.26805 56 22.4476 56 C24.21508 56 25.98256 56 27.75003 56 C30.48348 56 33.21693 56 35.95038 56 C35.96682 54.6831 35.98326 53.36619 35.9997 52.04929 C36.09676 43.21001 36.18431 34.37173 36.19627 25.53194 C36.19522 20.37575 36.1889 15.22024 36.14152 10.06427 C36.12399 8.50915 36.11441 6.95392 36.08894 5.39891 C36.04409 2.66045 36.02914 1.74763 35.99924 -0.078 zM27.505 63.23304 C27.505 63.61266 27.505 63.99228 27.505 64.3719 C27.505 64.67677 27.505 64.98165 27.505 65.28653 C27.505 66.20116 27.505 67.1158 27.505 68.03043 C27.505 69.3643 27.505 70.69817 27.505 72.03204 L36.495 72.03204 C36.495 71.61281 36.495 71.19357 36.495 70.77433 C36.495 69.8597 36.495 68.94506 36.495 68.03043 C36.495 67.1158 36.495 66.20116 36.495 65.28653 C36.495 64.60203 36.495 63.91754 36.495 63.23304 L27.505 63.23304 z" />
<glyph unicode="k" horiz-adv-x="50" d="M0 0 C0 3.10629 0 6.21258 0 9.31887 C0 11.81358 0 14.3083 0 16.80301 C0 24.28715 0 31.77129 0 39.25543 C0 50.17005 0 61.08466 0 71.99928 L8 71.99928 C8 68.56881 8 65.13833 8 61.70786 C8 54.22372 8 46.73958 8 39.25543 C8 31.77129 8 24.28715 8 16.80301 C8 11.20201 8 5.601 8 0 L0 0 zM25.12958 50.78644 C25.14358 50.80043 25.15757 50.81443 25.17157 50.82842 C25.76996 51.47553 26.33081 52.06303 26.82591 52.78191 C27.14225 53.26759 27.43316 53.75047 27.64892 54.28867 C27.86252 54.85713 27.97203 55.39388 28 55.99994 C30.66667 55.99993 33.33333 55.99991 36 55.9999 C35.98908 55.70696 35.98409 55.41373 35.96724 55.12107 C35.85233 53.89708 35.61177 52.73505 35.17821 51.58501 C34.73856 50.48836 34.22678 49.46416 33.57156 48.48119 C30.90589 44.67489 27.16398 41.78527 23.63546 38.82559 C20.76749 36.43757 17.88813 34.06509 14.99023 31.71346 C9.78685 27.50654 12.61607 29.78709 6.49878 24.87653 C4.83293 26.95884 3.16707 29.04116 1.50122 31.12347 C3.13224 32.43273 4.76518 33.7396 6.39427 35.05125 C7.57709 36.00359 8.75777 36.95857 9.93693 37.91542 C12.79231 40.2419 15.64721 42.56733 18.4694 44.93392 C20.26297 46.45058 22.06807 47.94921 23.80027 49.5355 C24.249 49.94642 24.68648 50.36946 25.12958 50.78644 zM32.03508 -0.39075 C31.78859 0.40422 31.36834 1.15724 30.96628 1.87726 C29.28006 4.7999 27.4718 7.61782 25.57606 10.40951 C20.14544 18.26205 14.49389 25.93504 8.80048 33.59936 C10.93381 35.19936 13.06715 36.79936 15.20048 38.39936 C17.32874 35.5344 19.4678 32.67742 21.58526 29.80447 C25.16249 24.89068 28.74029 19.98799 32.15552 14.96041 C34.14322 11.97077 36.13446 9.01386 37.89102 5.88326 C38.90799 3.9643 39.82783 2.17954 40 0.00012 C37.33333 0.00004 34.66667 -0.00004 32 -0.00012 C32.01754 -0.19543 32.02339 -0.26054 32.03508 -0.39075 z" />
<glyph unicode="l" horiz-adv-x="50" d="M16 64 C14.42552 64 12.85105 64 11.27657 64 C8.8511 64 6.42563 64 4.00016 64 C4.00016 66.66667 4.00016 69.33333 4.00016 72 C4.76249 72 5.52482 72 6.28714 72 C7.95029 72 9.61343 72 11.27657 72 C12.93971 72 14.60286 72 16.266 72 C18.844 72 21.422 72 24 72 C24 70.66648 24 69.33296 24 67.99944 C24 59.51029 24 51.02115 24 42.532 C24 36.71101 24 30.89001 24 25.06901 C24 23.12867 24 21.18834 24 19.24801 C24 16.83201 24 14.416 24 12 C24 11.0802 24.06029 10.09341 24.50276 9.26932 C24.70769 8.91049 24.96539 8.65273 25.3344 8.46838 C26.92007 7.71514 28.9622 8 30.64646 8 C31.57009 8 32.49372 8 33.41735 8 C34.27824 8 35.13912 8 36 8 C36 5.33333 36 2.66667 36 0 C35.50462 0 35.00924 0 34.51386 0 C34.14836 0 33.78286 0 33.41735 0 C32.49372 0 31.57009 0 30.64646 0 C29.6143 0 28.14998 -0 27.99998 0 C25.63121 0.05412 23.37665 0.38633 21.29978 1.56028 C19.52744 2.61785 18.16224 4.01831 17.25994 5.87204 C15.36684 9.994 16 14.90617 16 19.24801 C16 21.18834 16 23.12867 16 25.06901 C16 30.89001 16 36.71101 16 42.532 C16 48.353 16 54.174 16 59.995 C16 61.9975 16 62.665 16 64 z" />
<glyph unicode="m" horiz-adv-x="50" d="M8 56 C8 53.584 8 51.16799 8 48.75199 C8 46.81166 8 44.87133 8 42.93099 C8 37.10999 8 31.28899 8 25.468 C8 16.97885 8 8.48971 8 0.00056 L0 0.00056 C0 2.66871 0 5.33685 0 8.005 C0 13.826 0 19.647 0 25.468 C0 31.28899 0 37.10999 0 42.93099 C0 47.28733 0 51.64366 0 56 L8 56 zM12.00937 56 C14.16535 55.91922 16.17669 55.68985 18.12796 54.74006 C19.96101 53.79646 21.42413 52.49694 22.43972 50.70022 C24.56838 46.71821 24 42.05545 24 37.71036 C24 33.13672 24 28.56307 24 23.98943 C24 19.41579 24 14.84215 24 10.26851 C24 6.84567 24 3.42284 24 0 L16 0 C16 1.89829 16 3.79658 16 5.69486 C16 7.21941 16 8.74396 16 10.26851 C16 14.84215 16 19.41579 16 23.98943 C16 28.56307 16 33.13672 16 37.71036 C16 39.1332 16.68326 44.36037 15.53162 46.6656 C15.33939 47.03056 15.09474 47.30176 14.73068 47.49724 C13.89521 47.92027 12.91783 47.99999 11.997 48 C11.09405 47.9878 10.15416 47.94115 9.3344 47.53162 C8.96944 47.33939 8.69824 47.09474 8.50276 46.73068 C8.07131 45.87857 8.03844 44.93759 8 44.00014 C5.33333 44.00015 2.66667 44.00017 0 44.00018 C0.01722 44.46292 0.02582 44.92606 0.05167 45.3884 C0.2106 47.04954 0.5281 48.62445 1.25994 50.12796 C2.20354 51.96101 3.50306 53.42413 5.29978 54.43972 C8.19744 55.98872 11.05624 56.00001 12.00937 56 zM28.00273 56 C30.16122 55.91952 32.1744 55.69096 34.12796 54.74006 C35.96101 53.79646 37.42413 52.49694 38.43972 50.70022 C40.56838 46.71821 40 42.05545 40 37.71036 C40 33.13672 40 28.56307 40 23.98943 C40 19.41579 40 14.84215 40 10.26851 C40 6.84567 40 3.42284 40 0 L32 0 C32 1.89829 32 3.79658 32 5.69486 C32 7.21941 32 8.74396 32 10.26851 C32 14.84215 32 19.41579 32 23.98943 C32 28.56307 32 33.13672 32 37.71036 C32 39.1332 32.68326 44.36037 31.53162 46.6656 C31.33939 47.03056 31.09474 47.30176 30.73068 47.49724 C29.89521 47.92027 28.91783 47.99999 27.997 48 C27.09405 47.9878 26.15416 47.94115 25.3344 47.53162 C24.96944 47.33939 24.69824 47.09474 24.50276 46.73068 C24.07131 45.87857 24.03844 44.93759 24 44.00014 C21.33333 44.00015 18.66667 44.00017 16 44.00018 C16.01722 44.46292 16.02582 44.92606 16.05167 45.3884 C16.2106 47.04954 16.5281 48.62445 17.25994 50.12796 C18.20354 51.96101 19.50306 53.42413 21.29978 54.43972 C24.19744 55.98872 27.10182 56.00002 28.00273 56 z" />
<glyph unicode="n" horiz-adv-x="50" d="M8 56 C8 53.584 8 51.16799 8 48.75199 C8 46.81166 8 44.87133 8 42.93099 C8 37.10999 8 31.28899 8 25.468 C8 16.97885 8 8.48971 8 0.00056 L0 0.00056 C0 2.66871 0 5.33685 0 8.005 C0 13.826 0 19.647 0 25.468 C0 31.28899 0 37.10999 0 42.93099 C0 47.28733 0 51.64366 0 56 L8 56 zM24.00026 56 C26.93828 55.88937 29.68488 55.59942 32.34262 54.29939 C34.72254 53.06814 36.61765 51.37986 37.93255 49.04168 C40.38691 44.42702 40 39.36613 40 34.28214 C40 30.12429 40 25.96643 40 21.80857 C40 17.65072 40 13.49286 40 9.33501 C40 6.22334 40 3.11167 40 0 L32 0 C32 1.72572 32 3.45143 32 5.17715 C32 6.5631 32 7.94905 32 9.33501 C32 13.49286 32 17.65072 32 21.80857 C32 25.96643 32 30.12429 32 34.28214 C32 37.47582 32.66215 41.9179 31.02446 45.00705 C30.52108 45.90598 29.86077 46.58541 28.94534 47.05656 C27.40733 47.804 25.68927 47.99998 23.99441 48 C22.79302 48 23.33473 48 22.30001 48 C21.59302 48 20.88603 48 20.17904 48 C18.78355 48 17.38806 48 15.99257 48 C14.27254 47.97153 12.53182 47.84028 10.99295 47.02446 C10.09402 46.52108 9.41459 45.86077 8.94344 44.94534 C8.18153 43.37756 8.06907 41.72192 8 40.00022 C5.33333 40.00023 2.66667 40.00025 0 40.00026 C0.02463 40.65432 0.03709 41.30896 0.07389 41.96245 C0.29081 44.19775 0.71154 46.32059 1.70061 48.34262 C2.93186 50.72254 4.62014 52.61765 6.95832 53.93255 C9.76359 55.42457 12.84208 56 16.00746 56 C17.39799 56 18.78852 56 20.17904 56 C20.88603 56 21.59302 56 22.30001 56 C22.54098 56 22.78194 56 23.0229 56 C23.61005 56 23.84924 56 24.00026 56 z" />
<glyph unicode="o" horiz-adv-x="50" d="M23.97692 0 C22.9222 0 21.86749 0 20.81278 0 C20.01373 0 19.21468 0 18.41563 0 C16.81036 0 15.99977 0 15.99974 0 C13.06172 0.11063 10.31512 0.40058 7.65738 1.70061 C5.27746 2.93186 3.38235 4.62014 2.06745 6.95832 C0.46478 9.97164 0 13.65015 0 16.00024 C0 17.14373 0 18.28722 0 19.43071 C0 21.92543 0 24.42014 0 26.91486 C0 29.40957 0 31.90428 0 34.399 C0 39.16175 -0.43832 43.96987 1.70061 48.34262 C2.93186 50.72254 4.62014 52.61765 6.95832 53.93255 C9.7646 55.42511 12.84383 56 16.01029 56 C17.06927 56 18.12824 56 19.18722 56 C19.98627 56 20.78532 56 21.58437 56 C21.91364 56 22.24292 56 22.5722 56 C8214.5722 56 24.00015 56 24.00026 56 C26.93828 55.88937 29.68488 55.59942 32.34262 54.29939 C34.72254 53.06814 36.61765 51.37986 37.93255 49.04168 C40.93166 43.4028 40 36.57142 40 30.43834 C40 28.0412 40 25.64405 40 23.2469 C40 16.43583 40.00268 15.6227 39.99991 16.02719 C39.91 13.09335 39.64772 10.34999 38.37794 7.68287 C37.18411 5.31508 35.54305 3.42088 33.24288 2.09541 C30.32189 0.50473 27.24785 0.06456 23.95383 0.00027 C23.96538 0.00013 23.96922 0.00009 23.97692 0 zM8 16.00002 C8.00371 15.77315 8.00313 15.54616 8.01114 15.3194 C8.09414 13.8196 8.26552 12.33225 8.97554 10.99295 C9.47892 10.09402 10.13923 9.41459 11.05466 8.94344 C12.59071 8.19695 14.29994 8 16 8 C16.80521 8 17.61042 8 18.41563 8 C19.21468 8 20.01373 8 20.81278 8 C21.88288 8 22.95298 8 24.02308 8 C24.03078 7.99991 24.03847 7.99982 24.04617 7.99973 C25.79918 8.02396 27.56866 8.11222 29.13406 8.95964 C30.00346 9.45714 30.65055 10.10795 31.0991 11.00228 C31.83344 12.55509 32.01166 14.28433 32 15.9863 C32 15.99087 32 15.99543 32 16 C32 18.41563 32 20.83126 32 23.2469 C32 25.64405 32 28.0412 32 30.43834 C32 32.55204 32 34.66574 32 36.77944 C32 39.48841 32.34182 42.52215 31.02446 45.00705 C30.52108 45.90598 29.86077 46.58541 28.94534 47.05656 C26.64471 48.17462 23.69996 48 24 48 C23.19479 48 22.38958 48 21.58437 48 C20.78532 48 19.98627 48 19.18722 48 C16.46683 48 13.4761 48.34089 10.99295 47.02446 C10.09402 46.52108 9.41459 45.86077 8.94344 44.94534 C7.40584 41.78144 8 37.74081 8 34.399 C8 31.90428 8 29.40957 8 26.91486 C8 20.22665 8 19.05009 8 16.00002 z" />
<glyph unicode="p" horiz-adv-x="50" d="M8 0 C8 -6.66645 8 -13.33291 8 -19.99936 C5.33333 -19.99936 2.66667 -19.99936 0 -19.99936 C0 -16.89556 0 -13.79176 0 -10.68796 C0 -3.53833 0 3.61129 0 10.76092 C0 18.42918 0 26.09744 0 33.7657 C0 41.17713 -0 48.58857 0 56 C1.33339 56 2.66677 56 4.00016 56 C6.12492 56 8.24968 56 10.37444 56 C11.97254 56 13.57064 56 15.16874 56 C18.12918 56 18.65025 56.00001 20.00034 56 C23.71666 55.85917 27.19655 55.50757 30.55728 53.85871 C33.48412 52.33987 35.81114 50.26276 37.42539 47.38313 C40.60549 41.38508 40 34.60662 40 28.03195 C40 26.03433 40 24.0367 40 22.03908 C40 17.14335 40.50004 12.1563 38.29939 7.65738 C37.06814 5.27746 35.37986 3.38235 33.04168 2.06745 C32.84363 1.96211 29.49987 0 23.9998 0 C21.34385 0 18.6879 0 16.03195 0 C14.03433 0 12.0367 0 10.03908 0 C9.35939 0 8.67969 0 8 0 zM8 48 C8 43.25523 8 38.51047 8 33.7657 C8 26.09744 8 18.42918 8 10.76092 C8 9.38046 8 9.38046 8 8 C8.67969 8 9.35939 8 10.03908 8 C12.0367 8 14.03433 8 16.03195 8 C17.79337 8 19.55478 8 21.3162 8 C23.88141 8 26.66597 7.73443 29.00705 8.97554 C29.90598 9.47892 30.58541 10.13923 31.05656 11.05466 C31.80307 12.59075 32 14.30718 32 16 C32 18.01303 32 20.02605 32 22.03908 C32 24.0367 32 26.03433 32 28.03195 C32 32.93998 32.95168 38.82747 30.51729 43.34851 C29.7021 44.78167 28.62837 45.86951 27.16 46.61589 C25.82764 47.25543 23.95005 48 20 48 C18.38958 48 16.77916 48 15.16874 48 C13.57064 48 11.97254 48 10.37444 48 C9.90769 48 9.44094 48 8.9742 48 C8.64946 48 8.32473 48 8 48 z" />
<glyph unicode="q" horiz-adv-x="50" d="M20.00024 56 C22.78619 56 25.57214 56 28.35808 56 C29.77206 56 31.18605 56 32.60003 56 C35.06668 56 37.53334 56 40 56 C40 54.6664 40 53.3328 40 51.9992 C40 40.4234 40 28.84759 40 17.27179 C40 9.97177 40 2.67174 40 -4.62828 C40 -9.75219 40 -14.87609 40 -20 C37.33333 -20 34.66667 -20 32 -20 C32 -17.19418 32 -14.38836 32 -11.58255 C32 -9.26446 32 -6.94637 32 -4.62828 C32 -2.31414 32 -1.54276 32 0 C29.8508 0 27.7016 0 25.5524 0 C23.78492 0 22.01745 0 20.24997 0 C19.38325 0 16.39977 -0.00001 15.99974 0 C13.06172 0.11063 10.31512 0.40058 7.65738 1.70061 C5.27746 2.93186 3.38235 4.62014 2.06745 6.95832 C-1.05761 12.83402 0 20.07569 0 26.4476 C0 28.21508 0 29.98255 0 31.75003 C0 36.87158 -0.15446 41.87805 2.14129 46.55728 C3.66013 49.48412 5.73724 51.81114 8.61687 53.42539 C11.73281 55.07743 15.02176 55.89211 18.53006 55.96818 C19.21375 55.98301 19.8993 56 20.00024 56 zM32 48 C30.78603 48 29.57206 48 28.35808 48 C26.61444 48 24.87079 48 23.12714 48 C22.86066 48 20.3503 48 20.00002 48 C17.45811 47.95554 14.9157 47.73647 12.65149 46.51729 C11.21833 45.7021 10.13049 44.62837 9.38411 43.16 C7.68021 39.61022 8 35.57982 8 31.75003 C8 29.98255 8 28.21508 8 26.4476 C8 24.26804 8 22.08849 8 19.90893 C8 17.03442 7.56479 13.65402 8.97554 10.99295 C9.47892 10.09402 10.13923 9.41459 11.05466 8.94344 C12.59071 8.19695 14.29994 8 16 8 C17.41666 8 18.83331 8 20.24997 8 C22.01745 8 23.78492 8 25.5524 8 C27.7016 8 29.8508 8 32 8 C32 11.0906 32 14.18119 32 17.27179 C32 25.09044 32 32.9091 32 40.72776 C32 44.36388 32 45.57592 32 48 z" />
<glyph unicode="r" horiz-adv-x="50" d="M8 48 C7.15248 48 6.30495 48 5.45743 48 C3.63833 48 1.81922 48 0.00012 48 C0.00012 50.66667 0.00012 53.33333 0.00012 56 C0.57187 56 1.14361 56 1.71536 56 C2.96271 56 4.21007 56 5.45743 56 C6.70478 56 7.95214 56 9.1995 56 C11.46633 56 13.73317 56 16 56 C16 54.66651 16 53.33301 16 51.99952 C16 44.72311 16 37.4467 16 30.17029 C16 25.18086 16 20.19143 16 15.20201 C16 11.468 16 7.734 16 4 L8 4 C8 6.07086 8 8.14172 8 10.21258 C8 11.87572 8 13.53886 8 15.20201 C8 20.19143 8 25.18086 8 30.17029 C8 35.15972 8 40.14914 8 45.13857 C8 46.56929 8 47.04619 8 48 zM24.00281 56 C26.4274 56 28.85198 56 31.27657 56 C32.93971 56 34.60286 56 36.266 56 C37.51067 56 38.75533 56 40 56 C40 53.33333 40 50.66667 40 48 C39.30971 48 38.61943 48 37.92914 48 C37.37476 48 36.82038 48 36.266 48 C34.60286 48 32.93971 48 31.27657 48 C29.61343 48 27.95029 48 26.28714 48 C23.94981 48 21.47573 48.22975 19.47043 46.84113 C18.31053 45.99495 17.58815 44.83801 17.0877 43.51188 C16.22351 41.06481 16.08701 38.58058 16 36.0003 C13.33333 36.00031 10.66667 36.00032 8 36.00033 C8.03008 36.92767 8.04342 37.85571 8.09023 38.78235 C8.30885 41.3056 8.65734 43.74212 9.52641 46.12472 C10.62719 48.95232 12.16359 51.39878 14.6241 53.20612 C14.71945 53.27251 18.15187 56 24.00281 56 zM0 8 C0.13401 8 0.26803 8 0.40204 8 C0.70374 8 1.00544 8 1.30713 8 C3.24949 8 5.19185 8 7.13421 8 C12.75598 8 18.37775 8 23.99952 8 C23.99952 5.33333 23.99952 2.66667 23.99952 0 C21.87601 0 19.75249 0 17.62898 0 C14.13072 0 10.63247 0 7.13421 0 C5.19185 0 3.24949 0 1.30713 0 C1.00544 0 0.70374 0 0.40204 0 C0.26803 0 0.13401 0 0 0 C0 2.66667 0 5.33333 0 8 z" />
<glyph unicode="s" horiz-adv-x="50" d="M16.005 32 C17.21609 32 18.42719 32 19.63829 32 C20.46986 32 21.30143 32 22.133 32 C22.85539 32 23.90023 32 24.00026 32 C26.93828 31.88937 29.68488 31.59942 32.34262 30.29939 C34.72254 29.06814 36.61765 27.37986 37.93255 25.04168 C40.69252 19.85241 40.87128 12.91527 38.29939 7.65738 C37.06814 5.27746 35.37986 3.38235 33.04168 2.06745 C32.84363 1.96211 29.49987 0 23.9998 0 C20.96796 0 17.93612 0 14.90429 0 C12.82536 0 10.74643 0 8.6675 0 C7.11167 0 5.55583 0 4 0 L4 8 C4.86286 8 5.72572 8 6.58857 8 C7.28155 8 7.97453 8 8.6675 8 C10.74643 8 12.82536 8 14.90429 8 C16.98322 8 19.06214 8 21.14107 8 C23.7545 8 26.61838 7.7092 29.00705 8.97554 C29.90598 9.47892 30.58541 10.13923 31.05656 11.05466 C31.81847 12.62243 31.93094 14.27809 32 15.99978 C32.06745 17.6813 31.81764 19.5109 31.02446 21.00705 C30.52108 21.90598 29.86077 22.58541 28.94534 23.05656 C27.40881 23.80328 25.69204 23.99998 23.99875 24 C21.24875 24 24.508 24 22.133 24 C21.30143 24 20.46986 24 19.63829 24 C17.87838 24 16.15284 24 15.99998 24 C12.8116 24.07042 9.75886 24.49252 6.95832 26.06745 C4.65172 27.43698 2.87801 29.25036 1.70061 31.65738 C-0.75257 36.97169 -0.81357 43.91863 2.06745 49.04168 C3.43698 51.34828 5.25036 53.12199 7.65738 54.29939 C9.40411 55.10571 11.22611 55.61527 13.1393 55.83894 C13.43809 55.87387 13.7372 55.9092 14.03755 55.92611 C14.35145 55.94379 15.7996 56 16 56 C17.55583 56 19.11167 56 20.6675 56 C22.74643 56 24.82536 56 26.90429 56 C29.93612 56 32.96796 56 35.9998 56 L35.9998 48 C35.04689 48 34.09398 48 33.14107 48 C31.06214 48 28.98322 48 26.90429 48 C24.82536 48 22.74643 48 20.6675 48 C19.11093 48 17.55431 48.00002 15.99774 48 C14.27677 47.93086 12.60388 47.85391 11.05466 47.05656 C10.15082 46.56355 9.45811 45.91732 8.97554 45.00705 C8.21556 43.49376 7.93255 41.6813 8 39.99978 C8.06906 38.27809 8.14575 36.60454 8.94344 35.05466 C9.43645 34.15082 10.08268 33.45811 10.99295 32.97554 C11.12201 32.91073 12.70334 32 16.005 32 z" />
<glyph unicode=" " horiz-adv-x="27" d="" />
<glyph unicode="t" horiz-adv-x="50" d="M16 72 C16 69.75657 16 67.51314 16 65.26971 C16 63.46797 16 61.66623 16 59.86449 C16 54.45928 16 49.05407 16 43.64885 C16 38.24364 16 32.83843 16 27.43321 C16 22.56783 15.27735 16.85985 17.21034 12.17753 C17.74465 10.95905 18.41394 9.86992 19.52936 9.11887 C21.37381 7.93989 23.39995 8 24 8 C24.9335 8 25.867 8 26.8005 8 C28.04786 8 29.29522 8 30.54257 8 C32.36167 8 34.18078 8 35.99988 8 L35.99988 0 C35.42813 0 34.85639 0 34.28464 0 C33.03729 0 31.78993 0 30.54257 0 C29.29522 0 28.04786 0 26.8005 0 C26.36694 0 26.29976 -0.00005 23.99973 0 C20.85863 0.14033 18.01578 0.59625 15.33926 2.30395 C12.85959 3.96996 11.08546 6.16698 9.91334 8.89824 C7.5319 14.79688 8 21.19679 8 27.43321 C8 32.83843 8 38.24364 8 43.64885 C8 49.05407 8 54.45928 8 59.86449 C8 63.90966 8 67.95483 8 72 L16 72 zM32 48 C30.61943 48 29.23885 48 27.85828 48 C26.74952 48 25.64076 48 24.532 48 C21.20571 48 17.87943 48 14.55314 48 C9.7022 48 4.85126 48 0.00032 48 L0.00032 56 C1.52498 56 3.04963 56 4.57429 56 C7.90057 56 11.22686 56 14.55314 56 C17.87943 56 21.20571 56 24.532 56 C27.02133 56 29.51067 56 32 56 L32 48 z" />
<glyph unicode="u" horiz-adv-x="58" d="M16 56 C16 54.44686 16 52.89371 16 51.34057 C16 50.09321 16 48.84585 16 47.5985 C16 43.85642 16 40.11435 16 36.37228 C16 32.63021 16 28.88814 16 25.14607 C16 20.86281 15.5363 16.2326 17.21034 12.17753 C17.74465 10.95905 18.41394 9.86992 19.52936 9.11887 C21.37381 7.93989 23.39995 8 24 8 C24.34514 8 24.69029 8 25.03543 8 C25.31262 8 25.58981 8 25.867 8 C26.69857 8 27.53014 8 28.36171 8 C31.06253 8 34.18458 7.53502 36.52957 9.15887 C37.68947 10.00505 38.41185 11.16199 38.9123 12.48812 C39.77649 14.93519 39.91299 17.41942 40 19.9997 C42.66667 19.99969 45.33333 19.99968 48 19.99967 C47.96992 19.07233 47.95658 18.14429 47.90977 17.21765 C47.69115 14.6944 47.34266 12.25788 46.47359 9.87528 C45.37281 7.04768 43.83641 4.60122 41.3759 2.79388 C39.49209 1.48215 36.54995 0 31.99992 0 C30.78718 0 29.57445 0 28.36171 0 C27.53014 0 26.69857 0 25.867 0 C25.14461 0 24.09976 -0 23.99973 0 C20.85863 0.14033 18.01578 0.59625 15.33926 2.30395 C12.85959 3.96996 11.08546 6.16698 9.91334 8.89824 C7.8092 14.11002 8 19.61298 8 25.14607 C8 28.88814 8 32.63021 8 36.37228 C8 40.11435 8 43.85642 8 47.5985 C8 50.399 8 53.1995 8 56 L16 56 zM39.63187 -0.12106 C39.64775 2.3013 39.66364 4.72366 39.67953 7.14602 C39.69229 9.09145 39.70504 11.03689 39.7178 12.98233 C39.75608 18.81863 39.79435 24.65494 39.83263 30.49125 C39.88844 39.00272 39.94426 47.5142 40.00008 56.02567 L47.99991 55.97321 C47.98237 53.29804 47.96482 50.62288 47.94728 47.94772 C47.909 42.11141 47.87073 36.2751 47.83245 30.43879 C47.79418 24.60248 47.7559 18.76617 47.71763 12.92986 C47.68899 8.56207 47.66034 4.19428 47.6317 -0.17352 L39.63187 -0.12106 z" />
<glyph unicode="v" horiz-adv-x="58" d="M39.25685 46.04652 C39.45151 47.23936 39.62076 48.42526 39.73187 49.62882 C39.90211 51.75485 39.97168 53.86693 39.99834 55.99984 C42.665 55.99984 45.33167 55.99984 47.99834 55.99984 C47.98898 55.23578 47.98679 54.4716 47.97027 53.70767 C47.91538 52.13261 47.84933 50.56603 47.70684 48.99649 C47.56021 47.57855 47.40205 46.17385 47.15436 44.77008 C46.95518 43.73909 46.7697 42.79285 46.50156 41.76885 C46.49493 41.74669 46.48831 41.72452 46.48168 41.70235 C44.72045 35.81319 42.95922 29.92402 41.198 24.03485 C39.99032 19.99665 38.78265 15.95846 37.57498 11.92026 C36.38668 7.94684 35.19838 3.97342 34.01008 0 C33.01714 0 32.0242 0 31.03126 0 C30.71662 0 30.40198 0 30.08734 0 C29.87159 0 29.65584 0 29.44009 0 C28.36921 0 27.29833 0 26.22745 0 C25.89547 0.84681 25.56349 1.69362 25.23151 2.54042 C22.88771 8.5189 20.54391 14.49738 18.20011 20.47586 C16.59297 24.5753 14.98583 28.67473 13.37869 32.77417 C12.15986 35.88311 10.94104 38.99205 9.72221 42.10099 C9.70887 42.14298 9.69553 42.18497 9.68219 42.22696 C9.16958 44.02465 8.75974 45.79771 8.50482 47.64936 C8.32408 49.13794 8.17294 50.6167 8.09481 52.11423 C7.99988 54.47863 8.03791 53.18354 7.99834 56 C10.665 56 13.33167 56 15.99834 56 C16.00695 55.34462 16.0086 54.68911 16.02418 54.03385 C16.03536 53.56337 16.05497 53.09308 16.07861 52.62306 C16.15769 51.36123 16.24557 50.11018 16.41313 48.85709 C16.62885 47.42272 16.91253 46.04536 17.30667 44.6492 C19.75762 38.42796 18.58468 41.41316 20.82677 35.69411 C22.43391 31.59467 24.04105 27.49524 25.64819 23.3958 C26.97344 20.0154 28.29869 16.635 29.62394 13.25461 C29.76717 13.73353 29.76717 13.73353 29.91039 14.21245 C31.11807 18.25064 32.32574 22.28884 33.53341 26.32704 C35.38455 32.51687 37.67247 38.68554 39.04987 44.99483 C39.12607 45.3439 39.19375 45.69485 39.25685 46.04652 z" />
<glyph unicode="w" horiz-adv-x="58" d="M28.00084 27.16554 C27.09203 24.78394 26.18321 22.40235 25.27439 20.02076 C24.00508 16.69448 22.73576 13.36819 21.46645 10.04191 C20.18911 6.6946 18.91178 3.3473 17.63445 0 C16.71613 0 15.79781 0 14.87949 0 C14.6166 0 14.35371 0 14.09082 0 C13.89295 0 13.69508 0 13.49721 0 C12.06182 0 10.62644 0 9.19106 0 C9.13684 1.27699 9.08263 2.55399 9.02842 3.83098 C8.67695 12.73055 8.34381 21.62648 8.16263 30.5311 C8.07379 35.68773 7.99523 40.84177 8.00002 45.99915 C8.0334 52.45806 7.99982 49.09497 8.10916 56.08835 C10.77517 56.02945 13.44119 55.97055 16.1072 55.91165 C16.07944 54.14145 16.0431 52.37136 16.02391 50.60104 C16.00736 49.07533 16.00147 47.5495 15.99998 46.0237 C16.01552 40.92032 16.05676 35.81991 16.16046 30.71754 C16.33611 23.17906 16.23742 26.96698 16.45718 19.35379 C16.90482 20.52684 17.35246 21.6999 17.8001 22.87296 C19.97867 28.58197 22.15723 34.29099 24.3358 40 C25.25411 40 26.17243 40 27.09074 40 C27.21104 40 27.33135 40 27.45166 40 C27.61241 40 27.77316 40 27.93392 40 C29.05547 40 30.17701 40 31.29856 40 C31.64127 39.18177 31.98398 38.36354 32.3267 37.54531 C33.36935 35.05598 34.412 32.56664 35.45465 30.07731 C36.84785 26.75102 38.24105 23.42474 39.63426 20.09845 C39.68906 19.96761 39.70733 19.924 39.74387 19.83677 C39.82969 25.01428 39.91001 30.19175 39.97133 35.36962 C40.04527 42.24641 40.09255 49.12242 40.10818 55.9996 C42.77485 55.9996 45.44151 55.9996 48.10818 55.9996 C48.10366 54.00823 48.1022 52.01686 48.09462 50.0255 C48.06622 45.11132 48.02904 40.19754 47.97086 35.28361 C47.89761 29.59422 47.81709 23.90515 47.7181 18.21615 C47.60764 12.14393 47.48916 6.07192 47.3634 0 C46.05739 0 44.75138 0 43.44538 0 C43.23238 0 43.01939 0 42.8064 0 C42.66035 0 42.5143 0 42.36825 0 C41.37185 0 40.37545 0 39.37904 0 C39.03629 0.81834 38.69353 1.63667 38.35077 2.45501 C36.31897 7.30595 34.28717 12.15689 32.25537 17.00783 C30.86216 20.33411 29.46896 23.6604 28.07576 26.98668 C28.0383 27.07611 28.02581 27.10592 28.00084 27.16554 z" />
<glyph unicode="x" horiz-adv-x="58" d="M15.96779 56.18817 C16.12557 55.51006 16.40946 54.86523 16.69845 54.23595 C17.75959 52.01508 18.92637 49.8739 20.1694 47.74931 C21.16062 46.09478 23.84961 41.40998 31.31042 30.2188 C36.23021 22.75156 34.03205 26.2214 38.04107 19.89645 C40.16894 16.48837 42.29888 13.09856 44.24358 9.58297 C45.87294 6.51813 47.6689 3.50261 47.98222 0.00016 C45.31556 0.00011 42.64889 0.00005 39.98222 0 C39.97996 -0.02719 39.98675 -0.05676 39.97543 -0.08158 C39.30973 1.9978 38.2413 3.91849 37.18472 5.81834 C35.27702 9.14508 33.30949 12.41997 31.25564 15.65878 C26.69379 22.75809 24.68151 25.73997 24.6537 25.78168 C20.77193 31.67894 16.87455 37.54445 13.30732 43.63691 C11.96706 45.98993 10.62559 48.31598 9.48696 50.77266 C8.74012 52.48577 8.08496 54.12505 7.98222 55.99992 C10.64889 55.99997 13.31556 56.00003 15.98222 56.00008 C15.975 56.09413 15.975 56.09413 15.96779 56.18817 zM15.96779 -0.18817 C15.975 -0.09413 15.975 -0.09413 15.98222 -0.00008 C13.31556 -0.00003 10.64889 0.00003 7.98222 0.00008 C7.99456 0.22528 8.0006 0.45091 8.01924 0.67567 C8.23067 2.28361 8.80842 3.76332 9.48696 5.22734 C10.66319 7.66624 11.93906 10.02624 13.30732 12.36309 C19.00773 21.87184 25.32019 30.98136 31.25564 40.34122 C33.28753 43.59385 35.32082 46.83018 37.18472 50.18166 C38.27021 52.2097 38.43403 52.43513 39.33055 54.37942 C39.52213 54.7949 39.69957 55.24571 39.85194 55.68248 C39.8794 55.76119 39.90352 55.84102 39.92808 55.92068 C39.94455 55.97411 39.95223 56.13245 39.97543 56.08158 C39.98675 56.05676 39.97996 56.02719 39.98222 56 C42.64889 55.99995 45.31556 55.99989 47.98222 55.99984 C47.94762 55.61309 47.92348 55.22526 47.87843 54.83959 C47.2916 51.82399 45.71024 49.06843 44.24358 46.41703 C42.24876 42.92963 40.19204 39.4971 38.04107 36.10355 C34.0483 29.88806 30.1729 24.07495 31.3101 25.78072 C27.49902 19.99065 23.66976 14.23351 20.1694 8.25069 C18.95242 6.11107 17.72568 4.00081 16.69845 1.76405 C16.43951 1.16026 16.14501 0.57348 15.99599 -0.06698 C15.98189 -0.12758 15.97719 -0.14778 15.96779 -0.18817 z" />
<glyph unicode="y" horiz-adv-x="58" d="M32.42468 9.70423 C33.01887 8.24775 33.59049 6.80645 34.046 5.30095 C34.53515 3.53275 34.8742 1.8327 34.94667 0.0001 C32.28 0.00009 29.61333 0.00007 26.94667 0.00006 C26.93851 0.16788 26.93452 0.33595 26.9222 0.50352 C26.81759 1.40706 26.61173 2.27622 26.34225 3.14406 C25.94608 4.34255 25.5191 5.51203 25.02148 6.67229 C24.46225 7.92897 23.89123 9.16659 23.27506 10.39893 C23.25041 10.46467 23.22576 10.53041 23.20111 10.59615 C20.15409 18.95566 17.12706 27.2685 14.68172 35.82277 C13.59306 39.83974 12.52824 43.81915 11.78339 47.91329 C11.34422 50.6528 11.1012 53.21642 10.94667 55.99998 C13.61333 55.99999 16.28 56.00001 18.94667 56.00002 C18.99531 55.09728 19.02161 54.19306 19.0926 53.29181 C19.37781 50.89447 19.14568 52.1614 19.63168 49.46387 C20.38513 45.63189 21.27379 41.87249 22.34582 38.11659 C25.03356 29.13023 27.75734 19.81454 31.71613 11.30531 C31.96231 10.77615 32.19612 10.24123 32.42468 9.70423 zM27.36889 -6.21128 C30.16149 3.85365 30.16149 3.85365 32.95408 13.91857 C35.13182 21.91527 37.31458 29.90464 39.30988 37.94872 C40.73484 43.86993 42.48988 49.89851 42.94667 55.99988 C45.61333 55.99985 48.28 55.99983 50.94667 55.9998 C50.90114 55.29671 50.8861 54.59097 50.81008 53.89052 C49.94634 47.87025 48.55015 41.97698 47.08803 36.0778 C45.02648 27.96833 42.91761 19.87739 40.67299 11.81658 C34.75922 -9.21819 36.78232 -2.13542 34.69062 -9.45639 C34.63517 -9.56727 34.57973 -9.67816 34.52428 -9.78904 C33.13435 -12.23941 31.53552 -14.18594 29.1847 -15.75866 C26.84582 -17.24122 24.38965 -18.24485 21.70151 -18.88698 C18.10905 -19.67085 14.62719 -19.87669 10.94668 -20 C10.94667 -17.33333 10.94666 -14.66667 10.94666 -12 C12.09093 -11.96414 13.23602 -11.94858 14.37947 -11.89242 C16.17702 -11.73732 17.93476 -11.55121 19.6924 -11.14337 C21.43174 -10.69908 23.09823 -10.17146 24.61116 -9.19491 C25.52498 -8.57295 26.38164 -7.92279 26.93514 -6.96324 C27.15201 -6.58726 27.22431 -6.46193 27.36889 -6.21128 z" />
<glyph unicode="z" horiz-adv-x="58" d="M22.58906 8 C25.85013 8 29.11121 8 32.37228 8 C36.11435 8 39.85642 8 43.5985 8 C46.399 8 49.1995 8 52 8 C52 5.33333 52 2.66667 52 0 C50.44686 0 48.89371 0 47.34057 0 C46.09321 0 44.84585 0 43.5985 0 C39.85642 0 36.11435 0 32.37228 0 C25.58152 0 18.79076 0 12 0 C12 1.33333 12 2.66667 12 4 C12 4.13116 12 4.26232 12 4.39348 C12 4.56874 12 4.744 12 4.91926 C12 5.6043 12 6.28934 12 6.97438 C12.25063 7.3231 12.50127 7.67182 12.7519 8.02054 C15.24124 11.48408 17.73057 14.94762 20.21991 18.41116 C23.54619 23.03919 26.87248 27.66722 30.19876 32.29526 C33.96123 37.53017 37.72369 42.76509 41.48616 48 C40.54233 48 40.54233 48 39.5985 48 C35.85642 48 32.11435 48 28.37228 48 C22.91498 48 17.45767 48 12.00036 48 C12.00036 50.66667 12.00036 53.33333 12.00036 56 C13.7156 56 15.43083 56 17.14607 56 C20.88814 56 24.63021 56 28.37228 56 C32.11435 56 35.85642 56 39.5985 56 C43.73233 56 47.86617 56 52 56 C52 54.66666 52 53.33332 52 51.99998 C52 51.72853 52 51.45707 52 51.18562 C52 50.99948 52 50.81334 52 50.62721 C52 50.05846 52 49.48971 52 48.92097 C51.74926 48.5721 51.49852 48.22323 51.24778 47.87437 C46.39684 41.125 41.5459 34.37564 36.69496 27.62627 C33.36867 22.99824 30.04239 18.37021 26.7161 13.74218 C25.60734 12.1995 24.49858 10.65682 23.38982 9.11414 C22.98944 8.55707 22.85598 8.37138 22.58906 8 z" />
</font>
</svg>
